<?xml version="1.0" encoding="utf-8"?>
<!-- Generator: Adobe Illustrator 19.0.0, SVG Export Plug-In . SVG Version: 6.00 Build 0)  -->
<svg version="1.1" id="Capa_1" xmlns="http://www.w3.org/2000/svg" xmlns:xlink="http://www.w3.org/1999/xlink" x="0px" y="0px"
	 viewBox="-29 121.4 551.6 551.6" style="enable-background:new -29 121.4 551.6 551.6;" xml:space="preserve">
<g>
	<g fill="#c3c3c3">
		<circle cx="158.6" cy="259.5" r="34.2"/>
		<circle cx="159.7" cy="151.6" r="30.2"/>
		<path d="M188.1,673c11.5,0,21.2-10.6,21.3-21l0-316.9l37.1-30.7c2.6-2.1,4.6-4.8,5.8-7.9l30.4-72.5c4.4-10.4-0.5-22.5-11-26.8
			c-8.2-3.5-17.4-1.1-23.1,5.2c-1.5,1.7-2.8,3.6-3.8,5.8l-3.8,9.1l-43.3-24.5c-2.1-1.2-4.4-1.8-6.7-1.8c0,0,0,0,0,0h-64.9
			c-2.4,0-4.8,0.6-6.9,1.9L76.4,218l-4.1-9.8c-0.4-1-1-2-1.6-2.9c-5.2-8.4-15.9-12.1-25.3-8.1c-10.4,4.4-15.4,16.4-11,26.8
			l30.4,72.5c1.3,3.1,3.3,5.8,5.8,7.9l42.5,35.2c0.1,0.3,0.1,312.2,0.1,312.2c0.1,10.4,9.4,21.2,20.9,21.2
			c10.6,0,19.4-9.1,20.7-18.8c0.2-1.3,0.1-170.4,0.1-170.4c0-1.3,1-2.3,2.3-2.3h8.1c1.3,0,2.3,1,2.3,2.3l0,168.2
			C167.8,662.5,176.6,673,188.1,673z M131.1,301.1L100.7,276l-13.6-32.6l42.8-25.1h57.6l43,24.3l-14,33.4l-30.4,25.1L131.1,301.1
			L131.1,301.1z"/>
		<circle cx="291.1" cy="321.9" r="21.6"/>
		<path d="M446.2,419.9l-3.6-17.6l-8.5-40.8c0,0-4-18.7-20.8-18.7c-20.3,0-30.8,0-34,0c-3.2,0-7.3-10.1-9.9-10.1
			c-2.7,0-27.3,0-37.4,0c-10,0-13.2,2.8-13.2,2.8l-1.6,1.3l-28.2,22.9c0,0-1.1,1-2.2,3c-1.2,2.1-2.5,5.4-2.5,9.8
			c0,8.7,0,18.1,0,26.9c0,35.6,28.8,40.1,28.8,40.1s1.5,0,4.2,0c0.1,0.3,0.1,0.5,0,0.8l-20.3,78.7c-0.3,1,0.4,1.8,1.4,1.8h25.1
			c1,0,1.9,0.8,1.9,1.9v129c0,1,0,1.9,0,2c0,0,0,0.1,0,0.1c0,10.2,8.3,18.4,18.4,18.4c10.2,0,18-8.3,18-18.5c0-1.3,0-2.6,0-3.8
			V521.7c0-1,0.8-1.8,1.9-1.8l6.5,0.3c1,0,1.9,0.9,1.9,1.9v129.7c0,1,0,1.9,0,2c0,0.1,0,0.3,0,0.5c0,0.1,0,0.3,0,0.3
			c0,10.2,7.7,17.8,17.8,17.8c10.2,0,18.7-8.3,18.7-18.5c0-1.3-0.1-2.6-0.1-3.8V522.9c0-1,0.8-1.9,1.9-1.9l19.1-0.7
			c1,0,1.7-0.9,1.5-1.9L417,439.5c1.9,0,3.6,0,5.1,0C451.2,439.5,446.2,419.9,446.2,419.9z"/>
		<circle cx="369.1" cy="287.7" r="34.2"/>
	</g>
</g>
</svg>
