<?xml version="1.0" encoding="iso-8859-1"?>
<!-- Generator: Adobe Illustrator 16.0.0, SVG Export Plug-In . SVG Version: 6.00 Build 0)  -->
<!DOCTYPE svg PUBLIC "-//W3C//DTD SVG 1.1//EN" "http://www.w3.org/Graphics/SVG/1.1/DTD/svg11.dtd">
<svg version="1.1" id="Capa_1" xmlns="http://www.w3.org/2000/svg" xmlns:xlink="http://www.w3.org/1999/xlink" x="0px" y="0px"
	 width="487.549px" height="487.549px" viewBox="0 0 487.549 487.549" style="enable-background:new 0 0 487.549 487.549;"
	 xml:space="preserve">
<g>
	<g>
		<g fill="#c3c3c3">
			<path d="M352.634,410.996L101.388,159.733h-3.641c-14.157,0-27.082,4.809-37.633,12.672L25.915,146.75
				c-7.148-5.363-17.289-3.891-22.668,3.242c-5.379,7.164-3.923,17.32,3.241,22.668l33.317,24.992
				c-3.418,7.785-5.395,16.355-5.395,25.422v87.841c0,11.323,7.895,20.77,18.477,23.254l-7.422,16.354
				c-6.77,14.979-7.922,31.892-3.289,47.645l17.387,58.88c3.813,12.938,15.661,21.336,28.504,21.336
				c2.785,0,5.648-0.396,8.445-1.229c15.758-4.652,24.741-21.185,20.105-36.938l-17.398-58.875c-0.602-2.09-0.445-4.305,0.441-6.267
				l10.395-22.938c4.762-10.504,15.25-17.272,26.797-17.272h100.304c19.997,0,37.458,13.478,42.566,32.793l23.331,88.535
				c3.496,13.352,15.552,22.176,28.728,22.176c2.517,0,5.048-0.315,7.578-0.996c15.914-4.19,25.371-20.453,21.181-36.332
				L352.634,410.996z"/>
			<path d="M480.208,148.52l-48.23-62.516c-7.862-10.199-18.206-17.906-29.814-22.73l-35.04-49.02
				c-2.754-3.859-7.5-5.758-12.146-4.875c-4.653,0.902-8.354,4.414-9.492,9.02l-12.971,52.296
				c-5.362,3.729-10.332,8.098-14.602,13.238c-7.75,9.348-12.91,20.328-15.281,31.906c-1.489,7.262-5.062,13.938-10.297,19.172
				l-0.031,0.031c-9.762,9.777-21.801,16.516-34.754,20.531l85.879,85.863c1.707-2.941,3.43-5.883,5.504-8.621l18-23.742
				l44.185,22.621c14.693,7.496,32.634,3.828,43.168-8.859l25.138-30.246C489.953,179.892,490.285,161.585,480.208,148.52z"/>
			<path d="M107.001,50.824c-9.493-9.488-24.867-9.488-34.355,0c-9.492,9.492-9.492,24.867,0,34.359L381.47,394.023
				c4.746,4.745,10.961,7.12,17.181,7.12c6.215,0,12.435-2.375,17.181-7.12c9.487-9.488,9.487-24.867,0-34.354L107.001,50.824z"/>
		</g>
	</g>
</g>
<g>
</g>
<g>
</g>
<g>
</g>
<g>
</g>
<g>
</g>
<g>
</g>
<g>
</g>
<g>
</g>
<g>
</g>
<g>
</g>
<g>
</g>
<g>
</g>
<g>
</g>
<g>
</g>
<g>
</g>
</svg>
