<svg height="512pt" viewBox="-94 0 512 512" width="512pt" xmlns="http://www.w3.org/2000/svg">
<path fill="#c3c3c3" d="m201.511719 91.816406c-14.210938 0-25.726563 11.515625-25.726563 25.722656 0 14.210938 11.515625 25.726563 25.726563 25.726563 14.207031 0 25.722656-11.515625 25.722656-25.726563 0-14.207031-11.515625-25.722656-25.722656-25.722656zm0 34.300782c-4.738281 0-8.578125-3.839844-8.578125-8.578126 0-4.734374 3.839844-8.574218 8.578125-8.574218 4.734375 0 8.574219 3.839844 8.574219 8.574218 0 4.738282-3.839844 8.578126-8.574219 8.578126zm0 0"/>
<path fill="#c3c3c3" d="m311.210938 85.753906-23.210938 23.210938h-31.480469c-1.363281-8.773438-4.8125-17.089844-10.058593-24.25l29.714843-29.714844-12.128906-12.125-29.710937 29.714844c-7.160157-5.246094-15.476563-8.695313-24.25-10.058594v-27.191406l23.210937-23.214844-12.125-12.125-19.660156 19.664062-19.664063-19.664062-12.125 12.125 23.210938 23.214844v27.191406c-8.769532 1.363281-17.085938 4.8125-24.25 10.058594l-29.710938-29.714844-12.125 12.125 29.710938 29.714844c-5.246094 7.160156-8.695313 15.476562-10.058594 24.25h-27.191406l-23.214844-23.214844-12.125 12.128906 19.664062 19.660156-19.664062 19.664063 12.125 12.125 23.214844-23.210937h27.191406c1.363281 8.769531 4.8125 17.085937 10.058594 24.25l-29.710938 29.710937 12.125 12.125 29.710938-29.710937c7.164062 5.246093 15.480468 8.695312 24.25 10.058593v27.191407l-23.210938 23.214843 12.125 12.125 19.664063-19.664062 19.660156 19.664062 12.128906-12.125-23.214843-23.214843v-27.191407c8.773437-1.363281 17.089843-4.8125 24.25-10.058593l29.714843 29.710937 12.125-12.125-29.714843-29.710937c5.246093-7.164063 8.695312-15.480469 10.058593-24.25h31.480469l23.214844 23.210937 12.125-12.125-19.664063-19.664063 19.664063-19.660156zm-109.699219 70.375c-21.3125 0-38.589844-17.277344-38.589844-38.589844 0-21.308593 17.277344-38.585937 38.589844-38.585937 21.308593 0 38.585937 17.277344 38.585937 38.585937-.023437 21.304688-17.285156 38.566407-38.585937 38.589844zm0 0"/>
<path fill="#c3c3c3" d="m102.894531 384.058594v-180.765625c0-18.945313-15.355469-34.300781-34.300781-34.300781-18.941406 0-34.300781 15.355468-34.300781 34.300781v180.757812c-21.984375 12.695313-35.160157 36.496094-34.2500002 61.867188 1.7109372 36.265625 31.0937502 65.082031 67.3867192 66.082031h1.164062c37.886719 0 68.601562-30.714844 68.601562-68.601562-.09375-24.464844-13.148437-47.046876-34.300781-59.339844zm1.777344 96.042968c-9.71875 9.847657-23.105469 15.195313-36.933594 14.75-27.238281-.722656-49.304687-22.332031-50.59375-49.550781-.734375-20.527343 10.8125-39.527343 29.378907-48.328125 2.976562-1.417968 4.878906-4.417968 4.886718-7.71875v-185.960937c0-9.472657 7.679688-17.152344 17.148438-17.152344 9.472656 0 17.152344 7.679687 17.152344 17.152344v42.875h-8.539063c-4.738281 0-8.578125 3.839843-8.578125 8.574219 0 4.738281 3.839844 8.578124 8.578125 8.578124h8.574219v17.148438h-8.574219c-4.738281 0-8.578125 3.839844-8.578125 8.574219 0 4.738281 3.839844 8.578125 8.578125 8.578125h8.574219v17.148437h-8.574219c-4.738281 0-8.578125 3.839844-8.578125 8.574219 0 4.738281 3.839844 8.578125 8.578125 8.578125h8.574219v17.148437h-8.574219c-4.738281 0-8.578125 3.839844-8.578125 8.574219 0 4.738281 3.839844 8.578125 8.578125 8.578125h8.574219v23.003906c.007812 3.300782 1.910156 6.300782 4.886718 7.71875 17.910157 8.550782 29.34375 26.605469 29.414063 46.453126.042969 13.804687-5.503906 27.035156-15.375 36.683593zm0 0"/>
<path fill="#c3c3c3" d="m77.171875 410.316406v-18.371094c0-4.734374-3.839844-8.574218-8.578125-8.574218-4.734375 0-8.574219 3.839844-8.574219 8.574218v18.371094c-18.34375 4.734375-29.371093 23.441406-24.636719 41.785156 4.738282 18.34375 23.445313 29.371094 41.789063 24.636719 18.339844-4.734375 29.371094-23.445312 24.632813-41.785156-3.117188-12.082031-12.550782-21.519531-24.632813-24.636719zm-8.578125 50.230469c-9.472656 0-17.148438-7.675781-17.148438-17.148437 0-9.472657 7.675782-17.152344 17.148438-17.152344s17.152344 7.679687 17.152344 17.152344c0 9.472656-7.679688 17.148437-17.152344 17.148437zm0 0"/>
</svg>