<?xml version="1.0" encoding="utf-8"?>
<!-- Generator: Adobe Illustrator 19.0.0, SVG Export Plug-In . SVG Version: 6.00 Build 0)  -->
<svg version="1.1" id="Layer_1" xmlns="http://www.w3.org/2000/svg" xmlns:xlink="http://www.w3.org/1999/xlink" x="0px" y="0px"
	 viewBox="0 0 612 792" style="enable-background:new 0 0 612 792;" xml:space="preserve">
<style type="text/css">
	.st0{fill:#f8f9fc;}
</style>
<g fill="#21b186">
	<path class="st0" d="M114.8,534c0-109.8,0-219.5,0-329.2c128,0,256,0,384,0c0,63.2,0,126.5,0,189.7c-0.2-0.6-0.6-1.1-0.7-1.7
		c-3.6-21.2-20.5-36.7-42.1-37.4c-18.4-0.6-36.7-0.2-55.1-0.3c-1.4,0-2.9,0-4.5,0c0-2.2,0-3.7,0-5.1c0-12.7,0.1-25.5,0-38.2
		c0-5.6-3-8.4-8.1-7.6c-17.9,2.7-35.8,5.5-53.7,8.2c-7,1.1-13.9,2.1-21.2,3.2c0.4-2.7-1.6-5.5,2.3-6.6c15.6-4.4,26.2-19.7,22.5-38.8
		c-3.6-18.7-13.9-33.8-26.6-47.3c-2.8-3-6.7-2.8-9.6,0.3c-10.9,11.6-19.6,24.6-24.6,39.9c-7.2,22.1,2.6,41.2,21.3,46.1
		c3.5,0.9,1.6,4.3,1.7,6.5c0,0.8-1.7,2.2-2.8,2.3c-23.9,3.8-47.9,7.5-71.8,11.2c-6.9,1.1-8.4,2.6-8.4,9.8c0,21.1,0,42.2,0,63.4
		c0,1.3,0,2.6,0,4c-5.2-3.9-10-7.6-14.8-11.1c-3-2.2-5.9-1.9-9,0.1c-12.6,8-22.2,18.6-27.9,32.4c-2.4,5.8-3.9,12-5.6,17.5
		c-6.5,0-13.1,0-19.7,0c-4,0-6.3,2-7.7,5.8c-9.7,27.3-5,51.8,14,73.6c2.9,3.3,6.4,6.1,10.3,9.7c-3.1,0-5.6,0-8,0
		C137.5,534.2,126.1,534.1,114.8,534z" />
	<path d="M114.8,534c11.4,0.1,22.7,0.2,34.1,0.3c2.4,0,4.9,0,8,0c-3.9-3.6-7.4-6.4-10.3-9.7c-19-21.7-23.7-46.3-14-73.6
		c1.4-3.8,3.7-5.8,7.7-5.8c6.6,0,13.2,0,19.7,0c1.7-5.5,3.3-11.7,5.6-17.5c5.6-13.9,15.3-24.4,27.9-32.4c3.1-2,6-2.3,9-0.1
		c4.8,3.5,9.5,7.2,14.8,11.1c0-1.4,0-2.7,0-4c0-21.1,0-42.2,0-63.4c0-7.2,1.4-8.7,8.4-9.8c23.9-3.7,47.9-7.4,71.8-11.2
		c1.1-0.2,2.8-1.6,2.8-2.3c-0.1-2.2,1.8-5.6-1.7-6.5c-18.7-5-28.5-24-21.3-46.1c5-15.3,13.7-28.3,24.6-39.9c2.9-3.1,6.8-3.4,9.6-0.3
		c12.7,13.6,23,28.7,26.6,47.3c3.7,19.1-6.8,34.4-22.5,38.8c-3.9,1.1-1.9,3.9-2.3,6.6c7.3-1.1,14.3-2.1,21.2-3.2
		c17.9-2.7,35.8-5.5,53.7-8.2c5.1-0.8,8.1,1.9,8.1,7.6c0.1,12.7,0,25.5,0,38.2c0,1.5,0,3,0,5.1c1.7,0,3.1,0,4.5,0
		c18.4,0,36.8-0.3,55.1,0.3c21.6,0.7,38.5,16.1,42.1,37.4c0.1,0.6,0.4,1.1,0.7,1.7c0,3.8,0,7.5,0,11.2c-1.9,7.1-3.7,14.3-8.5,20.1
		c-3.8,4.6-8.3,8.7-12.6,13c7.9,5,14.2,12,17.7,21.2c1.4,3.6,2.2,7.3,3.3,11c0,3.8,0,7.5,0,11.2c-2.2,5.9-4.1,11.9-6.7,17.6
		c-1.4,3.1-3.9,5.6-6.2,8.8c5.1,0,10-0.6,12.9,4.3c0,9.8,0,19.5,0,29.2c-2.3,5.9-7.8,4.7-12.8,5.1c0,6,0,11.7,0,17.4
		c-0.1,5.6-2.4,8-8,8.1c-7.6,0.1-15.2,0-22.9,0c-3.5,0-5.9-1.5-7.4-4.7c-2.8-5.7-5.8-11.3-8.5-17.1c-1.3-2.9-2.9-4-6.2-3.9
		c-10.7,0.2-21.5,0.1-32.2,0.1c-1.3,0-2.7,0-3.8,0c-0.3,0.7-0.5,0.9-0.5,1.1c-0.1,5.2-0.1,10.5-0.1,15.7c-0.1,6.6-2.2,8.7-8.8,8.7
		c-79.6,0-159.2,0-238.8,0c-4.1,0-6.8-1.5-8.6-5.3c-2.8-6.1-5.9-12.1-9.1-18.1c-0.5-1-1.9-2.2-2.9-2.2c-4.5-0.1-9,0.1-13.4,0.2
		C114.8,543,114.8,538.5,114.8,534z M230,341.4c0,1.8,0,3.2,0,4.7c0,23.4,0.5,46.8-0.2,70.1c-0.4,10.7,5,19.6,5.9,28.9
		c7.2,0,13.8,0,20.4,0c3.9,0,6,2.1,7.4,5.7c11.4,29.4,2.6,61.6-22.2,81.2c-0.6,0.5-1.5,0.7-2.2,1.1c0.3,0.4,0.6,0.8,0.8,1.2
		c13.7,0,27.4,0,41.2,0c0,4.4,0,8.3,0,12.8c-4.2,0-8.3-0.1-12.4,0c-1,0-2.6,0.2-3,0.8c-2.1,3.7-4,7.6-6.1,11.7c16.1,0,31.5,0,46.9,0
		c0-4.3,0-8.3,0-12.6c-1.6,0-3,0-4.3,0c-6-0.2-8.2-2.3-8.2-8.2c0-7.5,0-15,0-22.5c0-5.2,2.3-7.5,7.5-7.8c1.7-0.1,3.3,0,5.8,0
		c-12.4-14.1-16.7-29.4-10.8-46.5c5.9-17.1,18.7-26.7,36.6-30.1c-0.7-0.9-1.1-1.4-1.5-1.8c-11.5-13.1-15.1-28.1-9.6-44.6
		c5.5-16.5,17.4-26.7,34.5-29.7c7.3-1.3,14.9-0.6,22.4-0.9c1.4,0,2.9-0.1,4.3-0.2c0-12.5,0-24.6,0-37.1
		C332.2,325.7,281.4,333.5,230,341.4z M402.6,470.3c-1.5,0-2.9,0-4.2,0c-13.1,0-26.2,0-39.4,0c-4.5,0-7.3,2.6-7.3,6.4
		c0,3.9,2.7,6.4,7.2,6.4c21,0,42,0.1,63,0c10.9-0.1,19.1-8.4,19.2-18.9c0.1-10.6-8-19.2-18.9-19.3c-27.9-0.2-55.8-0.5-83.6,0
		c-25.3,0.5-39.8,26.7-27,48.4c6.5,10.9,16.8,15.4,29.4,15.4c36.9-0.1,73.7,0,110.6,0c1.9,0,3.8,0,5.6-0.2
		c10.4-1.1,18.5-6.1,23.8-15c7-11.6,6.7-23.5-0.7-34.6c-7.6-11.3-19-15-32.6-13.9c0.4,0.8,0.7,1.3,1,1.8
		c13.2,21.9-0.7,48.3-26.2,48.9c-21.7,0.5-43.5,0.2-65.2,0.1c-6.9,0-12.2-3.4-15.7-9.3c-7.7-13,1.5-28.7,17-28.9c14-0.2,28,0,42,0
		c0.7,0,1.4,0.2,2.1,0.3C402.6,462,402.6,466,402.6,470.3z M461.2,369.1c0.6,1,0.9,1.7,1.3,2.3c11.2,19.7-1.2,45.5-23.8,46.9
		c-23,1.4-46.2,0.9-69.3,0.5c-10.8-0.2-18.1-9.3-17.7-19.8c0.4-10.1,8.2-17.9,18.7-18.1c14.5-0.3,29-0.1,43.5-0.1
		c0.5,0,0.9,0.2,1.3,0.3c0,4.2,0,8.3,0,12.5c-14.6,0-28.8,0-43,0c-4.9,0-7.7,2.3-7.7,6.2c-0.1,3.9,2.8,6.5,7.5,6.5
		c20.7,0.1,41.5,0.1,62.2,0c6.9,0,12.6-2.9,16.5-8.7c8-12.2,0-28.6-14.5-29.4c-10.7-0.5-21.5-0.3-32.2-0.2
		c-14.4,0-28.8-0.3-43.1,0.4c-15.9,0.7-29.5,16.7-28.5,32.5c1.2,17.8,13.9,30.7,31.8,31c30,0.4,60,0.3,90,0
		c17.1-0.2,30.2-13.3,31.5-30.1C486.8,387.5,476.6,373,461.2,369.1z M200.4,534.2c34.2-1.6,59.4-31.6,54.4-65.6
		c-1.9-13.1-0.5-11.8-13.3-10.3c-33.5,3.8-56.7,37.9-48.3,70.6C194.7,534.4,194.7,534.4,200.4,534.2z M180.4,531.5
		c-2.4-29.5-2.4-29.6,9.3-54.5c-11.1-12.4-25.1-18.7-41.7-19.5c-3.3-0.2-4.8,0.6-5.7,4c-5.3,21.6,0.1,40.3,15.3,56.2
		C163.9,524.2,171.6,528.8,180.4,531.5z M485.8,521.8c-59.8,0-119.4,0-178.9,0c0,4.3,0,8.2,0,12.2c59.7,0,119.2,0,178.9,0
		C485.8,529.8,485.8,526,485.8,521.8z M172.9,448.7c9,6,17.3,11.6,25,16.8c7-4.6,14.1-9.6,21.6-13.9c3-1.7,3.7-3.2,3.1-6.3
		c-3-14.8-10.2-26.9-22.2-36.1c-1.8-1.4-3-1.4-4.8,0C182.3,419.5,174.8,432.9,172.9,448.7z M313.1,296c8.4-2.9,13.2-10.7,12.7-19
		c-0.5-9-3.6-17.1-8.2-24.6c-3.2-5.4-7-10.4-10.7-15.9c-2.2,2.8-3.9,4.8-5.4,7c-7.1,10.1-13,20.7-13.9,33.4
		c-0.6,8.5,4.8,16.9,12.8,18.8c0-3.7,0-7.2,0-10.8c4.5,0,8.4,0,12.7,0C313.1,288.7,313.1,292.2,313.1,296z M251.4,547.5
		c-35.9,0-71.1,0-106.9,0c2,4,3.6,7.6,5.6,11c0.5,0.8,2,1.4,3,1.4c29.9,0.1,59.7,0.1,89.6,0c1.1,0,2.7-0.8,3.2-1.7
		C247.9,554.9,249.5,551.4,251.4,547.5z M349.7,559.7c11.3,0,22.4,0,33.6,0c0-4.3,0-8.2,0-12.5c-5.5,0-10.7,0-15.9,0
		c-12.6,0-12.6,0-17.6,11.8C349.7,559,349.7,559.2,349.7,559.7z M451.6,547.4c2,4.1,3.8,7.7,5.8,11.3c0.3,0.6,1.3,1.2,2,1.2
		c4.5,0.1,8.9,0.1,13.5,0.1c0-4.5,0-8.5,0-12.6C465.8,547.4,459,547.4,451.6,547.4z M341,547.5c-7.5,0-14.4,0-21.3,0
		c0,4.2,0,8.2,0,12.5c4.6,0,9.1,0.1,13.5-0.1c0.7,0,1.7-0.6,2.1-1.2C337.2,555.2,339,551.5,341,547.5z"/>
	<path class="st0" d="M114.8,547.5c4.5-0.1,9-0.4,13.4-0.2c1,0,2.4,1.2,2.9,2.2c3.1,6,6.2,12,9.1,18.1c1.8,3.8,4.5,5.3,8.6,5.3
		c79.6,0,159.2,0,238.8,0c6.6,0,8.7-2.1,8.8-8.7c0.1-5.2,0.1-10.5,0.1-15.7c0-0.2,0.2-0.4,0.5-1.1c1.1,0,2.5,0,3.8,0
		c10.7,0,21.5,0.1,32.2-0.1c3.3-0.1,4.9,1.1,6.2,3.9c2.6,5.8,5.7,11.4,8.5,17.1c1.5,3.2,3.9,4.7,7.4,4.7c7.6,0,15.2,0.1,22.9,0
		c5.6-0.1,8-2.5,8-8.1c0.1-5.7,0-11.4,0-17.4c5-0.3,10.4,0.9,12.8-5.1c0,15.5,0,31,0,46.5c-128,0-256,0-384,0
		C114.8,575,114.8,561.2,114.8,547.5z"/>
	<path class="st0" d="M498.8,471c-1.1-3.7-1.9-7.4-3.3-11c-3.6-9.1-9.8-16.1-17.7-21.2c4.3-4.4,8.7-8.4,12.6-13
		c4.8-5.8,6.6-13,8.5-20.1C498.8,427.5,498.8,449.2,498.8,471z"/>
	<path class="st0" d="M498.8,513c-2.9-4.9-7.8-4.4-12.9-4.3c2.3-3.2,4.8-5.7,6.2-8.8c2.6-5.7,4.5-11.7,6.7-17.6
		C498.8,492.5,498.8,502.8,498.8,513z"/>
	<path class="st0" d="M230,341.4c51.4-7.9,102.2-15.7,153.3-23.6c0,12.5,0,24.6,0,37.1c-1.5,0.1-2.9,0.2-4.3,0.2
		c-7.5,0.2-15.1-0.4-22.4,0.9c-17.2,3-29,13.2-34.5,29.7c-5.5,16.5-1.9,31.5,9.6,44.6c0.4,0.5,0.8,0.9,1.5,1.8
		c-17.9,3.3-30.7,13-36.6,30.1c-5.9,17.1-1.6,32.4,10.8,46.5c-2.4,0-4.1-0.1-5.8,0c-5.2,0.3-7.5,2.6-7.5,7.8c-0.1,7.5,0,15,0,22.5
		c0,5.9,2.2,8,8.2,8.2c1.4,0,2.7,0,4.3,0c0,4.3,0,8.3,0,12.6c-15.5,0-30.8,0-46.9,0c2.1-4.2,3.9-8,6.1-11.7c0.4-0.7,2-0.8,3-0.8
		c4.1-0.1,8.2,0,12.4,0c0-4.5,0-8.4,0-12.8c-13.9,0-27.5,0-41.2,0c-0.3-0.4-0.6-0.8-0.8-1.2c0.8-0.3,1.6-0.6,2.2-1.1
		c24.8-19.6,33.6-51.8,22.2-81.2c-1.4-3.6-3.5-5.7-7.4-5.7c-6.6,0-13.2,0-20.4,0c-0.9-9.4-6.2-18.3-5.9-28.9
		c0.8-23.3,0.2-46.7,0.2-70.1C230,344.7,230,343.2,230,341.4z M255.4,406.2c0-17,0-33.8,0-50.7c-4.2,0-8.3,0-12.3,0
		c0,17.1,0,33.9,0,50.7C247.3,406.2,251.2,406.2,255.4,406.2z M255.3,431.8c0-4.3,0-8.4,0-12.3c-4.3,0-8.3,0-12.3,0
		c0,4.2,0,8.2,0,12.3C247.2,431.8,251.1,431.8,255.3,431.8z"/>
	<path class="st0" d="M402.6,470.3c0-4.3,0-8.3,0-12.4c-0.7-0.1-1.4-0.3-2.1-0.3c-14,0-28-0.2-42,0c-15.5,0.2-24.7,15.9-17,28.9
		c3.5,5.9,8.8,9.3,15.7,9.3c21.7,0.1,43.5,0.5,65.2-0.1c25.5-0.6,39.4-27.1,26.2-48.9c-0.3-0.5-0.6-1-1-1.8
		c13.6-1.1,25,2.6,32.6,13.9c7.5,11.1,7.7,23,0.7,34.6c-5.4,8.9-13.5,13.8-23.8,15c-1.9,0.2-3.7,0.2-5.6,0.2c-36.9,0-73.7,0-110.6,0
		c-12.6,0-22.9-4.5-29.4-15.4c-12.8-21.7,1.7-48,27-48.4c27.9-0.5,55.7-0.2,83.6,0c10.9,0.1,18.9,8.7,18.9,19.3
		c-0.1,10.6-8.3,18.8-19.2,18.9c-21,0.1-42,0.1-63,0c-4.5,0-7.2-2.5-7.2-6.4c0-3.8,2.8-6.3,7.3-6.4c13.1-0.1,26.2,0,39.4,0
		C399.7,470.3,401,470.3,402.6,470.3z"/>
	<path class="st0" d="M461.2,369.1c15.4,3.9,25.6,18.4,24.5,32.7c-1.3,16.8-14.4,29.9-31.5,30.1c-30,0.3-60,0.4-90,0
		c-17.9-0.2-30.6-13.2-31.8-31c-1-15.8,12.6-31.8,28.5-32.5c14.3-0.6,28.7-0.3,43.1-0.4c10.7,0,21.5-0.3,32.2,0.2
		c14.6,0.7,22.6,17.2,14.5,29.4c-3.9,5.9-9.6,8.7-16.5,8.7c-20.7,0.1-41.5,0.1-62.2,0c-4.8,0-7.6-2.6-7.5-6.5
		c0.1-3.9,2.8-6.2,7.7-6.2c14.2,0,28.5,0,43,0c0-4.2,0-8.3,0-12.5c-0.4-0.1-0.8-0.3-1.3-0.3c-14.5,0-29-0.2-43.5,0.1
		c-10.5,0.2-18.4,8.1-18.7,18.1c-0.4,10.6,6.9,19.6,17.7,19.8c23.1,0.4,46.3,0.9,69.3-0.5c22.6-1.4,35-27.2,23.8-46.9
		C462.1,370.8,461.8,370.2,461.2,369.1z"/>
	<path class="st0" d="M200.4,534.2c-5.7,0.3-5.7,0.3-7.2-5.4c-8.4-32.7,14.8-66.8,48.3-70.6c12.8-1.5,11.3-2.8,13.3,10.3
		C259.8,502.6,234.6,532.6,200.4,534.2z"/>
	<path class="st0" d="M180.4,531.5c-8.9-2.7-16.5-7.3-22.8-13.8c-15.2-15.8-20.6-34.6-15.3-56.2c0.8-3.4,2.4-4.2,5.7-4
		c16.7,0.8,30.6,7.1,41.7,19.5C178.1,501.9,178,502.1,180.4,531.5z"/>
	<path class="st0" d="M485.8,521.8c0,4.2,0,8,0,12.2c-59.6,0-119.2,0-178.9,0c0-4,0-7.9,0-12.2C366.5,521.8,426,521.8,485.8,521.8z"
		/>
	<path class="st0" d="M172.9,448.7c1.9-15.8,9.4-29.2,22.7-39.4c1.8-1.4,3-1.4,4.8,0c12,9.2,19.3,21.3,22.2,36.1
		c0.6,3.1-0.1,4.6-3.1,6.3c-7.5,4.3-14.6,9.3-21.6,13.9C190.1,460.3,181.8,454.7,172.9,448.7z"/>
	<path class="st0" d="M313.1,296c0-3.8,0-7.3,0-11c-4.3,0-8.3,0-12.7,0c0,3.6,0,7.1,0,10.8c-7.9-1.9-13.3-10.3-12.8-18.8
		c0.8-12.7,6.8-23.3,13.9-33.4c1.5-2.1,3.2-4.1,5.4-7c3.7,5.5,7.5,10.5,10.7,15.9c4.5,7.5,7.6,15.7,8.2,24.6
		C326.3,285.3,321.5,293.1,313.1,296z"/>
	<path class="st0" d="M251.4,547.5c-1.9,3.9-3.5,7.4-5.4,10.7c-0.5,0.9-2.1,1.7-3.2,1.7c-29.9,0.1-59.7,0.1-89.6,0
		c-1,0-2.6-0.6-3-1.4c-2-3.4-3.6-7.1-5.6-11C180.3,547.5,215.6,547.5,251.4,547.5z"/>
	<path class="st0" d="M349.7,559.7c0-0.5,0-0.6,0.1-0.7c5-11.8,5-11.8,17.6-11.8c5.2,0,10.4,0,15.9,0c0,4.3,0,8.2,0,12.5
		C372.1,559.7,361,559.7,349.7,559.7z"/>
	<path class="st0" d="M451.6,547.4c7.4,0,14.2,0,21.3,0c0,4.1,0,8.1,0,12.6c-4.6,0-9,0.1-13.5-0.1c-0.7,0-1.7-0.6-2-1.2
		C455.4,555.1,453.7,551.5,451.6,547.4z"/>
	<path class="st0" d="M341,547.5c-2,4.1-3.8,7.7-5.7,11.3c-0.3,0.6-1.3,1.2-2.1,1.2c-4.4,0.1-8.9,0.1-13.5,0.1c0-4.4,0-8.3,0-12.5
		C326.7,547.5,333.5,547.5,341,547.5z"/>
	<path d="M255.4,406.2c-4.1,0-8.1,0-12.3,0c0-16.9,0-33.6,0-50.7c4,0,8,0,12.3,0C255.4,372.4,255.4,389.2,255.4,406.2z"/>
	<path d="M255.3,431.8c-4.2,0-8.2,0-12.3,0c0-4.1,0-8,0-12.3c4,0,8,0,12.3,0C255.3,423.4,255.3,427.4,255.3,431.8z"/>
</g>
</svg>
