<?xml version="1.0" encoding="utf-8"?>
<!-- Generator: Adobe Illustrator 19.0.0, SVG Export Plug-In . SVG Version: 6.00 Build 0)  -->
<svg version="1.1" id="Layer_1" xmlns="http://www.w3.org/2000/svg" xmlns:xlink="http://www.w3.org/1999/xlink" x="0px" y="0px"
	 viewBox="0 0 612 792" style="enable-background:new 0 0 612 792;" xml:space="preserve">
<style type="text/css">
	.st0{fill:#f8f9fc;}
</style>
<g>
	<g fill="#21b186">
		<path class="st0" d="M113.8,412.7c0-69.3,0-138.6,0-208c128.6,0,257.2,0,385.8,0c0,69.6,0,139.1,0,208.7c-0.3-1.2-0.6-2.4-0.8-3.6
			c-5.5-38.3-37.8-67-76.2-67.1c-9.3,0-18.5,2.1-28.4,3.2c-12.9-28-26.3-57.1-39.7-86.1c0.9-0.4,1.1-0.5,1.3-0.5
			c6.8,0,13.6-0.1,20.3-0.1c5.6,0,11.3-0.1,16.9,0.2c4,0.2,6.7,2.7,8.1,6.4c1.3,3.3,0.5,6.4-1.8,9.1c-2.6,3.1-6.1,3.6-9.9,3.6
			c-4.2,0-6.9,2.7-6.9,6.4c0,3.5,2.6,6.1,6.6,6.3c2.1,0.1,4.3,0,6.4-0.4c11.3-1.8,19.1-11.4,18.8-22.8c-0.3-11.1-8.8-20.7-20-21.1
			c-16.5-0.7-33.1-0.5-49.7-0.4c-6,0-8.3,4.6-5.7,10.4c4.6,10.2,9.3,20.3,14,30.4c0.5,1.2,1,2.4,1.6,4c-33.2,0-65.8,0-98.5,0
			c-0.8,0-2.1-0.5-2.4-1.1c-2.8-5.8-5.5-11.7-8.4-18.2c2.5,0,4.2,0.1,5.9,0c9.1-0.6,15.7-7,16.1-15.8c0.4-8.4-5.7-15.8-14.5-16.9
			c-11.6-1.5-23.2-2.7-34.8-3.9c-11.1-1.2-20.3,6.2-21,16.7c-0.8,11,7.1,19.5,18.4,19.9c4.3,0.2,8.5,0.2,12.8,0
			c2.3-0.1,3.4,0.8,4.2,2.8c2.6,6,5.3,11.9,8.1,17.8c1.1,2.3,0.9,4.1-0.1,6.3c-7.2,15-14.3,30.1-21.4,45.2c-0.5,1.1-1.1,2.2-1.4,2.6
			c-8-1.4-15.4-3.5-23-3.9c-35.3-2-66.7,20-77.3,53.9C115.8,401.9,115,407.4,113.8,412.7z"/>
		<path d="M113.8,412.7c1.2-5.3,2-10.8,3.7-16c10.6-33.9,42-55.9,77.3-53.9c7.6,0.4,15,2.5,23,3.9c0.3-0.5,0.9-1.5,1.4-2.6
			c7.1-15.1,14.2-30.2,21.4-45.2c1.1-2.2,1.3-4,0.1-6.3c-2.9-5.8-5.6-11.8-8.1-17.8c-0.9-2-2-2.9-4.2-2.8c-4.3,0.2-8.5,0.2-12.8,0
			c-11.3-0.4-19.1-9-18.4-19.9c0.7-10.5,9.9-17.9,21-16.7c11.6,1.2,23.2,2.4,34.8,3.9c8.8,1.2,14.9,8.6,14.5,16.9
			c-0.4,8.8-7,15.2-16.1,15.8c-1.7,0.1-3.5,0-5.9,0c3,6.5,5.6,12.4,8.4,18.2c0.3,0.6,1.6,1.1,2.4,1.1c32.6,0.1,65.3,0,98.5,0
			c-0.6-1.6-1.1-2.8-1.6-4c-4.7-10.1-9.4-20.2-14-30.4c-2.6-5.7-0.2-10.3,5.7-10.4c16.6-0.1,33.1-0.3,49.7,0.4
			c11.3,0.4,19.7,10,20,21.1c0.3,11.4-7.5,21-18.8,22.8c-2.1,0.3-4.3,0.5-6.4,0.4c-4-0.2-6.6-2.8-6.6-6.3c0-3.7,2.6-6.4,6.9-6.4
			c3.8,0,7.3-0.5,9.9-3.6c2.3-2.7,3-5.8,1.8-9.1c-1.4-3.7-4.1-6.2-8.1-6.4c-5.6-0.3-11.3-0.2-16.9-0.2c-6.8,0-13.6,0-20.3,0.1
			c-0.2,0-0.5,0.2-1.3,0.5c13.4,29.1,26.8,58.1,39.7,86.1c9.9-1.2,19.2-3.3,28.4-3.2c38.3,0,70.6,28.8,76.2,67.1
			c0.2,1.2,0.5,2.4,0.8,3.6c0,4.8,0,9.5,0,14.3c-0.2,0.9-0.6,1.9-0.7,2.8c-3.4,23.4-14.7,42-34.4,55c-6.4,4.2-13.6,7.1-20.8,10.8
			c18.1,0,36,0,53.9,0c0,4.4,0,8.3,0,12.6c-1.9,0-3.5,0-5.1,0c-124.4,0-248.9,0-373.3,0c-1.8,0-3.5,0.1-5.3,0.2c0-4.3,0-8.5,0-12.8
			c22.8,0,45.7,0,68.5,0c-0.9-0.6-1.9-0.7-2.8-0.9c-1-0.2-2-0.5-2.9-0.7c-27.7-5.9-47.2-21.8-57.6-48.3c-2.5-6.4-3.5-13.5-5.2-20.3
			C113.8,421.8,113.8,417.2,113.8,412.7z M388.6,364.5c-30.1,17.6-40.5,57.4-23.2,86.9c18.3,31.1,57.5,41.7,87.9,23.8
			c30.7-18.1,41.3-57.2,23.8-87.3c-18.6-32.1-56-37.8-76.7-28.5c0.5,1.1,1,2.3,1.5,3.4c7.8,17,15.7,33.9,23.5,50.8
			c0.6,1.4,1.3,2.7,1.7,4.2c0.7,3.2-0.4,5.7-3.3,7.3c-2.7,1.4-6.1,0.5-7.9-2.2c-0.8-1.2-1.5-2.6-2.1-4
			C405.4,400.9,397,382.8,388.6,364.5z M398.8,496.2c-31.1-11.7-50.8-33.3-54.7-66.6c-3.9-33.5,10.6-59.1,38.9-77.2
			c-6.3-13.6-12.4-26.9-18.8-40.8c-0.7,1.2-1.2,1.8-1.6,2.6c-13.1,27.6-26.2,55.3-39.4,82.9c-1.1,2.4-0.3,3.5,1.2,5.1
			c6.9,7.7,8.8,16.7,5.1,26.2c-3.8,10.1-11.6,15.7-22.3,16.4c-9.9,0.6-18.8-3.2-22.8-12.3c-3.1-6.9-7.3-7.6-13.3-6.9
			c-0.4,0-0.8,0.1-1.1,0c-2.4-0.4-3.2,0.7-3.5,3.1c-1.8,14.7-7.3,27.8-16.7,39.3c-13.4,16.2-30.8,25.1-51.4,28.1
			C265.2,496.2,332,496.2,398.8,496.2z M211.9,359.4c-21.4-8.6-51.5-3.8-70.6,18.8c-18.2,21.6-19.9,53.5-3.9,77.1
			c16.2,23.8,46.3,33.8,73.8,24.6c26.6-8.9,42-34.4,42.5-54.2c-1.4,0-2.7,0-4.1,0c-18.5,0-36.9,0-55.4,0c-1.3,0-2.5,0-3.8-0.1
			c-4.7-0.4-7.2-4-5.8-8.5c0.4-1.3,1-2.5,1.6-3.8C194.8,395.4,203.3,377.5,211.9,359.4z M353.1,304.4c-31.2,0-61.8,0-92.8,0
			c0.6,1.5,1.1,2.6,1.6,3.7c12.2,26.6,24.5,53.2,36.5,80c1.8,4.1,3.6,6.5,8.6,5.9c2.7-0.3,4.1-0.8,5.3-3.3
			c11.4-24.3,22.9-48.5,34.3-72.7C348.7,313.6,350.8,309.2,353.1,304.4z M267,412.9c3.6,0,7-0.1,10.3,0c2.5,0.1,4-0.5,5-3.2
			c1.1-2.8,2.9-5.6,5.1-7.8c1.8-1.9,1.9-3.2,0.9-5.5c-12-25.9-23.9-51.9-35.8-77.9c-1.1-2.3-2.2-4.7-3.5-7.5
			c-6.8,14.3-13.3,28.1-19.9,42C251.3,366.8,263.9,386.5,267,412.9z M200.8,412.6c18.2,0,35.6,0,53,0c0.2-16.8-16.1-42.2-30.5-47.5
			C215.9,380.8,208.4,396.5,200.8,412.6z M293,419.5c0.1,7,5.9,12.7,12.8,12.6c6.9-0.1,12.7-5.9,12.7-12.8c0-7.1-5.9-12.8-13.1-12.7
			C298.4,406.7,293,412.4,293,419.5z M232.7,259.3c5.6,0,11.3,0,16.9,0c2.5,0,4.7-0.7,4.8-3.5c0.1-2.9-2-3.7-4.5-4.1
			c-0.4-0.1-0.7-0.1-1.1-0.1c-10.4-1.1-20.9-2.3-31.3-3.4c-4.4-0.5-7.4,1.5-7.6,5.2c-0.2,3.5,2.3,5.8,6.6,5.9
			C221.9,259.4,227.3,259.3,232.7,259.3z"/>
		<path class="st0" d="M113.8,509.2c1.8-0.1,3.5-0.2,5.3-0.2c124.4,0,248.9,0,373.3,0c1.6,0,3.2,0,5.1,0c0-4.2,0-8.2,0-12.6
			c-17.9,0-35.9,0-53.9,0c7.1-3.7,14.4-6.6,20.8-10.8c19.7-13,31.1-31.6,34.4-55c0.1-1,0.5-1.9,0.7-2.8c0,54.3,0,108.5,0,162.8
			c-128.6,0-257.2,0-385.8,0C113.8,563.4,113.8,536.3,113.8,509.2z M305.7,547.4c-13.8,0-27.6,0-41.4,0c-6.6,0-9.6,1.9-9.6,6.3
			c0,4.3,3.1,6.5,9.5,6.5c27.7,0,55.5,0,83.2,0c1.6,0,3.3-0.1,4.8-0.5c3.1-0.8,4.7-3.1,4.6-6.1c-0.1-3.2-1.9-5.4-5.2-6
			c-1.3-0.2-2.8-0.2-4.1-0.2C333.6,547.4,319.6,547.4,305.7,547.4z M446.8,547.4c-12.6,0-25.1,0-37.7,0c-4.5,0-7.4,2.7-7.3,6.4
			c0.1,3.5,2.8,6,7.1,6.4c0.7,0.1,1.5,0,2.3,0c23.6,0,47.2,0,70.8,0c1.6,0,3.3-0.1,4.8-0.5c3-0.9,4.6-3.1,4.4-6.2
			c-0.1-3.1-1.9-5.2-4.9-5.8c-1.3-0.3-2.7-0.2-4.1-0.2C470.4,547.4,458.6,547.4,446.8,547.4z M165.2,547.4c-10.7,0-21.3,0-32,0
			c-2.5,0-5-0.1-7.5,0.2c-3.3,0.4-5.2,2.5-5.3,5.8c-0.2,3.3,1.4,5.6,4.7,6.3c1.4,0.4,3,0.4,4.5,0.4c23.6,0,47.2,0,70.8,0
			c1.6,0,3.3-0.1,4.8-0.5c3.8-1,5.6-5.2,3.9-8.7c-1.5-3-4.2-3.6-7.3-3.6C189.6,547.4,177.4,547.4,165.2,547.4z"/>
		<path class="st0" d="M113.8,426.3c1.7,6.8,2.7,13.8,5.2,20.3c10.4,26.5,29.9,42.4,57.6,48.3c1,0.2,1.9,0.5,2.9,0.7
			c0.9,0.2,1.9,0.3,2.8,0.9c-22.8,0-45.7,0-68.5,0C113.8,473,113.8,449.6,113.8,426.3z"/>
		<path class="st0" d="M388.6,364.5c8.4,18.3,16.8,36.4,25.1,54.5c0.6,1.4,1.3,2.7,2.1,4c1.9,2.7,5.3,3.6,7.9,2.2
			c2.9-1.5,4-4.1,3.3-7.3c-0.3-1.4-1-2.8-1.7-4.2c-7.8-17-15.7-33.9-23.5-50.8c-0.5-1.1-1-2.3-1.5-3.4c20.7-9.3,58.1-3.7,76.7,28.5
			c17.4,30.1,6.9,69.2-23.8,87.3c-30.3,17.9-69.5,7.3-87.9-23.8C348,421.9,358.5,382.1,388.6,364.5z M472.2,421.8
			c-0.1-12.5-2.8-22-8.5-30.6c-2.3-3.5-5.8-4.6-9-2.7c-3.2,1.8-4.2,5.5-2,9.1c6.4,10.2,8,21.1,5.2,32.7c-1,4.1,1.2,7.3,4.7,8.1
			c3.6,0.7,6.6-1.3,7.6-5.5C471.2,428.5,471.8,424,472.2,421.8z M446.4,377.7c-0.6-0.8-1.3-3.3-2.8-3.8c-5.3-2-10.8-3.8-16.4-4.9
			c-3.2-0.6-5.4,1.8-6,5c-0.6,3.2,0.8,5.8,3.9,6.9c4.5,1.6,9.1,2.9,13.7,4C442.9,385.8,446.4,382.9,446.4,377.7z"/>
		<path class="st0" d="M398.8,496.2c-66.8,0-133.6,0-200.4,0c20.6-3,38.1-11.9,51.4-28.1c9.4-11.4,14.9-24.6,16.7-39.3
			c0.3-2.4,1-3.5,3.5-3.1c0.4,0.1,0.8,0,1.1,0c6-0.7,10.2,0,13.3,6.9c4.1,9.1,12.9,12.9,22.8,12.3c10.7-0.7,18.5-6.3,22.3-16.4
			c3.6-9.6,1.8-18.6-5.1-26.2c-1.5-1.6-2.3-2.7-1.2-5.1c13.2-27.6,26.2-55.3,39.4-82.9c0.4-0.8,0.9-1.4,1.6-2.6
			c6.4,13.8,12.6,27.2,18.8,40.8c-28.3,18.1-42.7,43.7-38.9,77.2C348,462.8,367.7,484.4,398.8,496.2z"/>
		<path class="st0" d="M211.9,359.4c-8.6,18.1-17.1,36-25.5,53.9c-0.6,1.2-1.2,2.5-1.6,3.8c-1.3,4.5,1.2,8.1,5.8,8.5
			c1.2,0.1,2.5,0.1,3.8,0.1c18.5,0,36.9,0,55.4,0c1.3,0,2.7,0,4.1,0c-0.5,19.8-15.9,45.2-42.5,54.2c-27.5,9.2-57.6-0.7-73.8-24.6
			c-16-23.5-14.3-55.5,3.9-77.1C160.4,355.6,190.5,350.8,211.9,359.4z M139.3,417.8c0.5,15.6,5.2,27.4,14.7,37.3
			c2.1,2.2,4.7,3.6,7.3,2c1.8-1.1,3.9-3.4,3.9-5.2c0.1-2.1-1.4-4.7-3-6.5c-4.3-5-7.5-10.6-9.1-17.1c-1.6-6.5-1.1-12.9,0.4-19.3
			c1.1-4.7-1-7.9-4.9-8.6c-3.7-0.7-6.6,1.5-7.5,6.1C140.2,410.8,139.7,415.3,139.3,417.8z M187.6,470.5c6,0.1,8.9-2.3,9.2-5.9
			c0.2-3.8-2.1-6.2-6.4-6.8c-3.7-0.5-7.4-1.1-11.1-1.6c-4-0.6-7,1.2-7.7,4.7c-0.7,3.6,1.1,6.6,5,7.5
			C180.8,469.5,185.1,470,187.6,470.5z"/>
		<path class="st0" d="M353.1,304.4c-2.3,4.8-4.3,9.2-6.4,13.6c-11.5,24.2-23,48.4-34.3,72.7c-1.2,2.6-2.6,3-5.3,3.3
			c-5,0.6-6.8-1.8-8.6-5.9c-12-26.7-24.3-53.3-36.5-80c-0.5-1.1-1-2.3-1.6-3.7C291.2,304.4,321.9,304.4,353.1,304.4z"/>
		<path class="st0" d="M267,412.9c-3.2-26.4-15.8-46-38-59.9c6.6-13.9,13.1-27.7,19.9-42c1.3,2.9,2.4,5.2,3.5,7.5
			c11.9,26,23.8,52,35.8,77.9c1.1,2.3,1,3.6-0.9,5.5c-2.1,2.2-4,5-5.1,7.8c-1,2.7-2.5,3.3-5,3.2C274,412.7,270.6,412.9,267,412.9z"
			/>
		<path class="st0" d="M200.8,412.6c7.6-16.1,15.1-31.8,22.5-47.5c14.4,5.3,30.7,30.7,30.5,47.5C236.4,412.6,219,412.6,200.8,412.6z
			"/>
		<path class="st0" d="M293,419.5c-0.1-7.1,5.4-12.8,12.4-12.9c7.2-0.1,13.1,5.6,13.1,12.7c0,6.9-5.8,12.7-12.7,12.8
			C298.9,432.2,293.1,426.5,293,419.5z"/>
		<path class="st0" d="M232.7,259.3c-5.4,0-10.8,0.1-16.2,0c-4.4-0.1-6.8-2.4-6.6-5.9c0.2-3.6,3.2-5.6,7.6-5.2
			c10.4,1.1,20.9,2.3,31.3,3.4c0.4,0,0.7,0.1,1.1,0.1c2.4,0.3,4.6,1.2,4.5,4.1c-0.1,2.9-2.3,3.5-4.8,3.5
			C243.9,259.3,238.3,259.3,232.7,259.3z"/>
		<path d="M305.7,547.4c13.9,0,27.9,0,41.8,0c1.4,0,2.8,0,4.1,0.2c3.3,0.6,5.1,2.8,5.2,6c0.1,3-1.5,5.3-4.6,6.1
			c-1.6,0.4-3.2,0.5-4.8,0.5c-27.7,0-55.5,0-83.2,0c-6.4,0-9.6-2.2-9.5-6.5c0-4.4,3-6.3,9.6-6.3
			C278.1,547.4,291.9,547.4,305.7,547.4z"/>
		<path d="M446.8,547.4c11.8,0,23.6,0,35.4,0c1.4,0,2.8,0,4.1,0.2c3.1,0.7,4.8,2.7,4.9,5.8c0.1,3.1-1.4,5.3-4.4,6.2
			c-1.5,0.4-3.2,0.5-4.8,0.5c-23.6,0-47.2,0-70.8,0c-0.8,0-1.5,0-2.3,0c-4.3-0.3-7-2.8-7.1-6.4c-0.1-3.7,2.8-6.4,7.3-6.4
			C421.7,547.4,434.2,547.4,446.8,547.4z"/>
		<path d="M165.2,547.4c12.2,0,24.4,0,36.5,0c3.1,0,5.8,0.6,7.3,3.6c1.7,3.5-0.1,7.7-3.9,8.7c-1.5,0.4-3.2,0.5-4.8,0.5
			c-23.6,0-47.2,0-70.8,0c-1.5,0-3-0.1-4.5-0.4c-3.3-0.8-4.8-3.1-4.7-6.3c0.2-3.3,2-5.4,5.3-5.8c2.5-0.3,5-0.2,7.5-0.2
			C143.9,547.4,154.5,547.4,165.2,547.4z"/>
		<path d="M472.2,421.8c-0.4,2.3-1,6.7-2,11.1c-0.9,4.2-4,6.2-7.6,5.5c-3.5-0.7-5.7-4-4.7-8.1c2.8-11.7,1.2-22.5-5.2-32.7
			c-2.3-3.6-1.2-7.3,2-9.1c3.2-1.8,6.7-0.8,9,2.7C469.3,399.8,472,409.3,472.2,421.8z"/>
		<path d="M446.4,377.7c0,5.2-3.5,8.2-7.7,7.2c-4.6-1.1-9.2-2.5-13.7-4c-3.1-1.1-4.5-3.7-3.9-6.9c0.6-3.2,2.8-5.6,6-5
			c5.6,1.1,11.1,2.9,16.4,4.9C445.1,374.4,445.9,376.9,446.4,377.7z"/>
		<path d="M139.3,417.8c0.4-2.5,0.9-6.9,1.8-11.3c0.9-4.5,3.8-6.7,7.5-6.1c3.9,0.7,6,3.9,4.9,8.6c-1.5,6.5-1.9,12.9-0.4,19.3
			c1.6,6.4,4.7,12,9.1,17.1c1.5,1.8,3.1,4.3,3,6.5c-0.1,1.9-2.1,4.2-3.9,5.2c-2.7,1.6-5.3,0.1-7.3-2
			C144.5,445.2,139.8,433.4,139.3,417.8z"/>
		<path d="M187.6,470.5c-2.5-0.4-6.8-1-11-2c-3.9-0.9-5.7-4-5-7.5c0.7-3.5,3.7-5.3,7.7-4.7c3.7,0.5,7.4,1.1,11.1,1.6
			c4.3,0.6,6.6,3,6.4,6.8C196.5,468.2,193.6,470.6,187.6,470.5z"/>
	</g>
</g>
</svg>
