<?xml version="1.0" encoding="utf-8"?>
<!-- Generator: Adobe Illustrator 19.0.0, SVG Export Plug-In . SVG Version: 6.00 Build 0)  -->
<svg version="1.1" id="Layer_1" xmlns="http://www.w3.org/2000/svg" xmlns:xlink="http://www.w3.org/1999/xlink" x="0px" y="0px"
	 viewBox="0 0 612 792" style="enable-background:new 0 0 612 792;" xml:space="preserve">
<style type="text/css">
	.st0{fill:#f8f9fc;}
</style>
<g>
	<g>
		<path class="st0" d="M311.4,192.8c66.7,0,133.3,0,200,0c0,136.5,0,273.1,0,409.6c-62.7,0-125.3,0-188,0c3.6-1.9,7.5-3.4,10.7-5.9
			c2.1-1.7,3.9-2.3,6.4-2c19.9,2.3,39.7,4.5,59.6,6.8c9.8,1.1,18.2-5.9,18.6-15.9c0.1-2.4,0-4.8,0.1-7.2c0.4-11.8-4.9-20-15.3-25.4
			c-16.3-8.4-32.5-17.2-48.8-25.6c-3-1.6-4.3-3-3.6-6.7c0.9-4.7,1.2-9.5,1.3-14.3c0.3-19.1,0.4-38.1,0.6-57.2c0-1.4,0-2.8,0-4.5
			c1.7,0.4,2.7,0.6,3.7,0.9c44.9,12.4,89.8,24.9,134.7,37.3c11.9,3.3,19-2.1,19-14.5c0-7.2,0-14.4,0-21.6c0-11.5-4.2-21.1-13.6-27.9
			c-3.9-2.8-8.2-4.9-12.5-7.1c-2.1-1.1-2.8-2.3-2.6-4.7c0.8-10.1,1.3-20.2,2.2-30.3c1-12.2-6.4-20.6-18.6-20.8
			c-5.1-0.1-10.1-0.1-15.2,0c-11.7,0.2-18.8,7.7-18.6,19.3c0,2.6,0,5.1,0,7.8c-0.6-0.2-1-0.3-1.3-0.5c-24.9-13.4-49.7-26.8-74.6-40
			c-2.2-1.2-2.5-2.7-2.5-4.8c0-19.7,0-39.5,0-59.2c0-18.5-3.1-36.4-10.6-53.3C335.9,210.6,328.9,196.7,311.4,192.8z"/>
		<path class="st0" d="M289,602.4c-62.4,0-124.8,0-187.2,0c0-136.5,0-273.1,0-409.6c66.7,0,133.3,0,200,0c-9.1,2.5-16.9,7.1-22,15.3
			c-10.7,17.3-17.7,36-18.6,56.3c-1,24.2-0.7,48.5-0.8,72.8c0,2.7-0.7,4.2-3.2,5.6C233,355.5,209,368.5,185,381.4
			c-1,0.5-2.1,1-3.1,1.5c0-3.3,0-6.3,0-9.4c-0.1-9.8-7.1-17.2-17-17.6c-6-0.3-12-0.2-18,0c-10.8,0.4-18.3,8.7-17.6,19.5
			c0.6,8.5,1.2,17,1.9,25.5c0.7,9.1,0.7,9.1-7.1,13.3c-1.4,0.8-2.8,1.5-4.2,2.3c-10.1,6-16.1,14.7-16.7,26.5
			c-0.4,8.4-0.3,16.8-0.3,25.2c0,12.4,7.1,17.8,19,14.5c44.4-12.3,88.7-24.6,133.1-36.9c1.6-0.5,3.3-0.8,5.4-1.2c0,2.1,0,3.8,0,5.6
			c0.5,23.3,0.9,46.6,1.7,69.9c0.1,4-0.7,5.7-4.2,7.5c-16.5,8.4-32.8,17.2-49.1,25.9c-9.5,5-14.3,12.8-14.2,23.6c0,2.3,0,4.5,0,6.8
			c0.1,11.7,8.2,18.7,19.8,17.3c19.5-2.3,38.9-4.4,58.4-6.5c1.3-0.1,3,0,4.1,0.7C281,597.5,285,600,289,602.4z"/>
		<path d="M289,602.4c-4-2.4-8-4.9-12.2-7.2c-1.2-0.6-2.8-0.8-4.1-0.7c-19.5,2.1-38.9,4.3-58.4,6.5c-11.6,1.4-19.7-5.6-19.8-17.3
			c0-2.3,0-4.5,0-6.8c-0.1-10.8,4.8-18.6,14.2-23.6c16.4-8.6,32.7-17.4,49.1-25.9c3.5-1.8,4.3-3.5,4.2-7.5
			c-0.9-23.3-1.2-46.6-1.7-69.9c0-1.7,0-3.4,0-5.6c-2.1,0.5-3.7,0.8-5.4,1.2c-44.4,12.3-88.7,24.6-133.1,36.9
			c-11.8,3.3-19-2.1-19-14.5c0-8.4-0.2-16.8,0.3-25.2c0.6-11.8,6.6-20.6,16.7-26.5c1.4-0.8,2.8-1.5,4.2-2.3
			c7.9-4.2,7.9-4.2,7.1-13.3c-0.7-8.5-1.4-17-1.9-25.5c-0.7-10.8,6.7-19.2,17.6-19.5c6-0.2,12-0.2,18,0c9.8,0.4,16.9,7.8,17,17.6
			c0,3,0,6.1,0,9.4c1-0.5,2.1-0.9,3.1-1.5c24-12.9,48.1-25.9,72.2-38.7c2.5-1.3,3.2-2.9,3.2-5.6c0.1-24.3-0.2-48.5,0.8-72.8
			c0.9-20.3,7.9-39,18.6-56.3c5.1-8.2,12.9-12.8,22-15.3c3.2,0,6.4,0,9.6,0c17.5,3.9,24.5,17.8,30.9,32.3
			c7.5,17,10.6,34.8,10.6,53.3c0,19.7,0,39.5,0,59.2c0,2.1,0.3,3.6,2.5,4.8c24.9,13.3,49.8,26.7,74.6,40c0.3,0.2,0.7,0.3,1.3,0.5
			c0-2.7,0-5.2,0-7.8c-0.2-11.6,6.9-19.1,18.6-19.3c5.1-0.1,10.1-0.1,15.2,0c12.3,0.2,19.7,8.6,18.6,20.8
			c-0.8,10.1-1.4,20.2-2.2,30.3c-0.2,2.3,0.5,3.6,2.6,4.7c4.3,2.2,8.6,4.3,12.5,7.1c9.5,6.8,13.6,16.4,13.6,27.9
			c0,7.2,0,14.4,0,21.6c0,12.4-7.1,17.8-19,14.5c-44.9-12.4-89.8-24.9-134.7-37.3c-1-0.3-2-0.5-3.7-0.9c0,1.7,0,3.1,0,4.5
			c-0.2,19.1-0.3,38.1-0.6,57.2c-0.1,4.8-0.4,9.6-1.3,14.3c-0.7,3.6,0.6,5.1,3.6,6.7c16.3,8.4,32.5,17.2,48.8,25.6
			c10.4,5.4,15.7,13.6,15.3,25.4c-0.1,2.4,0,4.8-0.1,7.2c-0.4,9.9-8.7,17-18.6,15.9c-19.9-2.3-39.7-4.5-59.6-6.8
			c-2.5-0.3-4.3,0.4-6.4,2c-3.1,2.5-7.1,4-10.7,5.9C311.9,602.4,300.5,602.4,289,602.4z M330.1,550.2c3.8-19.5,6.8-38.7,6.8-58.2
			c0-71.4,0-142.9,0-214.3c0-15.6-2.7-30.8-8.8-45.2c-2.2-5.1-4.8-10.1-7.7-14.9c-7.2-11.8-20.4-11.7-27.6,0.1
			c-11.5,18.7-16.4,39.1-16.4,60.9c0,67.6-0.1,135.2,0.1,202.7c0.1,14.5,1.1,29,2.3,43.5c0.7,8.5,2.6,17,3.9,25.4
			C298.7,550.2,314.3,550.2,330.1,550.2z M260.1,359.4c-1.5,0.7-2.7,1.2-3.8,1.9c-7.6,4.1-15.2,8.3-22.9,12.2
			c-3.3,1.6-4.5,3.6-4.4,7.3c0.3,8.9,0.2,17.9,0,26.8c-0.1,5-3.3,8.4-7.8,8.4c-4.2,0.1-7.5-3.1-8.1-7.8c-0.2-1.6-0.1-3.2-0.1-4.8
			c0-6.1,0-12.2,0-18.4c-0.8,0.2-1.2,0.2-1.5,0.4c-27.8,14.9-55.7,29.7-83.3,45c-3.4,1.9-7.3,5.8-7.9,9.3c-1.6,8.7-1.4,17.8-2,27.5
			c48.2-13.4,95-26.4,141.7-39.3C260.1,404.8,260.1,382.3,260.1,359.4z M353,427.8c46.9,13,93.7,26,141.3,39.2
			c0-6.6-0.2-12.6,0-18.5c0.3-9.1-3.5-15.3-11.6-19.6c-26.4-13.9-52.6-28.2-78.8-42.3c-1.1-0.6-2.3-1.1-3.8-1.8c0,7,0,13.6,0,20.1
			c0,1.3,0,2.7-0.2,4c-0.7,4.5-4.1,7.4-8.2,7.2c-4.3-0.2-7.5-3.4-7.6-8.2c-0.1-9.6-0.1-19.2,0-28.8c0-2.3-0.7-3.6-2.8-4.7
			c-8.5-4.4-16.9-9-25.4-13.6c-0.9-0.5-1.8-0.8-3-1.2C353,382.5,353,405,353,427.8z M402.7,585.4c0-2.1-0.2-3.7,0-5.3
			c0.9-6.9-2.2-11-8.4-14.1c-14.3-7.1-28.3-14.8-42.4-22.3c-1.2-0.6-2.5-1.2-4.1-2c-2.1,12.6-4.2,24.6-6.2,36.8
			C362.2,580.9,382.1,583.1,402.7,585.4z M210.7,585.4c20.2-2.3,40-4.5,60.3-6.8c-2.1-12.6-4-24.5-6-36.9c-17,9-33.4,17.6-49.6,26.4
			c-2,1.1-4.1,3.5-4.5,5.7C210.2,577.5,210.7,581.4,210.7,585.4z M285.3,566.6c0.8,5.2,1.6,10.2,2.4,15.2c0.5,2.8,2.1,4.6,5.1,4.6
			c8.9,0,17.8,0.2,26.7-0.2c1.7-0.1,4.4-2.1,4.8-3.6c1.4-5.2,2-10.5,3-16C313.2,566.6,299.4,566.6,285.3,566.6z M147.3,401.7
			c5.6-3,10.8-5.7,15.9-8.6c0.8-0.5,1.5-1.8,1.6-2.9c0.5-5,0.7-10.1,1.1-15.1c0.2-2.1-0.5-3.3-2.8-3.3c-4.9,0-9.9-0.1-14.8,0.1
			c-1,0.1-2.9,1.8-2.8,2.7C145.8,383.4,146.6,392.3,147.3,401.7z M465.9,401.7c0.7-9.4,1.4-18.3,1.9-27.1c0-0.9-1.8-2.5-2.9-2.6
			c-4.8-0.3-9.6-0.1-14.4-0.2c-2.4,0-3.4,0.9-3.2,3.4c0.4,5,0.6,10.1,1.1,15.1c0.1,1,0.8,2.4,1.6,2.8
			C455.1,396,460.3,398.7,465.9,401.7z"/>
		<path class="st0" d="M330.1,550.2c-15.8,0-31.4,0-47.5,0c-1.3-8.4-3.2-16.9-3.9-25.4c-1.2-14.5-2.3-29-2.3-43.5
			c-0.2-67.6-0.1-135.2-0.1-202.7c0-21.8,4.9-42.2,16.4-60.9c7.3-11.8,20.5-11.9,27.6-0.1c2.9,4.8,5.5,9.8,7.7,14.9
			c6.2,14.4,8.8,29.5,8.8,45.2c0,71.4,0,142.9,0,214.3C336.9,511.5,333.9,530.7,330.1,550.2z M314.6,398c-0.1,0-0.1,0-0.2,0
			c0-15.3,0-30.6,0-45.9c0-4.1-0.9-7.8-5.1-9.5c-5.6-2.3-10.9,1.8-10.9,8.6c0,20.9,0,41.8,0.1,62.7c0,10,0,20,0.1,30
			c0,4.9,2.1,7.9,5.8,8.9c5.6,1.5,10.1-2.3,10.2-8.9C314.6,428.7,314.6,413.3,314.6,398z M284.3,253c0.1,8.1,7.2,11.9,12.8,7.7
			c6.9-5.2,12.5-5.2,19.2,0.2c3.9,3.2,8.8,1.8,11.2-1.9c2.6-4,1.6-8.5-2.8-11.4c-4.6-3-9.1-6.1-14.1-8.3c-2.3-1-5.9-1-8.2,0.1
			c-4.9,2.2-9.6,5.2-14,8.4C286.4,249.3,285.2,251.9,284.3,253z M314.6,477.4c0-4.3-3.4-7.8-7.8-7.9c-4.4-0.1-8,3.3-8.1,7.6
			c-0.1,4.4,3.6,8.3,8,8.2C310.9,485.3,314.5,481.7,314.6,477.4z"/>
		<path class="st0" d="M260.1,359.4c0,22.9,0,45.4,0,68.4c-46.7,13-93.6,26-141.7,39.3c0.6-9.7,0.4-18.7,2-27.5
			c0.6-3.5,4.5-7.4,7.9-9.3c27.6-15.2,55.5-30,83.3-45c0.3-0.2,0.7-0.2,1.5-0.4c0,6.3,0,12.4,0,18.4c0,1.6-0.1,3.2,0.1,4.8
			c0.6,4.7,3.8,7.9,8.1,7.8c4.5-0.1,7.7-3.4,7.8-8.4c0.1-8.9,0.3-17.9,0-26.8c-0.1-3.7,1.1-5.7,4.4-7.3c7.7-3.9,15.3-8.1,22.9-12.2
			C257.5,360.7,258.6,360.1,260.1,359.4z"/>
		<path class="st0" d="M353,427.8c0-22.8,0-45.3,0-68.2c1.1,0.5,2.1,0.8,3,1.2c8.5,4.5,16.9,9.1,25.4,13.6c2.1,1.1,2.8,2.3,2.8,4.7
			c-0.1,9.6-0.1,19.2,0,28.8c0.1,4.8,3.3,8,7.6,8.2c4.1,0.2,7.4-2.7,8.2-7.2c0.2-1.3,0.2-2.7,0.2-4c0-6.5,0-13,0-20.1
			c1.5,0.7,2.7,1.2,3.8,1.8c26.3,14.1,52.5,28.3,78.8,42.3c8.1,4.3,11.9,10.5,11.6,19.6c-0.2,5.9,0,11.9,0,18.5
			C446.8,453.8,399.9,440.8,353,427.8z"/>
		<path class="st0" d="M402.7,585.4c-20.5-2.3-40.5-4.5-61.1-6.8c2.1-12.2,4.1-24.2,6.2-36.8c1.6,0.8,2.9,1.3,4.1,2
			c14.1,7.4,28.1,15.2,42.4,22.3c6.2,3.1,9.2,7.2,8.4,14.1C402.5,581.7,402.7,583.3,402.7,585.4z"/>
		<path class="st0" d="M210.7,585.4c0-4-0.5-7.9,0.2-11.6c0.4-2.1,2.5-4.6,4.5-5.7c16.2-8.8,32.6-17.4,49.6-26.4
			c2,12.4,4,24.3,6,36.9C250.8,580.9,230.9,583.2,210.7,585.4z"/>
		<path class="st0" d="M285.3,566.6c14,0,27.8,0,42,0c-0.9,5.4-1.6,10.8-3,16c-0.4,1.6-3.1,3.6-4.8,3.6c-8.9,0.4-17.8,0.2-26.7,0.2
			c-3,0-4.6-1.8-5.1-4.6C286.9,576.8,286.2,571.8,285.3,566.6z"/>
		<path class="st0" d="M147.3,401.7c-0.7-9.4-1.5-18.2-1.9-27.1c0-0.9,1.8-2.6,2.8-2.7c4.9-0.3,9.8-0.1,14.8-0.1
			c2.3,0,3,1.2,2.8,3.3c-0.4,5-0.6,10.1-1.1,15.1c-0.1,1-0.8,2.4-1.6,2.9C158.1,396,152.9,398.7,147.3,401.7z"/>
		<path class="st0" d="M465.9,401.7c-5.6-3-10.8-5.7-15.8-8.6c-0.8-0.5-1.6-1.8-1.6-2.8c-0.5-5-0.7-10.1-1.1-15.1
			c-0.2-2.4,0.8-3.4,3.2-3.4c4.8,0.1,9.6-0.1,14.4,0.2c1.1,0.1,2.9,1.7,2.9,2.6C467.3,383.4,466.6,392.3,465.9,401.7z"/>
		<path d="M314.6,398c0,15.3,0,30.6,0,45.9c0,6.6-4.5,10.4-10.2,8.9c-3.7-1-5.8-4-5.8-8.9c-0.1-10,0-20-0.1-30
			c0-20.9-0.1-41.8-0.1-62.7c0-6.9,5.2-11,10.9-8.6c4.2,1.7,5.1,5.4,5.1,9.5c0,15.3,0,30.6,0,45.9C314.5,398,314.5,398,314.6,398z"
			/>
		<path d="M284.3,253c0.8-1.1,2-3.8,4.1-5.3c4.4-3.2,9.1-6.2,14-8.4c2.3-1.1,5.9-1.1,8.2-0.1c4.9,2.2,9.5,5.3,14.1,8.3
			c4.4,2.9,5.4,7.4,2.8,11.4c-2.4,3.7-7.3,5.1-11.2,1.9c-6.7-5.4-12.3-5.3-19.2-0.2C291.5,265,284.5,261.1,284.3,253z"/>
		<path d="M314.6,477.4c0,4.3-3.6,7.9-7.9,7.9c-4.4,0-8.2-3.8-8-8.2c0.1-4.4,3.7-7.7,8.1-7.6C311.2,469.6,314.6,473,314.6,477.4z"/>
	</g>
</g>
</svg>
