<?xml version="1.0" encoding="utf-8"?>
<!-- Generator: Adobe Illustrator 19.0.0, SVG Export Plug-In . SVG Version: 6.00 Build 0)  -->
<svg version="1.1" id="Layer_1" xmlns="http://www.w3.org/2000/svg" xmlns:xlink="http://www.w3.org/1999/xlink" x="0px" y="0px"
	 viewBox="0 0 612 792" style="enable-background:new 0 0 612 792;" xml:space="preserve">
<style type="text/css">
	.st0{fill:#f8f9fc;}
</style>
<g>
	<g>
		<path d="M326.2,204.8c4,0,8,0,12,0c0.7,0.2,1.4,0.6,2.1,0.7c15.5,2.6,27.5,10.7,35.8,24.1c9.6,15.6,8.7,32.1,3.2,48.7
			c-1.8,5.4-4.4,10.5-6.8,16.1c1.9,0,3.3,0,4.8,0c26.5,0,53,0,79.4,0c1.5,0,3,0.1,4.5,0.3c3.1,0.5,4.9,2.4,5.3,5.5
			c0.2,1.5,0.1,3,0.1,4.5c0,44,0,87.9-0.1,131.9c0,2.6,0.8,4.3,2.8,6c14,12,23.2,26.9,27.2,45c0.8,3.5,1.4,7,2.1,10.5c0,5,0,10,0,15
			c-0.2,0.7-0.5,1.4-0.6,2.1c-5.3,35.1-24.8,58.6-58.5,69.9c-5.4,1.8-11.1,2.5-16.7,3.7c-4.8,0-9.5,0-14.2,0
			c-0.7-0.2-1.4-0.5-2.1-0.6c-18.8-2.2-34.9-9.8-48.7-22.7c-1.4-1.3-3.9-2.2-5.9-2.2c-61.1-0.1-122.2,0-183.4-0.2
			c-4.6,0-9.6-0.8-13.8-2.7c-10.6-4.8-14.7-14-14.7-25.3c0-75,0-150,0-225c0-3-0.1-6,0-9c0.5-15.2,11.2-25.7,26.4-25.9
			c3.5-0.1,7,0,10.5,0c5.6,0.1,7.9,2.4,8,8c0.1,3.6,0,7.2,0,10.8c35.9,0,71.3,0,107.1,0c-0.7-1.5-1.2-2.6-1.7-3.7
			c-4.8-9-7.8-18.6-8.8-28.8c-2.2-21.6,6.2-38.1,24.4-49.3C312.1,208.6,319.5,207.2,326.2,204.8z M185.3,396.8c1.7,0,3,0,4.4,0
			c18.6,0,37.2,0,55.9,0c8.4,0,10.1,1.7,10.1,10.1c0,46.1,0,92.2,0,138.4c0,1.6,0,3.2,0,4.9c8.7,0,17,0,25.6,0c0-1.6,0-3,0-4.3
			c0-21,0-42,0-63c0-7.4,1.9-9.3,9.3-9.3c14.9,0,29.7-0.1,44.6,0c2.5,0,4-0.6,5.1-3.1c6.2-13.6,15.6-24.6,27.9-33.1
			c1.9-1.3,2.6-2.7,2.5-4.9c-0.1-10.7-0.1-21.5,0-32.2c0-8.1,1.8-9.9,9.9-9.9c22.9,0,45.7,0,68.6,0c1.4,0,2.9,0,4.4,0
			c0-8.8,0-17,0-25.4c-36.2,0-72.3,0-108.6,0c0,1.6,0,3,0,4.3c0,23.4,0,46.7,0,70.1c0,6.4-2,8.5-8.5,8.5c-15.4,0-30.7,0-46.1,0
			c-7.4,0-9.2-1.8-9.2-9.3c0-42.2,0-84.5,0-126.7c0-1.5,0-2.9,0-4.5c-8.7,0-16.9,0-25.6,0c0,1.5,0,2.9,0,4.2c0,16.7,0,33.5,0,50.2
			c0,7.3-2.1,9.4-9.4,9.4c-19,0-38,0-57,0c-1.3,0-2.6,0-4,0C185.3,379.9,185.3,388.1,185.3,396.8z M345.1,504.3
			c-0.4,38.5,29.4,70.1,68.3,71.6c38.3,1.4,70.8-29.2,72.4-68.2c1.6-38.8-29.3-71.5-69.2-72.4C378.5,434.4,346.3,464.3,345.1,504.3z
			 M453.7,307.4c-1-0.1-1.6-0.2-2.2-0.2c-28.4,0-56.7-0.1-85.1,0.1c-1.5,0-3.3,1.4-4.4,2.6c-8.1,8.8-16,17.8-24.2,26.5
			c-3.7,3.9-7,3.9-10.7,0c-7.9-8.3-15.8-16.7-23.1-25.5c-2.9-3.5-5.6-4.3-9.6-3.3c0,42.5,0,84.9,0,127.2c12.8,0,25.3,0,38.1,0
			c0-1.7,0-3,0-4.4c0-22.9,0-45.7,0-68.6c0-8.1,1.8-9.9,10-9.9c35.6,0,71.2,0,106.9,0c1.5,0,2.9,0,4.5,0
			C453.7,336.9,453.7,322.3,453.7,307.4z M242.6,409.8c-19.3,0-38.2,0-57.4,0c0,1.7,0,3.2,0,4.7c0,33.7,0,67.5,0,101.2
			c0,7-2.1,9.1-9.2,9.1c-3.7,0-7.5-0.1-11.2,0.1c-7.7,0.6-13,8-11.2,15.5c1.5,6.3,6.5,10,14,10c24,0,48,0,71.9,0
			c1,0,1.9-0.1,3.1-0.2C242.6,503.3,242.6,456.7,242.6,409.8z M172.1,511.2c0-74.2,0-148.6,0-223c-13.9-1.3-19,3.4-19.1,16.9
			c0,68.5,0,137,0,205.5c0,1.4,0,2.8,0,3.6C159.6,513.2,165.7,512.2,172.1,511.2z M332.4,323.8c13.9-13.6,26.1-28.3,33.5-46.2
			c5.5-13.2,7.3-26.6,0-40c-9-16.4-28.2-24-45.8-18c-17.8,6.1-28.6,24.3-25.7,42.8c1.8,11.7,7,22,13.2,31.9
			C314.6,305.2,323,314.9,332.4,323.8z M242.6,358.2c0-17.2,0-33.9,0-50.8c-19.1,0-38,0-57.1,0c0,17,0,33.9,0,50.8
			C204.6,358.2,223.5,358.2,242.6,358.2z M294.2,486.6c0,21.3,0,42.4,0,63.5c17,0,33.9,0,51.2,0c-6-9.8-9.9-19.8-11.8-30.7
			c-1.9-11-1.3-21.8,1.1-32.8C320.9,486.6,307.6,486.6,294.2,486.6z M453.7,403.5c-23.6,0-46.7,0-69.8,0c0,8.5,0,16.6,0,25.1
			c11.6-4.6,23.2-6.8,35.2-6.2c12,0.6,23.5,3.7,34.6,9.3C453.7,421.9,453.7,412.8,453.7,403.5z"/>
		<path class="st0" d="M326.2,204.8c-6.7,2.5-14.1,3.9-20.1,7.5c-18.2,11.2-26.6,27.8-24.4,49.3c1,10.2,4,19.8,8.8,28.8
			c0.6,1.1,1,2.2,1.7,3.7c-35.8,0-71.2,0-107.1,0c0-3.7,0-7.3,0-10.8c-0.1-5.7-2.4-8-8-8c-3.5,0-7,0-10.5,0
			c-15.2,0.2-25.9,10.7-26.4,25.9c-0.1,3,0,6,0,9c0,75,0,150,0,225c0,11.3,4.1,20.4,14.7,25.3c4.2,1.9,9.1,2.7,13.8,2.7
			c61.1,0.2,122.2,0.1,183.4,0.2c2,0,4.5,0.9,5.9,2.2c13.8,12.9,29.9,20.6,48.7,22.7c0.7,0.1,1.4,0.4,2.1,0.6
			c-76.8,0-153.5,0-230.2,0c0-4.2,0-8.4,0-12.8c-6.1,0-11.8,0-17.6,0c-7.6-0.1-14.6-1.9-20.6-6.6c-8.8-6.9-12.7-16.1-12.8-27.1
			c0-25.6,0-51.2,0-76.9c0-1.4,0-2.9,0-4.9c-4.6,0-8.7,0-12.8,0c0-4.2,0-8.5,0-12.8c4.2,0,8.3,0,12.5,0c0-4.4,0-8.4,0-12.8
			c-4.3,0-8.4,0-12.5,0c0-76.7,0-153.4,0-230.2C185.2,204.8,255.7,204.8,326.2,204.8z"/>
		<path class="st0" d="M498.8,498c-0.7-3.5-1.4-7-2.1-10.5c-4-18.1-13.2-33-27.2-45c-2-1.7-2.8-3.4-2.8-6c0.1-44,0.1-87.9,0.1-131.9
			c0-1.5,0-3-0.1-4.5c-0.4-3.1-2.1-5-5.3-5.5c-1.5-0.2-3-0.3-4.5-0.3c-26.5,0-53,0-79.4,0c-1.5,0-3,0-4.8,0c2.4-5.7,5-10.8,6.8-16.1
			c5.5-16.6,6.4-33.1-3.2-48.7c-8.3-13.4-20.2-21.4-35.8-24.1c-0.7-0.1-1.4-0.5-2.1-0.7c53.5,0,106.9,0,160.5,0
			C498.8,302.5,498.8,400.2,498.8,498z M435,281.5c1.6,0,3,0,4.3,0c8.4,0,16.7,0,25.1,0c10.3,0,15.1,4.8,15.1,15.2c0,19,0,38,0,57
			c0,1.5,0,2.9,0,4.5c4.5,0,8.4,0,12.4,0c0.1-0.7,0.4-1.1,0.4-1.6c-0.1-21.5,0.2-43-0.3-64.5c-0.3-12.1-10.1-22.1-22.2-22.9
			c-10.3-0.7-20.7-0.4-31.1-0.5c-1.2,0-2.4,0-3.7,0C435,273.1,435,277,435,281.5z M492,383.8c0-4.3,0-8.3,0-12.4
			c-4.2,0-8.1,0-12.3,0c0,4.2,0,8.2,0,12.4C483.9,383.8,487.8,383.8,492,383.8z"/>
		<path d="M114.8,460.5c4.1,0,8.2,0,12.8,0c0,2,0,3.4,0,4.9c0,25.6,0,51.2,0,76.9c0,11,3.9,20.2,12.8,27.1
			c6.1,4.7,13.1,6.6,20.6,6.6c5.7,0.1,11.5,0,17.6,0c0,4.4,0,8.6,0,12.8c-8.2,0-16.5,0-24.8,0c-0.5-0.2-1.1-0.6-1.7-0.7
			c-17.4-3.4-29-13.6-35.1-30.1c-1-2.6-1.5-5.4-2.3-8.2C114.8,520,114.8,490.2,114.8,460.5z"/>
		<path class="st0" d="M423,588.8c5.6-1.2,11.3-1.9,16.7-3.7c33.7-11.3,53.1-34.7,58.5-69.9c0.1-0.7,0.4-1.4,0.6-2.1
			c0,25.2,0,50.5,0,75.8C473.5,588.8,448.2,588.8,423,588.8z"/>
		<path class="st0" d="M114.8,549.8c0.8,2.7,1.3,5.5,2.3,8.2c6,16.6,17.7,26.7,35.1,30.1c0.6,0.1,1.1,0.5,1.7,0.7c-13,0-26,0-39,0
			C114.8,575.8,114.8,562.8,114.8,549.8z"/>
		<path d="M114.8,435c4.1,0,8.2,0,12.5,0c0,4.4,0,8.4,0,12.8c-4.2,0-8.3,0-12.5,0C114.8,443.5,114.8,439.2,114.8,435z"/>
		<path class="st0" d="M185.3,396.8c0-8.7,0-16.8,0-25.6c1.3,0,2.7,0,4,0c19,0,38,0,57,0c7.3,0,9.4-2.1,9.4-9.4
			c0-16.7,0-33.5,0-50.2c0-1.3,0-2.7,0-4.2c8.7,0,16.9,0,25.6,0c0,1.5,0,3,0,4.5c0,42.2,0,84.5,0,126.7c0,7.5,1.8,9.3,9.2,9.3
			c15.4,0,30.7,0,46.1,0c6.5,0,8.5-2,8.5-8.5c0-23.4,0-46.7,0-70.1c0-1.4,0-2.7,0-4.3c36.3,0,72.4,0,108.6,0c0,8.4,0,16.6,0,25.4
			c-1.6,0-3,0-4.4,0c-22.9,0-45.7,0-68.6,0c-8.1,0-9.9,1.8-9.9,9.9c0,10.7-0.1,21.5,0,32.2c0,2.2-0.7,3.6-2.5,4.9
			c-12.3,8.5-21.7,19.5-27.9,33.1c-1.1,2.5-2.6,3.1-5.1,3.1c-14.9-0.1-29.7-0.1-44.6,0c-7.4,0-9.3,1.9-9.3,9.3c0,21,0,42,0,63
			c0,1.4,0,2.7,0,4.3c-8.6,0-16.9,0-25.6,0c0-1.7,0-3.3,0-4.9c0-46.1,0-92.2,0-138.4c0-8.4-1.7-10.1-10.1-10.1
			c-18.6,0-37.2,0-55.9,0C188.3,396.8,187,396.8,185.3,396.8z"/>
		<path class="st0" d="M345.1,504.3c1.1-40,33.3-69.9,71.5-69.1c39.9,0.9,70.8,33.7,69.2,72.4c-1.6,39.1-34.1,69.7-72.4,68.2
			C374.6,574.5,344.7,542.9,345.1,504.3z M473,499.2c-6.6,0-12.9,0-19.2,0c-8.4,0-8.3,0-11.1-8.1c-0.7-2.1-0.4-3.5,1.2-4.8
			c2.9-2.4,5.8-5,7.9-6.9c-3.6-3.8-6.4-6.7-9.5-10c-1.1,1.2-2.5,2.5-3.5,4.1c-3.7,5.8-8.4,6.1-14.2,3.2c-1.9-1-2.5-1.9-2.5-3.9
			c0.1-5.4,0-10.7,0-16.1c0-2.8,0-5.6,0-8.5c-4.6,0-8.5,0-13,0c0,7.8,0,15.3,0,23.1c-4.6-1.6-8.6-2.9-12.6-4.3
			c-5.3-1.8-10.6-3.7-15.9-5.4c-2.7-0.9-5.4-1-7.7,1.2c-2.2,2.2-2.2,4.9-1.3,7.7c0.3,0.9,0.7,1.9,1,2.8c2.9,8.5,5.7,16.9,8.8,26.1
			c-8,0-15.6,0-23.2,0c0,4.5,0,8.4,0,12.8c6.6,0,12.9,0,19.2,0c8.4,0,8.3,0,11.1,8.1c0.7,2.1,0.3,3.5-1.3,4.8
			c-2.8,2.4-5.5,5-8.4,7.7c3.5,3.4,6.4,6.2,9.7,9.4c1.3-1.4,2.6-2.9,4-4.3c6-6.1,6-6,14.2-3.1c2.1,0.7,2.6,1.8,2.5,3.8
			c-0.1,6,0,12,0,18c0,2.2,0,4.4,0,6.6c4.6,0,8.5,0,12.8,0c0-7.7,0-15.1,0-22.9c1.5,0.4,2.5,0.6,3.6,1c8.5,2.9,17,5.8,25.5,8.7
			c2.7,0.9,5.2,0.8,7.3-1.3c2.1-2.1,2.4-4.6,1.4-7.3c-0.4-1.2-0.8-2.4-1.2-3.5c-2.8-8.4-5.7-16.7-8.7-25.7c8,0,15.6,0,23.1,0
			C473,507.5,473,503.5,473,499.2z"/>
		<path class="st0" d="M453.7,307.4c0,14.9,0,29.5,0,44.5c-1.6,0-3.1,0-4.5,0c-35.6,0-71.2,0-106.9,0c-8.2,0-10,1.8-10,9.9
			c0,22.9,0,45.7,0,68.6c0,1.4,0,2.7,0,4.4c-12.7,0-25.3,0-38.1,0c0-42.3,0-84.7,0-127.2c4-1,6.7-0.1,9.6,3.3
			c7.3,8.8,15.2,17.2,23.1,25.5c3.7,3.9,7,3.9,10.7,0c8.2-8.7,16.1-17.7,24.2-26.5c1.1-1.2,2.9-2.6,4.4-2.6
			c28.4-0.2,56.7-0.1,85.1-0.1C452.1,307.2,452.7,307.3,453.7,307.4z M319.3,422.1c0-4.2,0-8.3,0-12.3c-4.3,0-8.3,0-12.3,0
			c0,4.3,0,8.3,0,12.3C311.3,422.1,315.2,422.1,319.3,422.1z"/>
		<path class="st0" d="M242.6,409.8c0,46.9,0,93.5,0,140.4c-1.2,0.1-2.1,0.2-3.1,0.2c-24,0-48,0-71.9,0c-7.5,0-12.5-3.6-14-10
			c-1.8-7.5,3.5-14.9,11.2-15.5c3.7-0.3,7.5-0.1,11.2-0.1c7.1,0,9.2-2.1,9.2-9.1c0-33.7,0-67.5,0-101.2c0-1.5,0-3,0-4.7
			C204.4,409.8,223.3,409.8,242.6,409.8z M229.7,422.5c-4.2,0-8.1,0-12.3,0c0,4.2,0,8.2,0,12.4c4.2,0,8.1,0,12.3,0
			C229.7,430.7,229.7,426.7,229.7,422.5z"/>
		<path class="st0" d="M172.1,511.2c-6.5,1-12.5,2-19.1,3c0-0.8,0-2.2,0-3.6c0-68.5,0-137,0-205.5c0-13.5,5.1-18.2,19.1-16.9
			C172.1,362.6,172.1,437,172.1,511.2z"/>
		<path class="st0" d="M332.4,323.8c-9.4-9-17.8-18.6-24.7-29.5c-6.2-9.8-11.4-20.1-13.2-31.9c-2.9-18.5,7.9-36.8,25.7-42.8
			c17.6-6,36.8,1.6,45.8,18c7.4,13.4,5.5,26.8,0,40C358.4,295.6,346.3,310.2,332.4,323.8z M332.4,281.4c14.1,0,25.4-11.4,25.4-25.5
			c0-14-11.3-25.5-25.4-25.6c-14-0.1-25.8,11.8-25.7,25.8C306.9,270.1,318.4,281.5,332.4,281.4z"/>
		<path class="st0" d="M242.6,358.2c-19.1,0-37.9,0-57.1,0c0-16.9,0-33.8,0-50.8c19,0,38,0,57.1,0
			C242.6,324.4,242.6,341.1,242.6,358.2z M229.7,345.4c0-4.3,0-8.3,0-12.4c-4.2,0-8.2,0-12.2,0c0,4.2,0,8.2,0,12.4
			C221.6,345.4,225.5,345.4,229.7,345.4z"/>
		<path class="st0" d="M294.2,486.6c13.4,0,26.7,0,40.4,0c-2.4,11-3,21.9-1.1,32.8c1.9,10.8,5.8,20.9,11.8,30.7
			c-17.3,0-34.2,0-51.2,0C294.2,528.9,294.2,507.9,294.2,486.6z M319.4,499.5c-4.4,0-8.4,0-12.4,0c0,4.2,0,8.2,0,12.3
			c4.2,0,8.3,0,12.4,0C319.4,507.6,319.4,503.7,319.4,499.5z"/>
		<path class="st0" d="M453.7,403.5c0,9.3,0,18.4,0,28.2c-11.1-5.6-22.6-8.7-34.6-9.3c-12-0.6-23.6,1.6-35.2,6.2
			c0-8.5,0-16.7,0-25.1C407,403.5,430.2,403.5,453.7,403.5z"/>
		<path d="M435,281.5c0-4.5,0-8.4,0-12.8c1.3,0,2.5,0,3.7,0c10.4,0.1,20.8-0.2,31.1,0.5c12.1,0.8,21.9,10.8,22.2,22.9
			c0.5,21.5,0.3,43,0.3,64.5c0,0.5-0.2,0.9-0.4,1.6c-4,0-8,0-12.4,0c0-1.6,0-3,0-4.5c0-19,0-38,0-57c0-10.4-4.8-15.2-15.1-15.2
			c-8.4,0-16.7,0-25.1,0C437.9,281.5,436.6,281.5,435,281.5z"/>
		<path d="M492,383.8c-4.3,0-8.2,0-12.3,0c0-4.2,0-8.2,0-12.4c4.2,0,8.1,0,12.3,0C492,375.5,492,379.5,492,383.8z"/>
		<path d="M473,499.2c0,4.4,0,8.3,0,12.8c-7.6,0-15.1,0-23.1,0c3,8.9,5.9,17.3,8.7,25.7c0.4,1.2,0.8,2.4,1.2,3.5
			c1,2.7,0.7,5.2-1.4,7.3c-2.1,2.1-4.6,2.2-7.3,1.3c-8.5-2.9-17-5.8-25.5-8.7c-1-0.3-2.1-0.6-3.6-1c0,7.8,0,15.2,0,22.9
			c-4.3,0-8.2,0-12.8,0c0-2.2,0-4.4,0-6.6c0-6-0.1-12,0-18c0-2-0.4-3.1-2.5-3.8c-8.1-2.9-8.1-3-14.2,3.1c-1.4,1.4-2.7,2.9-4,4.3
			c-3.3-3.2-6.2-6-9.7-9.4c2.8-2.6,5.5-5.2,8.4-7.7c1.6-1.4,2-2.7,1.3-4.8c-2.8-8-2.7-8.1-11.1-8.1c-6.3,0-12.7,0-19.2,0
			c0-4.4,0-8.3,0-12.8c7.6,0,15.1,0,23.2,0c-3.1-9.1-6-17.6-8.8-26.1c-0.3-0.9-0.7-1.9-1-2.8c-0.9-2.8-0.9-5.4,1.3-7.7
			c2.3-2.3,5-2.1,7.7-1.2c5.3,1.8,10.6,3.6,15.9,5.4c4,1.4,8,2.7,12.6,4.3c0-7.8,0-15.3,0-23.1c4.5,0,8.4,0,13,0c0,2.8,0,5.6,0,8.5
			c0,5.4,0.1,10.7,0,16.1c0,2,0.6,2.9,2.5,3.9c5.8,2.9,10.5,2.7,14.2-3.2c1-1.6,2.4-2.8,3.5-4.1c3.1,3.3,5.9,6.2,9.5,10
			c-2.1,1.9-4.9,4.4-7.9,6.9c-1.7,1.4-1.9,2.8-1.2,4.8c2.8,8,2.7,8.1,11.1,8.1C460.1,499.2,466.4,499.2,473,499.2z M388,477.6
			c0,0.8-0.1,1.2,0,1.5c4.3,12.7,8.6,25.5,13.1,38.2c0.4,1.2,1.9,2.6,3.2,3c12,4.2,24,8.2,36.1,12.3c0.9,0.3,1.8,0.4,3,0.7
			c-0.3-1.2-0.5-1.9-0.7-2.6c-4.3-12.5-8.5-25-12.9-37.5c-0.4-1-1.8-2-2.9-2.4c-5.1-1.9-10.4-3.6-15.5-5.3
			C403.6,482.9,395.9,480.3,388,477.6z"/>
		<path d="M319.3,422.1c-4.1,0-8,0-12.3,0c0-4,0-8,0-12.3c4,0,8,0,12.3,0C319.3,413.9,319.3,417.9,319.3,422.1z"/>
		<path d="M229.7,422.5c0,4.2,0,8.2,0,12.4c-4.2,0-8.1,0-12.3,0c0-4.2,0-8.2,0-12.4C221.6,422.5,225.5,422.5,229.7,422.5z"/>
		<path d="M332.4,281.4c-14,0-25.5-11.3-25.6-25.3c-0.1-14,11.8-25.9,25.7-25.8c14,0.1,25.4,11.6,25.4,25.6
			C357.8,270.1,346.5,281.4,332.4,281.4z M345.1,255.9c0-6.9-5.7-12.7-12.6-12.7c-7-0.1-12.9,5.9-12.9,12.9
			c0,7.1,5.9,12.7,13.1,12.6C339.6,268.5,345.1,262.9,345.1,255.9z"/>
		<path d="M229.7,345.4c-4.2,0-8.1,0-12.2,0c0-4.2,0-8.2,0-12.4c4,0,8,0,12.2,0C229.7,337.1,229.7,341.1,229.7,345.4z"/>
		<path d="M319.4,499.5c0,4.2,0,8.1,0,12.3c-4.2,0-8.2,0-12.4,0c0-4.1,0-8,0-12.3C311,499.5,315,499.5,319.4,499.5z"/>
		<path class="st0" d="M388,477.6c7.9,2.7,15.7,5.3,23.4,7.9c5.2,1.8,10.4,3.5,15.5,5.3c1.1,0.4,2.5,1.4,2.9,2.4
			c4.4,12.5,8.6,25,12.9,37.5c0.2,0.7,0.4,1.4,0.7,2.6c-1.3-0.3-2.2-0.4-3-0.7c-12-4.1-24.1-8.1-36.1-12.3c-1.3-0.5-2.8-1.8-3.2-3
			c-4.5-12.7-8.8-25.4-13.1-38.2C387.9,478.8,388,478.4,388,477.6z M409.4,512c3.7,0,7.1,0.1,10.6-0.1c0.7,0,1.9-1.2,1.9-1.9
			c0.2-3.4,0.1-6.9,0.1-10.5c-4.5,0-8.5,0-12.6,0C409.4,503.7,409.4,507.6,409.4,512z"/>
		<path class="st0" d="M345.1,255.9c0,7-5.4,12.7-12.4,12.8c-7.2,0.1-13-5.5-13.1-12.6c0-7,5.9-13,12.9-12.9
			C339.4,243.2,345,248.9,345.1,255.9z"/>
		<path d="M409.4,512c0-4.4,0-8.3,0-12.5c4.1,0,8.1,0,12.6,0c0,3.6,0.1,7.1-0.1,10.5c0,0.7-1.2,1.9-1.9,1.9
			C416.5,512.1,413.1,512,409.4,512z"/>
	</g>
</g>
</svg>
