<?xml version="1.0" ?><!DOCTYPE svg  PUBLIC '-//W3C//DTD SVG 1.1//EN'  'http://www.w3.org/Graphics/SVG/1.1/DTD/svg11.dtd'><svg enable-background="new 0 0 141.732 141.732" height="141.732px" id="Livello_1" version="1.1" viewBox="0 0 141.732 141.732" width="141.732px" xml:space="preserve" xmlns="http://www.w3.org/2000/svg" xmlns:xlink="http://www.w3.org/1999/xlink"><g id="Livello_49"><path d="M43.755,5.637L39.583,0c-13.898,9.365-22.975,24.81-22.975,42.273s9.076,32.902,22.974,42.272l4.172-5.64   c-12.046-8.117-19.909-21.5-19.909-36.633C23.845,27.137,31.71,13.753,43.755,5.637 M50.536,14.802l-3.13-4.229   c-10.424,7.028-17.235,18.604-17.235,31.7c0,13.1,6.812,24.672,17.233,31.699l3.129-4.228   c-9.032-6.093-14.938-16.121-14.938-27.476C35.596,30.92,41.503,20.891,50.536,14.802 M87.448,42.277   c0-8.729-7.422-15.809-16.578-15.809c-9.156,0-16.578,7.077-16.578,15.809c0,7.771,5.881,14.229,13.627,15.558v79.302   c0,1.586,1.353,2.875,3.019,2.875c1.663,0,3.014-1.289,3.014-2.875V57.809C81.632,56.434,87.448,50.003,87.448,42.277    M94.323,10.573l-3.129,4.229c9.035,6.09,14.939,16.12,14.939,27.473c0,11.354-5.902,21.383-14.939,27.476l3.129,4.228   c10.426-7.028,17.236-18.604,17.236-31.7C111.559,29.178,104.749,17.602,94.323,10.573 M125.124,42.273   c0-17.465-9.074-32.906-22.975-42.271l-4.172,5.638c12.045,8.115,19.908,21.5,19.908,36.637c0,15.134-7.863,28.519-19.906,36.64   l4.172,5.638C116.048,75.177,125.124,59.738,125.124,42.273"/></g><g id="Livello_1_1_"/></svg>