<?xml version="1.0" encoding="utf-8"?>
<!-- Generator: Adobe Illustrator 19.0.0, SVG Export Plug-In . SVG Version: 6.00 Build 0)  -->
<svg version="1.1" id="Layer_1" xmlns="http://www.w3.org/2000/svg" xmlns:xlink="http://www.w3.org/1999/xlink" x="0px" y="0px"
	 viewBox="0 0 900 900" style="enable-background:new 0 0 900 900;" xml:space="preserve">
<style type="text/css">
	.st0{fill:#FFFFFF;}
</style>
<g id="XMLID_1_">
	<path id="XMLID_44_" class="st0" d="M135,202c210.3,0,420.5,0,630.9,0c0,165.5,0,331.1,0,496.8c-210.2,0-420.6,0-630.9,0
		C135,533.3,135,367.7,135,202z M762.1,432.7C762.1,432.7,762.1,432.7,762.1,432.7c-0.1-16.7,0.4-33.3-0.2-50
		c-1.2-35.1-12.9-66.2-37.4-91.7c-24.1-25.2-54.1-41.8-85.3-56.3c-17.5-8.1-35.8-14.2-54.6-18.8c-20.8-5.1-41.8-8.5-63.1-9.5
		c-42.6-2-84.5,2.2-125.6,13.5c-17.4,4.8-34.1,11.2-50.1,19.5c-29.2,15.3-53.7,36.1-74.5,61.6c-16.3,20-22.7,42.3-18.7,67.5
		c2,12.8,5.4,25.4,7.8,38.1c2.1,11.7-1,22.4-10.9,29.2c-10,6.8-20.6,12.9-31.6,17.9c-17.7,8-36.1,14.4-53.9,22.1
		c-10.8,4.6-18.4,12.6-22.4,24.1c-4,11.7-2.3,23.4-2,35.2c0.3,13,0.7,25.9,0.6,38.9c-0.1,14.5,4,27.6,16.1,35.9
		c19.9,13.6,40.2,26.6,61.2,38.6c26.3,15,55.2,23.9,84.3,31.6c29.5,7.8,59.7,12.4,90.2,14.1c59.5,3.2,118-3,175.4-19.7
		c21.8-6.4,42.7-14.6,62.9-24.9c36.7-18.7,68.7-43.3,95-75c24.4-29.4,38.2-62.9,37.1-101.8C761.8,459.3,762.1,446,762.1,432.7z"/>
	<path id="XMLID_41_" d="M762.1,432.7c0,13.3-0.3,26.7,0.1,40c1.1,38.9-12.7,72.4-37.1,101.8c-26.3,31.7-58.3,56.3-95,75
		c-20.2,10.3-41.1,18.5-62.9,24.9c-57.3,16.7-115.8,23-175.4,19.7c-30.5-1.6-60.7-6.3-90.2-14.1c-29.1-7.7-58-16.5-84.3-31.6
		c-20.9-12-41.3-25-61.2-38.6c-12.1-8.3-16.2-21.3-16.1-35.9c0.1-13-0.3-25.9-0.6-38.9c-0.3-11.8-2-23.5,2-35.2
		c4-11.6,11.6-19.5,22.4-24.1c17.8-7.7,36.2-14.2,53.9-22.1c11-5,21.7-11,31.6-17.9c9.9-6.8,13.1-17.5,10.9-29.2
		c-2.3-12.8-5.8-25.3-7.8-38.1c-3.9-25.2,2.5-47.5,18.7-67.5c20.8-25.6,45.3-46.4,74.5-61.6c15.9-8.3,32.7-14.8,50.1-19.5
		c41.2-11.3,83.1-15.5,125.6-13.5c21.3,1,42.4,4.4,63.1,9.5c18.8,4.6,37.1,10.7,54.6,18.8c31.2,14.5,61.2,31.1,85.3,56.3
		c24.5,25.5,36.2,56.7,37.4,91.7C762.5,399.3,762.1,416,762.1,432.7C762.1,432.7,762.1,432.7,762.1,432.7z M492.7,232
		c-4.9,0.3-13.4,0.8-21.9,1.2c-33.2,1.6-65.3,8.2-95.8,21.6c-32.6,14.3-60.6,34.7-83.7,61.7c-14.5,17-18.2,36.6-12.4,58.5
		c3.2,12.1,4.7,24.9,5.8,37.4c0.9,10-1.4,19.8-6.6,28.8c-8.8,14.9-23,22.8-37.7,30c-23,11.2-46.2,22.1-69.2,33.2
		c-4.9,2.3-8,7.1-6.7,11.2c3,9.4,6.3,18.8,14.4,25.2c8.8,6.9,17.8,13.5,26.8,20c13.9,9.9,29.5,16.8,45.5,22.3
		c16.8,5.8,33.6,11.9,50.9,15.9c17.6,4.1,35.7,6.4,53.7,8.7c23.4,2.9,46.9,4.1,70.2,0.2c28.6-4.7,57.1-9.8,85.6-14.8
		c31.3-5.5,61.3-14.7,90.2-28.1c36.2-16.8,67.7-39.8,92.3-71.5c21.5-27.8,37.7-57.9,41.3-93.7c3.3-33.3-5.4-62.5-28.5-87.2
		c-35.3-37.7-79.9-58.4-128.9-71C551.2,234.7,523.8,232.4,492.7,232z"/>
	<path id="XMLID_38_" class="st0" d="M492.7,232c31.2,0.4,58.6,2.6,85.3,9.5c48.9,12.7,93.6,33.3,128.9,71
		c23.1,24.7,31.8,53.9,28.5,87.2c-3.6,35.8-19.8,65.9-41.3,93.7c-24.6,31.7-56,54.7-92.3,71.5c-28.8,13.4-58.9,22.6-90.2,28.1
		c-28.5,5-57,10.1-85.6,14.8c-23.4,3.9-46.9,2.7-70.2-0.2c-18-2.2-36.1-4.6-53.7-8.7c-17.3-4.1-34.1-10.1-50.9-15.9
		c-16-5.6-31.6-12.4-45.5-22.3c-9.1-6.5-18.1-13.1-26.8-20c-8.1-6.4-11.4-15.8-14.4-25.2c-1.3-4,1.8-8.8,6.7-11.2
		c23.1-11.1,46.2-22,69.2-33.2c14.7-7.2,28.9-15.1,37.7-30c5.3-8.9,7.5-18.7,6.6-28.8c-1.1-12.6-2.6-25.3-5.8-37.4
		c-5.8-21.9-2.1-41.5,12.4-58.5c23-27,51.1-47.4,83.7-61.7c30.6-13.4,62.6-20,95.8-21.6C479.3,232.8,487.8,232.3,492.7,232z
		 M409.4,574.3c38.7-1,77.1-4.1,114.8-13.5c26.4-6.6,51.9-15.4,76-28.2c37.4-19.9,66.6-47.7,85.1-86.2
		c11.6-24.1,16.4-48.9,10.3-75.6c-5.2-22.5-16.6-41-34.8-54.9c-20.1-15.4-42.7-26.4-66.6-34.6c-27.1-9.3-55.2-14.5-83.8-14.5
		c-18.6,0-37.3,1.2-55.7,3.9c-15,2.2-29.9,6.7-44.4,11.5c-13.2,4.4-26,10.1-38.5,16.3c-12.8,6.3-25.4,13.2-37.1,21.3
		c-14.5,10.1-20.6,24.4-16,42.3c3,11.7,6.8,23.4,8.6,35.3c3.8,25.4-4.4,46.9-23.6,64c-14.5,12.9-32.3,18.7-50.2,24.7
		c-12.2,4.1-23.9,9-33.5,18.1c-3.9,3.7-4.9,8.4-2.7,12.8c5.2,10.1,11.6,19.7,21.9,25.3c23.2,12.5,48.3,20,74.1,24.2
		C345.1,571.7,377.1,575.1,409.4,574.3z"/>
	<path id="XMLID_35_" d="M409.4,574.3c-32.3,0.8-64.3-2.6-96-7.8c-25.8-4.2-50.9-11.8-74.1-24.2c-10.3-5.5-16.7-15.2-21.9-25.3
		c-2.2-4.3-1.3-9,2.7-12.8c9.6-9.1,21.3-14,33.5-18.1c17.9-6,35.7-11.8,50.2-24.7c19.3-17.2,27.5-38.6,23.6-64
		c-1.8-11.9-5.6-23.6-8.6-35.3c-4.6-17.9,1.5-32.2,16-42.3c11.7-8.1,24.4-14.9,37.1-21.3c12.5-6.2,25.3-11.9,38.5-16.3
		c14.5-4.8,29.3-9.3,44.4-11.5c18.4-2.7,37.1-3.9,55.7-3.9c28.6,0,56.7,5.1,83.8,14.5c23.8,8.2,46.4,19.3,66.6,34.6
		c18.2,13.9,29.6,32.4,34.8,54.9c6.1,26.6,1.3,51.4-10.3,75.6c-18.5,38.5-47.7,66.3-85.1,86.2c-24.1,12.8-49.5,21.7-76,28.2
		C486.5,570.2,448.1,573.3,409.4,574.3z M637.8,418.8c3.5-0.8,7.3-1.1,10.6-2.4c7.2-2.8,8.7-10.3,3-15.6c-2.2-2-5.4-3.6-8.3-4
		c-9.4-1.3-18.9-1.6-28.3-3c-14.1-2-25.2-9.3-33-21.1c-9.2-13.9-8.8-29.2-5.4-44.8c0.7-3.4,1.5-6.9,1.5-10.3c0-5-4.5-10.3-9.2-11.2
		c-4.6-0.9-9,1.1-10.6,4.9c-2.1,5-3.5,10.8-3.3,16.2c0.3,7.6,2.5,15.1,3.9,22.6c3.8,20.5-3.4,32.7-22.9,40.1
		c-8.1,3-15.9,6.7-23.6,10.7c-6.7,3.4-7.2,10.6-1.6,15.7c3.9,3.5,12.6,4.2,17.8,0.2c9.8-7.4,19.2-15.4,28.4-23.5
		c7.4-6.6,14.6-8.7,23.3-4.4c8.1,4.1,16.1,8.8,23.3,14.2C613.6,411,623.6,419,637.8,418.8z"/>
	<path id="XMLID_34_" class="st0" d="M637.8,418.8c-14.1,0.2-24.1-7.7-34.5-15.5c-7.3-5.4-15.2-10.1-23.3-14.2
		c-8.7-4.4-15.8-2.2-23.3,4.4c-9.2,8.2-18.6,16.1-28.4,23.5c-5.2,4-13.9,3.3-17.8-0.2c-5.6-5-5.1-12.2,1.6-15.7
		c7.7-3.9,15.5-7.7,23.6-10.7c19.5-7.3,26.7-19.6,22.9-40.1c-1.4-7.5-3.5-15-3.9-22.6c-0.2-5.4,1.2-11.2,3.3-16.2
		c1.6-3.8,6-5.8,10.6-4.9c4.7,0.9,9.2,6.3,9.2,11.2c0,3.4-0.8,6.9-1.5,10.3c-3.4,15.6-3.7,30.9,5.4,44.8c7.8,11.8,19,19.1,33,21.1
		c9.4,1.3,18.9,1.7,28.3,3c2.9,0.4,6.1,2,8.3,4c5.7,5.2,4.2,12.7-3,15.6C645,417.7,641.3,418,637.8,418.8z"/>
</g>
</svg>
