<?xml version="1.0" encoding="utf-8"?>
<!-- Generator: Adobe Illustrator 19.0.0, SVG Export Plug-In . SVG Version: 6.00 Build 0)  -->
<svg version="1.1" id="Layer_1" xmlns="http://www.w3.org/2000/svg" xmlns:xlink="http://www.w3.org/1999/xlink" x="0px" y="0px"
	 viewBox="0 0 900 900" style="enable-background:new 0 0 900 900;" xml:space="preserve">
<style type="text/css">
	.st0{fill:#FFFFFF;}
</style>
<g id="k1hxeZ.tif">
	<g id="XMLID_1_">
		<path id="XMLID_16_" class="st0" d="M662.2,224.7c0.1-0.5,0.2-1.1,0.3-1.6c-3.5,6.9-6.9,13.8-10.3,20.7c-0.3,0.6-0.4,1.3-0.6,1.9
			c-4.6,11.2-8.6,12.3-19.6,7.2c-6.4-3-13.4-5-20.3-6.9c-15.9-4.3-31.7-8.9-47.9-12.1c-17-3.3-34.2-5.1-51.3-7.6
			c-36.6-5.3-73.4-5.7-110.2-2.1c-18.2,1.8-36.4,4.3-54.4,7.7c-19.9,3.7-39.7,8.4-59.3,13.3c-8.8,2.2-17.3,5.8-25.8,9.1
			c-3.5,1.4-6.3,1.2-8.1-2.2c-3.5-6.6-6.9-13.2-10.2-19.9c-2.5-5.1-4.6-10.3-7.3-15.2c0,0.1,0.1,0.2,0.1,0.3
			c0.8,3.4-1.7,5.7-4.3,6.2v513.6h436V230.7C665.9,231.7,661.4,229.1,662.2,224.7z M640.3,279.6c-4.6,11-9.5,21.9-14.1,32.9
			c-4.8,11.5-9.4,23-14.2,34.5c-4.4,10.6-8.8,21.1-13.2,31.7c-3.1,7.5-6.2,15-9.4,22.5c-4.8,11.3-9.6,22.6-14.4,33.9
			c-2.3,5.3-4.6,10.7-6.8,16c-6.4,15.8-12.6,31.7-19.2,47.5c-6.4,15.4-13.3,30.7-19.8,46.1c-4.7,11.3-9,22.8-13.7,34.1
			c-4.6,11-9.5,21.9-14.2,32.9c-2.8,6.6-5.3,13.3-7.9,19.9c-2.6,6.3-5.2,12.5-7.9,18.8c-3,7.2-6,14.4-9,21.6
			c-2.3,5.5-4.4,11.1-6.7,16.6c-4.8,11.1-9.7,22.2-14.4,33.3c-1.1,2.6-1.5,5.4-2.4,8.1c-1,3-2.9,3.5-5.2,1.2
			c-1.3-1.3-2.7-2.7-3.4-4.3c-2.6-6.3-4.9-12.7-7.4-19c-2.2-5.7-4.3-11.5-6.7-17.1c-6.7-16.1-13.6-32-20.3-48.2
			c-4.7-11.3-8.8-22.9-13.4-34.3c-4.6-11.4-9.6-22.6-14.3-33.9c-2.7-6.4-5.1-13-7.7-19.5c-2.7-6.8-5.5-13.5-8.3-20.2
			c-2.6-6.3-5.3-12.5-7.9-18.8c-5.3-12.9-10.6-25.8-15.8-38.7c-2.6-6.5-5-13-7.6-19.5c-2.7-6.8-5.5-13.5-8.3-20.2
			c-2.4-5.8-5.1-11.5-7.4-17.4c-6.4-16-12.5-32.1-19-48.1c-6.6-16.1-13.6-32.1-20.2-48.2c-6.8-16.6-13.2-33.3-19.9-49.9
			c-1.7-4.2-0.6-6.2,3.5-7.4c14.1-4.3,28-9.4,42.4-12.9c18.7-4.6,37.6-8.6,56.6-11.8c31.8-5.3,63.8-7.8,96-6.8
			c21.1,0.7,42.3,2.1,63.3,4.4c14.8,1.6,29.5,4.9,44.2,8c12.2,2.5,24.4,5.4,36.4,8.7c8.8,2.4,17.3,5.6,26,8.4c3,1,6.2,1.5,9,2.8
			c2,0.9,3.6,2.6,5,3.8C641.5,274.8,641.2,277.4,640.3,279.6z"/>
		<path id="XMLID_8_" d="M663.2,206.8c0,0,0-0.1,0-0.1c-4.8-1.9-9.6-3.8-14.5-5.6c-5.6-2.1-11.1-4.3-16.8-6.1
			c-8.2-2.6-16.4-5.2-24.7-7.5c-8.3-2.3-16.6-4.4-25-6.4c-13.4-3.1-26.8-6.3-40.3-8.8c-8.5-1.6-17.1-2.2-25.7-3.3
			c-0.9,0.4-1.9,0.5-3,0.3c-9.7-1.8-19.4-3.1-29.2-4.3h-75.1c-0.7,0.3-1.4,0.5-2.4,0.5c-6.5-0.2-12.7,1.7-19.1,2
			c-0.4,0.3-0.7,0.6-1.2,0.8c-1.6,0.7-3.6,0.7-5.4,1c-16.8,2.5-33.6,4.6-50.3,7.8c-11.4,2.2-22.5,5.8-33.7,8.8
			c-8.8,2.4-17.6,4.8-26.3,7.6c-8.2,2.7-16.1,6.1-24.3,8.9c-3.7,1.3-7.6,2.2-11.4,3.1c0,0,0,0,0,0c-0.3,4,1.3,7.6,2.2,11.4
			c2.7,5,4.8,10.2,7.3,15.2c3.3,6.7,6.6,13.4,10.2,19.9c1.8,3.4,4.6,3.6,8.1,2.2c8.5-3.3,17-6.9,25.8-9.1
			c19.7-4.9,39.4-9.6,59.3-13.3c18-3.4,36.2-5.9,54.4-7.7c36.8-3.6,73.6-3.2,110.2,2.1c17.1,2.5,34.4,4.3,51.3,7.6
			c16.1,3.2,32,7.8,47.9,12.1c6.9,1.9,13.8,3.9,20.3,6.9c11,5.1,15,3.9,19.6-7.2c0.3-0.6,0.3-1.3,0.6-1.9
			c3.4-6.9,6.8-13.9,10.3-20.7c0.8-4.5,1.8-9,2-13.6C664,208.6,663.5,207.8,663.2,206.8z"/>
		<path id="XMLID_7_" class="st0" d="M519.3,165c-0.3,1.7-1.5,3.3-3.1,4c8.6,1.1,17.2,1.8,25.7,3.3c13.5,2.5,26.9,5.7,40.3,8.8
			c8.4,1.9,16.7,4.1,25,6.4c8.3,2.3,16.5,4.8,24.7,7.5c5.7,1.8,11.2,4,16.8,6.1c4.8,1.8,9.6,3.7,14.5,5.6c-0.8-2.6,1.1-5.3,3.5-6
			c0.7-0.2,1.5-0.2,2.3-0.1V165H519.3z"/>
		<path id="XMLID_10_" class="st0" d="M381.7,167.3c-1.7-0.3-2.8-1.2-3.3-2.3H233v36.5c1.2,0.9,2.1,2.4,2,3.9
			c3.8-1,7.7-1.8,11.4-3.1c8.1-2.8,16.1-6.2,24.3-8.9c8.7-2.8,17.5-5.2,26.3-7.6c11.2-3.1,22.3-6.7,33.7-8.8
			c16.6-3.2,33.5-5.2,50.3-7.8c1.8-0.3,3.8-0.3,5.4-1c0.4-0.2,0.8-0.5,1.2-0.8C385.6,167.6,383.6,167.6,381.7,167.3z"/>
		<path id="XMLID_54_" d="M642.4,271.2c-0.9,3.6-1.2,6.2-2.2,8.5c-4.6,11-9.5,21.9-14.1,32.9c-4.8,11.5-9.4,23-14.2,34.5
			c-4.4,10.6-8.8,21.1-13.2,31.7c-3.1,7.5-6.2,15-9.4,22.5c-4.8,11.3-9.6,22.6-14.4,33.9c-2.3,5.3-4.6,10.7-6.8,16
			c-6.4,15.8-12.6,31.7-19.2,47.5c-6.4,15.4-13.3,30.7-19.8,46.1c-4.7,11.3-9,22.8-13.7,34.1c-4.6,11-9.5,21.9-14.2,32.9
			c-2.8,6.6-5.3,13.3-7.9,19.9c-2.6,6.3-5.2,12.5-7.9,18.8c-3,7.2-6,14.4-9,21.6c-2.3,5.5-4.4,11.1-6.7,16.6
			c-4.8,11.1-9.7,22.2-14.4,33.3c-1.1,2.6-1.5,5.4-2.4,8.1c-1,3-2.9,3.5-5.2,1.2c-1.3-1.3-2.7-2.7-3.4-4.3c-2.6-6.3-4.9-12.7-7.4-19
			c-2.2-5.7-4.3-11.5-6.7-17.1c-6.7-16.1-13.6-32-20.3-48.2c-4.7-11.3-8.8-22.9-13.4-34.3c-4.6-11.4-9.6-22.6-14.3-33.9
			c-2.7-6.4-5.1-13-7.7-19.5c-2.7-6.8-5.5-13.5-8.3-20.2c-2.6-6.3-5.3-12.5-7.9-18.8c-5.3-12.9-10.6-25.8-15.8-38.7
			c-2.6-6.5-5-13-7.6-19.5c-2.7-6.8-5.5-13.5-8.3-20.2c-2.4-5.8-5.1-11.5-7.4-17.4c-6.4-16-12.5-32.1-19-48.1
			c-6.6-16.1-13.6-32.1-20.2-48.2c-6.8-16.6-13.2-33.3-19.9-49.9c-1.7-4.2-0.6-6.2,3.5-7.4c14.1-4.3,28-9.4,42.4-12.9
			c18.7-4.6,37.6-8.6,56.6-11.8c31.8-5.3,63.8-7.8,96-6.8c21.1,0.7,42.3,2.1,63.3,4.4c14.8,1.6,29.5,4.9,44.2,8
			c12.2,2.5,24.4,5.4,36.4,8.7c8.8,2.4,17.3,5.6,26,8.4c3,1,6.2,1.5,9,2.8C639.4,268.3,641,270,642.4,271.2z M424.1,414.1
			c-18.1-1.4-35.6,15.9-35.3,35c0.3,19.2,14.4,34.7,34.7,35c20.5,0.3,35.1-17.2,35.5-34.5C459.4,431.6,443.2,413.1,424.1,414.1z
			 M366.4,287.6c-19.6,0-33.5,14.4-33.5,33.3c0,20.3,14.7,33.8,33.2,33.8c19.4,0,33.4-13.5,33.6-33.4
			C399.9,302.4,386.3,287.9,366.4,287.6z M567.5,272.8c-15.1-0.4-30.5,13.1-30.5,30.4c-0.1,17.9,14.8,30.5,29.5,31.1
			c15.2,0.5,30.9-12.5,31-30.5C597.6,286.3,582.8,272.8,567.5,272.8z M488.1,338.2c-13.4-0.1-24.7,11.2-24.7,24.8
			c0,13.6,11.1,24.9,24.6,25c13.6,0.1,24.8-10.8,25.1-24.5C513.3,350,501.8,338.3,488.1,338.2z M443.7,572.8
			c-9.9-0.2-17.9,7.5-18.4,17.1c-0.4,8.3,7.5,18.1,17.6,17.8c10-0.3,17-6.7,17.2-16.8C460.4,580.5,453.5,573,443.7,572.8z
			 M484.9,544.9c8.8,0,15-6.3,14.9-15.2c-0.1-8.6-6.3-14.7-14.9-14.7c-8.6,0-14.8,6.1-14.9,14.7C469.9,538.7,476,544.9,484.9,544.9z
			"/>
		<path id="XMLID_53_" class="st0" d="M424.1,414.1c19.1-1,35.3,17.5,34.9,35.4c-0.4,17.3-15,34.8-35.5,34.5
			c-20.3-0.3-34.4-15.8-34.7-35C388.5,429.9,406,412.6,424.1,414.1z"/>
		<path id="XMLID_52_" class="st0" d="M366.4,287.6c20,0.3,33.5,14.8,33.3,33.7c-0.2,19.9-14.2,33.4-33.6,33.4
			c-18.5,0-33.2-13.5-33.2-33.8C332.9,302.1,346.8,287.6,366.4,287.6z"/>
		<path id="XMLID_51_" class="st0" d="M567.5,272.8c15.3-0.1,30,13.5,29.9,31c-0.1,18-15.8,31-31,30.5
			c-14.7-0.5-29.6-13.2-29.5-31.1C537.1,285.9,552.4,272.4,567.5,272.8z"/>
		<path id="XMLID_50_" class="st0" d="M488.1,338.2c13.7,0.1,25.2,11.8,24.9,25.3c-0.3,13.7-11.5,24.6-25.1,24.5
			c-13.5-0.1-24.6-11.4-24.6-25C463.4,349.4,474.7,338.1,488.1,338.2z"/>
		<path id="XMLID_49_" class="st0" d="M443.7,572.8c9.8,0.2,16.7,7.7,16.4,18.1C460,601,453,607.4,443,607.7
			c-10.2,0.3-18-9.4-17.6-17.8C425.8,580.3,433.8,572.6,443.7,572.8z"/>
		<path id="XMLID_48_" class="st0" d="M484.9,544.9c-8.9,0-15-6.2-14.9-15.2c0.1-8.6,6.3-14.7,14.9-14.7c8.6,0,14.9,6.1,14.9,14.7
			C499.9,538.6,493.7,544.9,484.9,544.9z"/>
	</g>
</g>
</svg>
