<?xml version="1.0" encoding="utf-8"?>
<!-- Generator: Adobe Illustrator 19.0.0, SVG Export Plug-In . SVG Version: 6.00 Build 0)  -->
<svg version="1.1" id="Layer_1" xmlns="http://www.w3.org/2000/svg" xmlns:xlink="http://www.w3.org/1999/xlink" x="0px" y="0px"
	 viewBox="0 0 900 900" style="enable-background:new 0 0 900 900;" xml:space="preserve">
<style type="text/css">
	.st0{fill:#FFFFFF;}
</style>
<g id="kO3e7X.tif">
	<g id="XMLID_1_">
		<path id="XMLID_86_" d="M70,649c0-132,0-264,0-396c1.1-0.6,2.5-1,3.2-1.9c3.7-4.8,8.5-6.3,14.5-6.3c45.3,0.1,90.7,0,136,0.2
			c3,0,6.5,1.6,8.7,3.6c8.2,7.6,16,15.6,23.8,23.6c3.2,3.3,5.6,3.2,8.7-0.1c7.5-7.8,15.4-15.3,22.9-23.1c2.9-3,5.9-4.3,10.1-4.3
			c171.8,0.1,343.6,0.1,515.4,0c6.4,0,11.8,1.4,15.7,6.8c0.6,0.8,1.9,1,2.9,1.5c0,132,0,264,0,396c-0.6,0.1-1.6,0-1.9,0.4
			c-5.5,8.3-13.9,7.8-22.3,7.8c-163.5-0.1-327-0.1-490.5-0.1c-6.8,0-13.7,0.3-20.5-0.2c-2.7-0.2-5.9-1.4-7.9-3.2
			c-8.2-7.8-16.2-15.9-24.1-24c-3.1-3.2-5.6-3.3-8.8-0.1c-7.6,7.9-15.6,15.5-23.2,23.4c-2.7,2.8-5.7,4.1-9.7,4.1
			c-44.8-0.1-89.7-0.1-134.5,0c-6.4,0-11.8-1.3-15.8-6.7C72.4,649.7,71,649.5,70,649z M551.6,625.9c80.1,0,160.3,0,240.4,0
			c7.6,0,8.3-0.7,8.3-8.2c0-111.1,0-222.3,0-333.4c0-7.4-0.7-8.1-7.9-8.1c-160.3,0-320.6,0-480.9-0.1c-4.1,0-7.3,1.2-10.2,4.2
			c-11.9,12.1-24,24.1-36,36.1c-4.3,4.3-5.5,4.3-9.8,0c-12-12-24.1-24-36-36.1c-2.9-3-6.1-4.2-10.2-4.2c-33.3,0.1-66.7,0.1-100,0.1
			c-7.1,0-7.8,0.7-7.8,7.6c0,111.3,0,222.6,0,333.9c0,7.6,0.6,8.2,8.3,8.2c33,0,66-0.1,99,0.1c4.5,0,7.9-1.4,11.1-4.6
			c11.8-12,23.8-23.8,35.6-35.8c4.3-4.3,5.5-4.3,9.8,0c11.9,11.9,23.8,23.8,35.6,35.8c3.2,3.2,6.6,4.5,11.1,4.5
			C391.9,625.8,471.8,625.9,551.6,625.9z"/>
		<path id="XMLID_85_" class="st0" d="M70,649c1,0.5,2.4,0.7,2.9,1.5c4,5.4,9.4,6.7,15.8,6.7c44.8-0.1,89.7-0.1,134.5,0
			c4,0,6.9-1.3,9.7-4.1c7.6-7.9,15.6-15.5,23.2-23.4c3.2-3.3,5.6-3.2,8.8,0.1c7.9,8.2,15.8,16.2,24.1,24c2,1.8,5.2,3.1,7.9,3.2
			c6.8,0.5,13.7,0.2,20.5,0.2c163.5,0,327,0,490.5,0.1c8.5,0,16.8,0.5,22.3-7.8c0.3-0.4,1.2-0.3,1.9-0.4c0,4,0,8,0,12
			c-254,0-508,0-762,0C70,657,70,653,70,649z"/>
		<path id="XMLID_84_" class="st0" d="M832,253c-1-0.5-2.4-0.7-2.9-1.5c-3.9-5.4-9.3-6.8-15.7-6.8c-171.8,0.1-343.6,0.1-515.4,0
			c-4.2,0-7.3,1.3-10.1,4.3c-7.5,7.8-15.4,15.3-22.9,23.1c-3.1,3.2-5.5,3.4-8.7,0.1c-7.8-8-15.6-16-23.8-23.6
			c-2.2-2-5.8-3.6-8.7-3.6c-45.3-0.2-90.7-0.1-136-0.2c-5.9,0-10.7,1.5-14.5,6.3c-0.7,0.9-2.1,1.3-3.2,1.9c0-4,0-8,0-12
			c254,0,508,0,762,0C832,245,832,249,832,253z"/>
		<path id="XMLID_75_" class="st0" d="M551.6,625.9c-79.8,0-159.6,0-239.4,0.1c-4.5,0-7.9-1.3-11.1-4.5
			c-11.8-12-23.8-23.8-35.6-35.8c-4.3-4.3-5.5-4.3-9.8,0c-11.9,11.9-23.8,23.8-35.6,35.8c-3.1,3.2-6.6,4.6-11.1,4.6
			c-33-0.1-66-0.1-99-0.1c-7.7,0-8.3-0.6-8.3-8.2c0-111.3,0-222.6,0-333.9c0-6.9,0.7-7.6,7.8-7.6c33.3,0,66.7,0,100-0.1
			c4.1,0,7.3,1.2,10.2,4.2c11.9,12.1,24,24.1,36,36.1c4.3,4.3,5.5,4.3,9.8,0c12-12,24.1-24,36-36.1c2.9-3,6.1-4.2,10.2-4.2
			c160.3,0.1,320.6,0.1,480.9,0.1c7.2,0,7.9,0.7,7.9,8.1c0,111.1,0,222.3,0,333.4c0,7.5-0.7,8.2-8.3,8.2
			C711.9,625.9,631.7,625.9,551.6,625.9z M672.9,341.1c0.1-9.2-5.2-15.4-13.2-16.7c-7.4-1.2-12.2,2.7-17,7.5
			C571,403.8,499.3,475.5,427.5,547.3c-1.8,1.8-3.5,3.5-5.1,5.5c-6.9,8.9-1.6,22.6,9.5,24.5c7,1.3,12.1-1.7,16.9-6.5
			c55.4-55.6,110.9-111,166.4-166.5c17.1-17.1,34.1-34.2,51.3-51.3C670.1,349.4,673.1,345.6,672.9,341.1z M546.2,387.6
			c0-35-28.1-63-63-63.5c-35.1-0.5-64.2,28.9-63.9,63.5c0.4,35,28.3,63.2,63.1,63.3C517.5,451,546.2,422.5,546.2,387.6z M609.9,451
			c-35.4,0-63.7,28.3-63.7,63.8c0,34.7,28.5,62.7,63.5,63c34.7,0.3,63.5-29.3,63.4-63.6C673,479.3,643.6,450.7,609.9,451z
			 M244.9,419.1c0,8.8,7,16.1,15.5,16.1c8.4,0.1,15.7-7.3,15.7-16c0-8.7-6.6-15.5-15.3-15.7C252.1,403.2,244.9,410.2,244.9,419.1z
			 M276.1,482.8c0-8.7-7.1-16-15.6-16c-8.5,0-15.6,7.3-15.6,16.1c0,8.7,6.7,15.5,15.4,15.7C268.8,498.7,276,491.6,276.1,482.8z
			 M260.5,530.7c-9.1,0-15.7,6.6-15.6,15.8c0.1,8.7,6.7,15.4,15.5,15.4c9,0,15.7-6.8,15.6-15.8C276,537.2,269.4,530.7,260.5,530.7z
			 M260.1,371.2c9.1,0.1,15.9-6.5,15.9-15.5c0-8.8-6.5-15.5-15.2-15.7c-9.2-0.1-15.9,6.4-15.9,15.5
			C244.8,364.5,251.3,371.2,260.1,371.2z"/>
		<path id="XMLID_74_" d="M672.9,341.1c0.2,4.4-2.8,8.3-6.4,11.9c-17.1,17.1-34.2,34.2-51.3,51.3c-55.5,55.5-111,111-166.4,166.5
			c-4.8,4.8-9.9,7.7-16.9,6.5c-11.1-2-16.4-15.6-9.5-24.5c1.5-2,3.3-3.7,5.1-5.5C499.3,475.5,571,403.8,642.7,332
			c4.8-4.8,9.6-8.7,17-7.5C667.8,325.8,673,331.9,672.9,341.1z"/>
		<path id="XMLID_71_" d="M546.2,387.6c0,34.9-28.7,63.4-63.7,63.3c-34.9-0.1-62.8-28.4-63.1-63.3c-0.4-34.7,28.8-64.1,63.9-63.5
			C518.1,324.7,546.2,352.6,546.2,387.6z M482.9,355.8c-17.5,0-31.8,14.2-31.8,31.6c0,17.3,14.5,31.9,31.8,31.8
			c17,0,31.6-14.5,31.8-31.5C514.8,370.7,500,355.8,482.9,355.8z"/>
		<path id="XMLID_68_" d="M609.9,451c33.7-0.4,63.1,28.3,63.2,63.3c0.1,34.3-28.7,63.9-63.4,63.6c-35-0.3-63.4-28.2-63.5-63
			C546.2,479.4,574.5,451.1,609.9,451z M641.4,514.4c0-17.2-14.6-31.8-31.8-31.8c-17.2,0-31.8,14.7-31.8,31.9
			c0,17.2,14.7,31.7,32,31.6C627.2,546.2,641.5,531.8,641.4,514.4z"/>
		<path id="XMLID_67_" d="M244.9,419.1c0-8.8,7.2-15.8,15.9-15.6c8.6,0.2,15.3,7.1,15.3,15.7c0,8.7-7.2,16-15.7,16
			C251.9,435.1,244.8,427.8,244.9,419.1z"/>
		<path id="XMLID_66_" d="M276.1,482.8c0,8.8-7.2,16-15.8,15.8c-8.6-0.2-15.3-7-15.4-15.7c0-8.7,7-16,15.6-16.1
			C268.9,466.7,276.1,474,276.1,482.8z"/>
		<path id="XMLID_65_" d="M260.5,530.7c8.9,0,15.5,6.5,15.5,15.3c0.1,9-6.6,15.8-15.6,15.8c-8.8,0-15.5-6.6-15.5-15.4
			C244.8,537.3,251.4,530.7,260.5,530.7z"/>
		<path id="XMLID_64_" d="M260.1,371.2c-8.8-0.1-15.3-6.8-15.2-15.6c0-9.1,6.8-15.6,15.9-15.5c8.7,0.1,15.3,6.8,15.2,15.7
			C276,364.8,269.3,371.3,260.1,371.2z"/>
		<path id="XMLID_63_" class="st0" d="M482.9,355.8c17.2,0,31.9,14.9,31.7,32c-0.2,17-14.8,31.5-31.8,31.5
			c-17.3,0-31.8-14.6-31.8-31.8C451.1,370,465.4,355.8,482.9,355.8z"/>
		<path id="XMLID_62_" class="st0" d="M641.4,514.4c0,17.4-14.3,31.8-31.6,31.8c-17.3,0-31.9-14.5-32-31.6
			c0-17.3,14.5-31.9,31.8-31.9C626.8,482.6,641.4,497.2,641.4,514.4z"/>
	</g>
</g>
</svg>
