<?xml version="1.0" encoding="utf-8"?>
<!-- Generator: Adobe Illustrator 19.0.0, SVG Export Plug-In . SVG Version: 6.00 Build 0)  -->
<svg version="1.1" id="Layer_1" xmlns="http://www.w3.org/2000/svg" xmlns:xlink="http://www.w3.org/1999/xlink" x="0px" y="0px"
	 viewBox="180 -180.4 460.4 460.4" style="enable-background:new 180 -180.4 460.4 460.4;" xml:space="preserve">
<style type="text/css">
	.st0{fill:#E20513;}
</style>
<g>
	<g>
		<circle class="st0" cx="405.1" cy="-139.1" r="38.4"/>
		<path class="st0" d="M577.1,150.4c-7.4,0-14.5,1.3-21,3.6l-3.1-9.3c6.1-1.9,12.5-2.9,19.2-3c8.1-0.1,15.1-6.2,15.6-14.2
			c0.5-8.8-6.5-16.2-15.2-16.2c-10.2,0-20.1,1.6-29.3,4.5l-20.7-61.5h9.3c3.7,8,10.9,14,19.7,16c3.3,0.8,6.5-1.8,6.5-5.2V19.3
			c0-3.4-3.2-6-6.5-5.2c-8.8,2-16,8-19.7,16h-4.5c-2.8,3.6-6.2,6.5-10.1,8.8c-9.9,5.7-18.4,4.7-24.3,4.3c1.4,4.2,9.8,29,11.6,34.4
			c-1.7,1.6,3.6-6.3-68.4,106.9h-0.7c-2.6,8.6-6.3,15.5-14.3,21.5c-1.5,1.1-3,2-4.6,2.9h19.8c8.2,0,15.8-4.2,20.2-11.1l57.9-90.9
			l6.6,19.6c-27,17.1-45.1,47.1-45.2,81.4c0,8.3,6.4,15.4,14.7,15.7c8.6,0.3,15.7-6.6,15.7-15.2c0-20.9,9.8-39.6,25-51.8l3.5,10.4
			c-13.4,12.2-21.6,30-20.8,49.6c1.4,32.5,27.7,59,60.2,60.5c36.3,1.7,66.3-27.3,66.3-63.2C640.4,178.8,612,150.4,577.1,150.4z
			 M577.1,236.5c-12.5,0-22.8-10.2-22.8-22.8s10.2-22.8,22.8-22.8c12.5,0,22.8,10.2,22.8,22.8C599.9,226.3,589.7,236.5,577.1,236.5z
			"/>
		<path class="st0" d="M449.4,79.3c3.1-10.4-2.3-21.5-12.5-25.4l-23.6-9.1l1.4-7c-7.1-2.4-12.5-8.3-14.2-15.6l-13.6-57.8l28.6,49
			c2.9,5,8.2,8.3,14,8.6l69.3,4c9.6,0.6,17.8-6.8,18.4-16.3c0.6-9.6-6.8-17.8-16.3-18.4l-60-3.5l-23.9-41l13.6,12.5l1.6-8.1
			c2.8-14-6.3-27.7-20.3-30.5l-45.3-9.1c-14-2.8-27.7,6.3-30.5,20.3L321.4,4.3v-69.6c0-4.8-3.9-8.8-8.8-8.8H212.6
			c-4.8,0-8.8,3.9-8.8,8.8V62.4h-6.1c-9.8,0-17.7,7.9-17.7,17.7c0,9.8,7.9,17.7,17.7,17.7h73v27c-29.8,11.3-52.2,37.7-57.9,69.8
			c-1.3,7.3,4.3,13.9,11.7,13.9h15.5c-0.1,1.7-0.2,3.4-0.2,5.1c0,34.9,28.4,63.3,63.3,63.3c34.9,0,63.3-28.4,63.3-63.3
			c0-1.7-0.1-3.4-0.2-5h15c-15.5-8.2-23.5-26.6-18.3-43.9l20-67h17.4l-21.4,71.8c-3.3,11,3,22.7,14,26c11,3.3,22.7-3,26-14
			L449.4,79.3z M303.2,236.5c-12.5,0-22.8-10.2-22.8-22.8c0-1.8,0.2-3.5,0.6-5.1h44.3c0.4,1.6,0.6,3.3,0.6,5.1
			C325.9,226.3,315.7,236.5,303.2,236.5z M321.4,62.4V45.2c2.9,6.7,7.5,12.6,13.2,17.2H321.4z"/>
	</g>
</g>
</svg>
