<?xml version="1.0" encoding="iso-8859-1"?>
<!-- Generator: Adobe Illustrator 19.0.0, SVG Export Plug-In . SVG Version: 6.00 Build 0)  -->
<svg version="1.1" id="Capa_1" xmlns="http://www.w3.org/2000/svg" xmlns:xlink="http://www.w3.org/1999/xlink" x="0px" y="0px"
	 viewBox="0 0 512 512" style="enable-background:new 0 0 512 512;" xml:space="preserve">
<g>
	<g>
		<g fill="#fff">
			<polygon points="398.677,298.667 370.236,384 394.923,384 423.364,298.667 			"/>
			<polygon points="460.8,162.133 290.133,162.133 213.333,162.133 51.2,162.133 51.2,196.267 460.8,196.267 			"/>
			<polygon points="441.344,298.667 412.902,384 443.742,384 443.733,298.667 			"/>
			<rect x="221.867" y="298.667" width="68.267" height="85.333"/>
			<polygon points="125.611,298.667 97.169,384 121.856,384 150.298,298.667 			"/>
			<polygon points="68.267,298.667 68.267,384 79.189,384 107.631,298.667 			"/>
			<polygon points="341.333,298.667 341.333,384 352.256,384 380.698,298.667 			"/>
			<path d="M25.6,247.467h469.274l-29.448-34.133H46.575L16.99,247.586h8.038C25.233,247.569,25.395,247.467,25.6,247.467z"/>
			<polygon points="168.277,298.667 139.836,384 170.675,384 170.667,298.667 			"/>
			<path d="M503.467,486.4h-25.6V264.533H34.133V486.4h-25.6C3.82,486.4,0,490.221,0,494.933s3.82,8.533,8.533,8.533h494.933
				c4.713,0,8.533-3.82,8.533-8.533S508.18,486.4,503.467,486.4z M170.667,435.2h-102.4c-4.713,0-8.533-3.82-8.533-8.533
				s3.82-8.533,8.533-8.533h102.4c4.713,0,8.533,3.82,8.533,8.533S175.38,435.2,170.667,435.2z M187.733,384
				c0,9.426-7.641,17.067-17.067,17.067h-102.4c-9.426,0-17.067-7.641-17.067-17.067v-85.333c0-9.426,7.641-17.067,17.067-17.067
				h102.4c9.426,0,17.067,7.641,17.067,17.067V384z M307.2,486.4h-17.067v-85.333h-68.267V486.4H204.8V298.667
				c0-9.426,7.641-17.067,17.067-17.067h68.267c9.426,0,17.067,7.641,17.067,17.067V486.4z M443.733,435.2h-102.4
				c-4.713,0-8.533-3.82-8.533-8.533s3.821-8.533,8.533-8.533h102.4c4.713,0,8.533,3.82,8.533,8.533S448.446,435.2,443.733,435.2z
				 M460.8,384c0,9.426-7.641,17.067-17.067,17.067h-102.4c-9.426,0-17.067-7.641-17.067-17.067v-85.333
				c0-9.426,7.641-17.067,17.067-17.067h102.4c9.426,0,17.067,7.641,17.067,17.067V384z"/>
			<path d="M221.867,153.6v-51.2c0-0.205-0.102-0.375-0.12-0.58c-0.013-0.162-0.013-0.324,0-0.486
				c-0.081-0.318-0.181-0.632-0.299-0.939c-0.117-0.587-0.297-1.159-0.538-1.707c-0.255-0.477-0.558-0.925-0.905-1.34
				c-0.28-0.413-0.594-0.801-0.939-1.161c-0.111-0.102-0.154-0.239-0.265-0.333c-9.464-9.585-14.534-22.662-14.003-36.122
				c-0.423-13.386,4.584-26.373,13.884-36.011c3.663-3.021,4.204-8.431,1.212-12.117c-1.445-1.755-3.531-2.861-5.794-3.072
				c-0.256,0-0.529,0-0.785,0c-1.99-0.004-3.918,0.694-5.444,1.971c-13.48,12.75-20.818,30.687-20.139,49.229
				c-0.469,17.027,5.644,33.58,17.067,46.217v47.65c0,4.713,3.821,8.533,8.533,8.533C218.046,162.133,221.867,158.313,221.867,153.6
				z"/>
			<path d="M298.667,153.6V70.366l22.886-7.68c1.35-0.349,2.3-1.558,2.321-2.953c0.018-1.327-0.84-2.508-2.108-2.901l-85.393-28.749
				c-1.508,3.218-3.677,6.082-6.366,8.405c-5.633,6.395-8.553,14.733-8.141,23.245c-0.395,8.53,2.539,16.88,8.183,23.287
				c2.68,2.272,4.835,5.099,6.315,8.286L281.6,76.109V153.6c0,4.713,3.82,8.533,8.533,8.533S298.667,158.313,298.667,153.6z"/>
		</g>
	</g>
</g>
<g>
</g>
<g>
</g>
<g>
</g>
<g>
</g>
<g>
</g>
<g>
</g>
<g>
</g>
<g>
</g>
<g>
</g>
<g>
</g>
<g>
</g>
<g>
</g>
<g>
</g>
<g>
</g>
<g>
</g>
</svg>
