<?xml version="1.0" encoding="utf-8"?>
<!-- Generator: Adobe Illustrator 19.0.0, SVG Export Plug-In . SVG Version: 6.00 Build 0)  -->
<svg version="1.1" id="Layer_1" xmlns="http://www.w3.org/2000/svg" xmlns:xlink="http://www.w3.org/1999/xlink" x="0px" y="0px"
	 viewBox="0 0 19.7 20" style="enable-background:new 0 0 19.7 20;" xml:space="preserve" fill="#e20513">
<path d="M19.8,9.8c0,0.1,0,0.2,0,0.3c0,0-0.1,0-0.1,0c-1.8,0.9-3.7,1.8-5.5,2.7c-2.4,1.1-4.7,2.3-7.1,3.4c-1.7,0.8-3.4,1.6-5,2.4
	c-0.8,0.4-1.5,0.7-2.3,1.1c0-6.6,0-13.1,0-19.7c0,0,0.1,0,0.1,0c2.2,1.1,4.4,2.1,6.6,3.2c4.2,2.1,8.5,4.1,12.7,6.2
	C19.4,9.7,19.6,9.7,19.8,9.8z"/>
</svg>
