<?xml version="1.0" encoding="utf-8"?>
<!-- Generator: Adobe Illustrator 19.0.0, SVG Export Plug-In . SVG Version: 6.00 Build 0)  -->
<svg version="1.1" id="Layer_1" xmlns="http://www.w3.org/2000/svg" xmlns:xlink="http://www.w3.org/1999/xlink" x="0px" y="0px"
	 viewBox="0 0 1534 494.1" style="enable-background:new 0 0 1534 494.1;" xml:space="preserve">
<style type="text/css">
	.st0{fill:#E30613;}
	.st1{fill:#FFFFFF;}
</style>
<path class="st0" d="M1360.6,57.4H1105c-24.7,0-39.9,20.8-44.8,44.8l-4,17.8c0,0-15.1,89.9-86,89.9l-897.6,0.2c-8.3,0-15,6.7-15,15
	c0,8.3,6.7,15,15,15l897.6,0.2c70.8,0,86,89.9,86,89.9l4,17.8c4.9,24.1,20.2,44.8,44.8,44.8h255.6c24.7,0,44.8-20.2,44.8-44.8V236.6
	v-23.1V102.2C1405.4,77.6,1385.3,57.4,1360.6,57.4"/>
<path class="st1" d="M1189,359c-3.8,1.2-7,2.9-9.7,5.1c-3.5-2.6-7.5-4.3-11.8-5.2c1.2-1.1,1.8-2.8,1.8-5.1v-15.7
	c1.6-0.4,3.5-1.2,6-2.5l-8.3-5.4V324l20,12.7c0.6-1,1.5-1.7,2.6-2.2c-0.3,0.9-0.5,1.8-0.5,2.8V359z M1182.8,340.4l-5.2-3.5l-2.2,1.3
	v17.9l7.4,2.6V340.4z"/>
<path class="st1" d="M1210.5,363.8c-2.8-1.5-4.2-3.9-4.2-7.1l-8.9,7.2h-0.3c-3.1-2.9-4.7-5.7-4.7-8.4c0-4.1,2.2-8,6.5-11.9l-3.2-8.2
	l0.9,0.1c2.4,0.2,4.7-0.7,6.8-2.6l9.3,3.1l1.8-1.4l0.1,0.3c-1.1,1.6-1.8,3.3-2.2,5.1v17.2c0.3,1.1,1,1.8,1.8,2l1.2-0.6l0.7,0.6
	L1210.5,363.8z M1206.3,339.5l-9.5-3.5l2.8,7.5l6.8,3.3V339.5z M1206.4,347.9l-6.8-3.4c-1.2,2.2-1.9,4.4-1.9,6.4
	c0,3,1.2,5.7,3.8,8.3l4.9-4.2V347.9z"/>
<path class="st1" d="M1227.8,363.8c-2.1-1.8-5.2-3.5-9.3-5c1.1-1.2,1.7-2.8,1.7-4.7v-26.2c0-1.3-0.7-2.7-2.2-4.2
	c1.6,0.4,3.1,1.1,4.3,2.1l0.7-0.1c2-1.9,4.3-3,6.8-3.4c-2.2,1.6-3.2,3.5-3.2,6V356l4.8,3l1.6-1.2l0.8,0.9L1227.8,363.8z"/>
<path class="st1" d="M1256.9,363.8l-6.7-5.1c1.2-1,1.8-2,1.8-3.1V333c0-1.8-0.9-3.5-2.7-5l-2.5,2l-0.7-0.9l7-6c1.5,1.2,2.5,2,3,2.6
	c1.2,1.4,1.8,3.4,1.8,5.8v25.2l2.7,2.1l2.5-2.2l0.8,0.8L1256.9,363.8z"/>
<path class="st1" d="M1277.1,363.9l-10.2-5.1l3.9-4.8l9.6,4.8c1.9-2,3.2-4.3,4-6.8c1-3.1,1.4-5.8,1.2-8.3l-0.1-1.7l-12.7,8.7
	c-5.1-2.4-7.6-5.9-7.6-10.7c0-3.8,1.7-7.5,5.1-11c1.6-1.6,4.1-3.6,7.4-5.9c9.1,3,13.6,8.9,13.6,17.7v0.3
	C1291.1,349.5,1286.4,357.1,1277.1,363.9 M1273.5,328.4c-2.7,1.8-4.1,4.3-4.1,7.4c0,2.1,0.7,4.1,2.2,6.2c1.5,2.2,3.4,3.3,5.4,3.3
	c0.7,0,1.4-0.2,2.1-0.7l6.2-4.2C1283.4,333.4,1280.3,330.1,1273.5,328.4"/>
<path class="st1" d="M1304.5,363.9l-10.2-5.1l3.9-4.8l9.6,4.8c1.9-2,3.2-4.3,4-6.8c1-3.1,1.4-5.8,1.2-8.3l-0.1-1.7l-12.7,8.7
	c-5.1-2.4-7.6-5.9-7.6-10.7c0-3.8,1.7-7.5,5.1-11c1.6-1.6,4.1-3.6,7.4-5.9c9.1,3,13.6,8.9,13.6,17.7v0.3
	C1318.6,349.5,1313.9,357.1,1304.5,363.9 M1301,328.4c-2.7,1.8-4.1,4.3-4.1,7.4c0,2.1,0.7,4.1,2.2,6.2c1.5,2.2,3.4,3.3,5.4,3.3
	c0.7,0,1.4-0.2,2.1-0.7l6.2-4.2C1310.9,333.4,1307.8,330.1,1301,328.4"/>
<path class="st1" d="M1345.4,350.7c-0.3,3.5-1.8,6.4-4.7,8.9c-2.3,2-5.4,3.4-9.2,4.2l-11.4-6.8l3.7-4.2l13.1,7.8c3-3,4.4-6,4.4-9.2
	c0-2.7-1.1-5.1-3.1-7.1c-1.8-1.8-4-3.2-6.8-4.1l-8.9,5.9l3.4-22.1h17.2l-1.8,5.7h-14.8l-1.9,13.3l11.3-7.6c2.9,1.1,5.2,2.8,7,5.1
	c1.9,2.6,2.8,5.3,2.6,7.9L1345.4,350.7z"/>
<path class="st1" d="M557.5,182.5c-8.3-3.4-16.5-6-24.5-7.4l0.4,59l-31.5-21.8l-0.2-39.1c-9.2,0-19.8,2.4-31.7,7.1l-1.1-1.4
	c7.1-10.3,17.8-18,32.5-22.5c-1.3-8.9-4.5-16.5-9.6-22.7c-4.4-5.3-10.9-10.5-19.6-15.4l29.6-20.5l0.2-9.1c0.2-8.2-2.2-13.2-7.1-15.6
	c-2.4-0.9-4.7-1.5-7.4-1.5c-3.6,0-7.6,0.7-11.8,2v-2.4c7.4-6,15-9.1,23-9.1c12.5,0,20.1,8.3,21.4,21.2l8.9-5.3V61.8h4.2v13.4
	L552.4,62c11.8,7.8,20.1,15.1,25,21.8c4.2,5.8,6.3,14.7,6.3,26.7V161L557.5,182.5z M501.4,101.8l-14.1,9.1l14.1,11.6V101.8z
	 M528.8,82.3l-8,4.7v122.6l8,7.3V82.3z M555.7,86.4c-5.4-6-12.1-8.9-19.9-8.9l-2.9,2.2v27c3.8,4.5,9.1,6.7,15.4,6.7
	c6.3,0,11.6-2.2,15.8-6.3C564,99.1,561.3,92.2,555.7,86.4 M547.7,134.1c-5.3,0-10.2,1.5-14.9,4.5v16.1c8.5,2,13.8,3.3,15.4,3.8
	c5.1,1.5,10.3,3.3,15.6,5.6l0.2-24.5C558.9,135.9,553.5,134.1,547.7,134.1 M563.8,112.2c-5.3,2.7-10.7,4.2-16,4.2
	c-5.3,0-10.3-1.4-14.9-4.2V135c4.5-2.5,9.4-3.8,14.3-3.8c5.3,0,10.9,1.3,16.5,3.8V112.2z"/>
<path class="st1" d="M607.5,181.6c-8.2-4.4-12-10.5-11.4-18.3l0.2-3.3v-47.3l-5.3-5.6L604.4,96l14,11.6l-4.5,5.1v50.2
	c0.5,2.4,2.2,4.4,5.1,5.8l3.3-2.2l1.8,1.6L607.5,181.6z M603.9,87.9h-2.4l4.4-18.5h13.4L603.9,87.9z"/>
<path class="st1" d="M663.7,171.8c-1.3,0.7-8.2,4.7-21,11.8c-4,2.4-6,5.6-6,9.8c0,3.4,2,5.8,5.8,6.9c1.5,0,5.4-1.1,6.9-1.1
	c1.8,0,2.7,0.7,2.7,2c0,1.3-1.6,2.5-4.7,3.4c-7.1,0-12.3-5.3-12.3-12.3c0-3.8,1.3-7.3,3.8-10l8.7-7.1c3.8-3.3,6.5-6,7.8-8
	c1.8-2.7,2.7-5.8,2.7-9.2c0-8.9-5.4-13.1-14.9-13.1c-3.6,0-7.6,0.5-11.8,1.4l25.4-24.8l-15.4-14.5l-10,6.5l-1.6-2.5l22.3-15
	c2,2,5.1,4.7,9.2,8.3c4.2,3.4,8,5.6,11.6,6.2l-22.1,22.1c6.7,0,12.1,1.6,16.7,4.7c5.1,3.6,7.6,8.7,7.6,15
	C675.1,160.6,671.3,166.9,663.7,171.8"/>
<path class="st1" d="M714.7,171.8c-1.3,0.7-8.2,4.7-21,11.8c-4,2.4-6,5.6-6,9.8c0,3.4,2,5.8,5.8,6.9c1.5,0,5.4-1.1,6.9-1.1
	c1.8,0,2.7,0.7,2.7,2c0,1.3-1.6,2.5-4.7,3.4c-7.1,0-12.3-5.3-12.3-12.3c0-3.8,1.3-7.3,3.8-10l8.7-7.1c3.8-3.3,6.5-6,7.8-8
	c1.8-2.7,2.7-5.8,2.7-9.2c0-8.9-5.4-13.1-14.9-13.1c-3.6,0-7.6,0.5-11.8,1.4l25.4-24.8l-15.4-14.5l-10,6.5l-1.6-2.5l22.3-15
	c2,2,5.1,4.7,9.2,8.3c4.2,3.4,8,5.6,11.6,6.2l-22.1,22.1c6.7,0,12.1,1.6,16.7,4.7c5.1,3.6,7.6,8.7,7.6,15
	C726.1,160.6,722.3,166.9,714.7,171.8"/>
<path class="st1" d="M754,143.2V162l15.2,6.7l12-7.6l2,2.2c-3.1,2-6.3,4.2-10,6.7l-15.8,11.1c-8-4.4-16.3-7.4-25-9.1
	c3.4-3.6,5.1-8,5.1-13.2v-48.4c8.3-3.8,16.5-8.7,24.5-14.3l23.4,23.4C772.1,128.7,761.8,136.5,754,143.2 M753.8,107.8V139l17.2-13.6
	L753.8,107.8z"/>
<path class="st1" d="M836,119.4l-10.9-10.7l-7.1,5.4v47l9.8,7.6l5.3-3.8l2.2,2.2l-16.5,14.1c-6.9-6-14.7-10.5-23.2-13.8
	c3.3-2.7,4.9-7.1,4.9-13.1V118c0-3.1-1.4-6-4.4-8.3l-3.1,2l-2-2L806.4,96c3.8,2,6.3,3.8,7.8,5.4c1.8,2,3.1,4.9,3.6,8.7l18.3-14
	l11.8,12.9L836,119.4z"/>
<path class="st1" d="M867,181.6c-8.2-4.4-12-10.5-11.4-18.3l0.2-3.3v-47.3l-5.3-5.6L863.9,96l14,11.6l-4.5,5.1v50.2
	c0.5,2.4,2.2,4.4,5.1,5.8l3.3-2.2l1.8,1.6L867,181.6z M863.3,87.9H861l4.4-18.5h13.4L863.3,87.9z"/>
<path class="st1" d="M939.9,181.3c-7.8-4.2-11.6-10.7-11.6-19.6l-24.7,19.8h-0.9c-8.5-8-12.9-15.8-12.9-23.2
	c0-11.2,6-22.1,17.9-32.8l-8.7-22.7l2.4,0.2c6.7,0.5,13.1-1.8,18.7-7.1l25.7,8.5l5.1-4l0.4,0.7c-2.9,4.5-4.9,9.1-6.2,14v47.5
	c0.9,3.1,2.7,4.9,5.1,5.6l3.3-1.6l2,1.6L939.9,181.3z M928.2,114.2l-26.3-9.8l7.6,20.7l18.7,9.1V114.2z M928.4,137.4l-18.9-9.4
	c-3.4,6.2-5.3,12.1-5.3,17.8c0,8.2,3.4,15.8,10.5,22.8l13.6-11.6V137.4z"/>
<path class="st1" d="M599,240.1c-4.9,1.6-9,3.7-12.4,6.5c-4.5-3.3-9.6-5.4-15.1-6.6c1.6-1.4,2.3-3.5,2.3-6.5v-20
	c2-0.5,4.5-1.6,7.6-3.2l-10.6-6.9v-8l25.5,16.3c0.8-1.3,1.9-2.2,3.4-2.8c-0.4,1.2-0.7,2.3-0.7,3.6V240.1z M591.1,216.5l-6.6-4.4
	l-2.8,1.7v22.9l9.4,3.4V216.5z"/>
<path class="st1" d="M626.4,246.3c-3.6-1.9-5.4-4.9-5.4-9l-11.4,9.1h-0.4c-3.9-3.7-5.9-7.3-5.9-10.7c0-5.2,2.8-10.2,8.3-15.2
	l-4-10.5l1.1,0.1c3.1,0.3,6-0.8,8.6-3.3l11.9,3.9l2.3-1.8l0.2,0.3c-1.3,2.1-2.3,4.2-2.8,6.5v22c0.4,1.4,1.3,2.3,2.3,2.6l1.5-0.8
	l0.9,0.8L626.4,246.3z M621.1,215.3l-12.1-4.5l3.5,9.6l8.6,4.2V215.3z M621.2,226l-8.7-4.4c-1.6,2.8-2.4,5.6-2.4,8.2
	c0,3.8,1.6,7.3,4.9,10.6l6.3-5.4V226z"/>
<path class="st1" d="M456.5,391.4c-9.7-6-16-15.7-19.1-29.1l-38.3,28.6l-37.2-19.7c-4.5-2.4-8.1-3.7-11-3.7c-3.9,0-7.3,3.4-7.3,7.6
	c0,2.1,2.6,7.9,2.6,10.2c0,3.7-2.1,5.5-6.3,5.5c-3.9,0-5.8-2.4-5.8-6.8c0-5.5,3.1-12.6,9.2-21.8l23.3-34.6
	c-17.3-16-26.5-31.2-27.8-45.6l-0.5-5.8c0-15,6-28.6,18.1-40.9c12.1-12.3,27.3-18.4,45.4-18.4c18.4,0,35.9,5.8,52.7,17.3
	c8.7-10,18.4-16.3,29.6-18.9l0.5,0.5c-7.1,6.6-11.8,12.3-14.7,16.8c-3.9,6.6-6,13.6-5.8,21.5l2.1,88.9c0.3,12.3,2.9,21,7.9,25.7
	l8.4-6.3l3.9,4.2L456.5,391.4z M395.2,237.5c-13.4,0-24.7,3.9-33.8,12.1c-9.7,8.4-14.7,19.1-14.7,32.3c0,15.2,7.6,28.9,23.1,41.2
	l34.9-51.1c-2.6-4.2-6.6-6.3-11.5-6.3l-4.2,0.5c-6.6,0.8-11.8,4.7-15.7,11.3c0-8.1,2.9-14.7,8.7-19.4c5.2-4.2,12.1-6.3,20.7-6.3
	c5.5,0,10.5,0.5,15,1.6l6.3-9.4C413.8,239.6,404.3,237.5,395.2,237.5 M437.6,332.4h-65.8l-9.7,14.2l53.5,24.7l22-17.8V332.4z
	 M436.6,256.4l-5.2-7.6h-2.1l-44.3,65.3h51.7V256.4z"/>
<path class="st1" d="M585.6,369.7c-15.2,5-28.1,11.5-38.8,20.2c-14.2-10.2-29.9-17-47.2-20.7c5-4.5,7.3-11,7.3-20.2v-62.7
	c6.3-1.6,14.2-5,23.9-10l-33.3-21.5v-24.9l79.7,50.9c2.4-3.9,6-6.8,10.5-8.7c-1.3,3.7-2.1,7.3-2.1,11.3V369.7z M560.7,295.7
	l-20.7-13.9l-8.7,5.2v71.6l29.4,10.5V295.7z"/>
<path class="st1" d="M663.5,299.6l-15.7-15.5l-10.2,7.9V360l14.2,11l7.6-5.5l3.1,3.1l-23.9,20.5c-10-8.7-21.2-15.2-33.6-19.9
	c4.7-3.9,7.1-10.2,7.1-18.9v-52.7c0-4.5-2.1-8.7-6.3-12.1l-4.5,2.9l-2.9-2.9l22.3-19.7c5.5,2.9,9.2,5.5,11.3,7.9
	c2.6,2.9,4.5,7.1,5.2,12.6l26.5-20.2l17.1,18.6L663.5,299.6z"/>
<path class="st1" d="M708.3,389.6c-11.8-6.3-17.3-15.2-16.5-26.5l0.3-4.7v-68.5l-7.6-8.1l19.4-16l20.2,16.8l-6.6,7.3v72.7
	c0.8,3.4,3.1,6.3,7.3,8.4l4.7-3.1l2.6,2.4L708.3,389.6z M703.1,254h-3.4l6.3-26.8h19.4L703.1,254z"/>
<path class="st1" d="M813.8,389.1c-11.3-6-16.8-15.5-16.8-28.3l-35.7,28.6H760c-12.3-11.5-18.6-22.8-18.6-33.6
	c0-16.3,8.7-32,26-47.5l-12.6-32.8l3.4,0.3c9.7,0.8,18.9-2.6,27-10.2l37.2,12.3l7.3-5.8l0.5,1c-4.2,6.6-7.1,13.1-8.9,20.2v68.7
	c1.3,4.5,3.9,7.1,7.3,8.1l4.7-2.4l2.9,2.4L813.8,389.1z M797,292l-38-14.2l11,29.9l27,13.1V292z M797.3,325.6L770,312
	c-5,8.9-7.6,17.6-7.6,25.7c0,11.8,5,22.8,15.2,33.1l19.7-16.8V325.6z"/>
<path class="st1" d="M928.4,389.9c-12.6-8.1-16-15.7-16-31.5v-62.7l-11.8-10.2L882,299.1v65l7.1,8.9l-18.9,16.8l-19.9-16.8l7.3-8.1
	v-67.4c0-4.5-2.1-8.7-6.3-12.1l-4.2,2.9l-2.6-2.9l21.5-19.7c11,6.6,16.5,15.7,16.5,27.5c14.7-10.8,26-19.9,33.6-27l18.1,16.8
	l11.3-8.9l2.6,2.9c-3.9,5-7.9,10.5-11.5,16.5v69c1.3,3.1,3.9,6,7.3,8.4l5.5-3.1l2.6,2.6L928.4,389.9z"/>
<path class="st1" d="M1008.2,389.9c-13.9-10.2-29.6-17-47.2-20.7c4.7-3.9,7.1-10.5,7.1-20.2v-62.2c14.2-3.9,26.5-11,37.2-21
	c16.5,10.8,30.4,16.8,41.7,18.4v85.5C1031.2,374.4,1018.4,381.2,1008.2,389.9 M1022.3,297l-30.2-11.5v72.4c5.8,2.4,12.1,5,18.6,7.3
	c4.7,1.8,8.7,3.1,11.5,3.9V297z"/>
<path class="st1" d="M1092.6,260.5c-6.3,3.2-13.1,4.1-20.1,3.6c-1.4-0.1-1.7,0.4-1.7,1.7c-0.1,14.3-0.7,42.8-1.3,57.1
	c-0.2,4.4-0.5,8.7-0.7,13.2c-1.6-0.4-2.8-1.3-4-2.1c-12.9-8.2-41.4-13.8-56.5-15.7c-0.4-0.1-0.9-0.1-1.3-0.2
	c-0.3-0.1-0.6-0.4-0.5-0.7c0.1-0.6,0.5-0.7,1-0.7c2.3-0.2,4.5-0.4,6.8-0.5c10.2-0.3,34.5,2.5,44.3,5.8c1,0.4,1.7,0.6,1.6-1
	c-0.9-17.6-1.2-49.4-1.6-67c0.2-0.7-0.1-1.4,0.4-2c2,0,3.9,0,5.9-0.1c3.9,0,7.8,0,11.7-0.1c0.3,0,0.5,0.1,0.8,0.1
	c0.3,0.1,0.5,0,0.6-0.2l0.1,0c1.7,0.1,3.5-0.2,5.1-0.7c0.6,0.1,0.9-0.6,1.5-0.6c2.4-0.4,4.4-1.8,6.3-3.1c0.7-0.2,1.1-0.8,1.5-1.3
	c3.7-3.1,6.1-7,7.2-11.7c2.1-8.1,0.3-15.3-5.2-21.4c-5.3-5.9-12-8.3-19.9-7.6c-1.5,0.1-2.1-0.2-2.3-1.7c-0.3-2.3-1-4.6-1.9-6.7
	c-6.2-14.7-17.2-23.7-33.1-25.4c-16.4-1.8-29.6,4.5-39.3,18c-2.1,2.9-3.5,6.1-5,9.3c-0.5,1-0.9,1.2-1.9,0.7
	c-1.6-0.8-3.2-1.6-4.8-2.3c-9.9-4.5-19.5-3.9-28.6,2c-5.7,3.7-9.7,8.8-11.5,15.5c-1,2-1.1,4.3-1.4,6.5c-0.8,8.3,1.2,15.8,6.4,22.4
	c2.1,2.6,4.4,4.9,7.5,6.4c1.2,0.5,2.4,0.9,3.6,1.4c1.5,1.1,3.2,1.1,5,1.3l0.1,0c0.4,0.5,0.9,0.3,1.4,0.3c4.1,0,8.1-0.7,12-1.7
	c0.7,0.1,1.4,0,1.9-0.5l5.1-0.9c0.3-0.1,0.5-0.1,0.8-0.2c3.4-0.5,6.8-0.9,10.2-1.4c0.5,0.2,1,0.2,1.6,0c1.9-0.2,3.8,0.4,5.7-0.1
	l0.1,0c1.1,0.8,2.5,0.6,3.7,0.9c4.9,1.2,8.9,3.5,11.6,7.9c0.3,0.5,0.8,1.2,0.1,1.7c-0.6,0.4-1-0.3-1.4-0.7c-1.2-1.2-2.4-2.3-4-3
	c-0.3-0.1-0.5-0.2-0.8-0.3c-2-1-4.1-1.2-6.3-1.2l-2.4,0c-2.1,0.2-4.2,0.4-6.3,1c-2.2,0.5-4.5,0.9-6.5,1.9c-3.1,0.5-5.9,1.8-8.8,2.9
	c-4.2,1.2-8.2,2.9-12.5,3.6c-7.5,1.2-14.6,0.3-21.3-3.5c-0.4-0.2-0.8-0.3-1.3-0.3c-2.4-1.1-4.1-3-6-4.8c-3.7-3.5-6.8-7.5-8.9-12.1
	c-1.2-2.5-2.1-5.1-3.1-7.6c0-0.3,0-0.5,0-0.8c0-0.4,0-0.7-0.3-1c-0.3-2.4-0.7-4.8-0.9-7.1c-2-22.2,14.3-42.1,36.3-44.7
	c6.3-0.8,12.5-0.2,18.5,1.9c1.2,0.4,1.8,0.1,2.6-0.8c21.6-28.1,63.6-25.2,82.2,5c2.4,4,4.3,8.2,5.5,12.7c0.3,1.1,0.7,1.5,1.9,1.5
	c15-0.3,29.3,10.9,31.6,27.9c0,0.3,0,0.5,0.1,0.8l0,5c-0.6,7.2-3.3,13.6-8.2,19C1098.6,256.4,1095.7,258.6,1092.6,260.5"/>
<path class="st1" d="M1145.6,280.3c-1.8,1.1-3.2,1.6-4.2,1.5c-1-0.1-1.8-0.7-2.3-1.6c-0.5-0.9-0.9-2-1-3.4c-0.1-1.4-0.2-2.8-0.2-4.2
	c-0.7,1.1-1.5,2.1-2.2,3c-0.7,0.9-1.4,1.8-2.2,2.6c-0.4,0.5-0.9,1.1-1.7,1.9c-0.8,0.8-1.6,1.6-2.6,2.4c-1,0.8-2,1.6-3.1,2.2
	c-1.1,0.6-2.2,1.1-3.2,1.3c-0.9,0.2-1.7,0.2-2.6,0c-0.8-0.2-1.6-0.5-2.2-1c-1.2-1.1-2-2.5-2.4-4.2c-0.4-1.6-0.4-3.5-0.1-5.8
	c0.3-2.2,0.8-4.5,1.7-7c0.8-2.5,1.9-5,3.2-7.6c1.3-2.6,2.7-5.1,4.3-7.5c1.3-2,2.9-4.1,4.6-6.3c1.7-2.2,3.7-4.2,5.9-6
	c2.2-1.8,4.5-3.3,7-4.5c2.5-1.2,5.1-1.7,7.8-1.6c0.6-1.5,1.1-3,1.5-4.5c0.4-1.5,0.9-3.1,1.3-4.6c1.9-6.6,4.2-13.2,6.8-19.8
	c2.6-6.6,5.4-13,8.7-19.4c0.4-0.6,1-1.4,1.9-2.6c0.9-1.2,1.9-2.2,3-3.1c1.1-0.9,2.1-1.5,3-1.8c1-0.3,1.6,0.3,2,1.7
	c-0.1,1.9-0.7,4.5-1.8,7.9c-1.1,3.4-2.4,6.9-3.9,10.7c-1.5,3.8-3,7.5-4.5,11.2c-1.5,3.7-2.8,6.8-3.7,9.3c-1.9,5-3.8,9.9-5.7,14.8
	c-1.9,4.9-3.8,9.7-5.7,14.5l0-0.1l-1.6,4.4c-1,2.6-2.1,5.3-3.1,8c-1,2.8-1.8,5.5-2.4,8.3c-0.2,0.7-0.3,1.3-0.3,1.8
	c0.1,0.5,0.3,0.5,0.8-0.1l-0.1,0l16.7-17.6l2.3,7.3l-1.4,1.5c-1.1,1.2-2.4,2.7-4,4.4c-1.6,1.7-3.2,3.4-4.9,5.2
	c-1.7,1.7-3.4,3.3-5,4.8C1148.3,278.4,1146.9,279.5,1145.6,280.3 M1123.1,277.4c0.5,0.3,1.2,0.1,2.2-0.7c1-0.7,2.1-1.9,3.3-3.3
	c1.2-1.5,2.5-3.2,3.9-5.1c1.4-1.9,2.7-3.9,4.1-5.8c1.3-2,2.6-3.8,3.7-5.6c1.1-1.8,2-3.3,2.8-4.5l3.8-9.1c-0.3-1.5-2-1-5.1,1.4l0.1,0
	c-2.5,2.1-4.7,4.3-6.7,6.6c-2,2.3-4,4.9-5.9,7.6c-0.4,0.6-1,1.8-2,3.6c-1,1.8-1.9,3.8-2.8,5.9c-0.9,2.1-1.5,4-1.9,5.8
	C1122.2,275.8,1122.4,276.9,1123.1,277.4"/>
<path class="st1" d="M1168.3,266.4c0.7-0.6,1.5-1.3,2.5-2.3c1-1,2-2,3-3.2c1-1.1,2.1-2.3,3.2-3.4c1.1-1.2,2.1-2.3,3-3.3
	c0.7-0.8,1.6-1.8,2.7-2.9c1.1-1.1,1.9-1.9,2.3-2.4l2.3,7.3c-0.6,0.6-1.3,1.4-2.1,2.4c-0.8,1-1.6,1.9-2.5,2.9c-2,2.5-4.3,5.1-6.8,7.7
	c-2.5,2.7-4.7,4.7-6.7,6c-1.7,0.9-3.1,1.3-4.4,1.2c-1.3-0.2-2.3-0.7-3.2-1.6c-0.8-0.9-1.5-2.1-1.8-3.5c-0.4-1.4-0.5-2.9-0.4-4.5
	c0.2-3.2,0.8-6.6,1.8-10.1c1-3.5,2.2-7,3.5-10.4c1.3-3.4,2.7-6.6,4.1-9.5c1.4-3,2.6-5.5,3.7-7.6l10-2.2c-0.6,0.9-1.4,2.2-2.4,3.9
	c-1,1.8-2,3.8-3.1,6.1c-1.1,2.3-2.2,4.8-3.3,7.4c-1.1,2.6-2.1,5.2-3,7.8c-0.9,2.6-1.6,5-2.2,7.4c-0.6,2.3-0.9,4.3-1,6.1
	c-0.1,0.5,0,0.9,0.1,1.1C1167.7,266.8,1168,266.7,1168.3,266.4 M1175.6,213c-0.4-2-0.1-3.9,1-5.7c1.1-1.8,2.7-2.9,4.8-3.4
	c2-0.4,3.9-0.1,5.8,1.1c1.8,1.2,2.9,2.7,3.4,4.8c0.5,2.1,0.1,4-1,5.8c-1.2,1.8-2.8,2.9-4.8,3.3c-2.1,0.5-4,0.1-5.8-1
	C1177.1,216.7,1176,215.1,1175.6,213"/>
<path class="st1" d="M1284.2,135.8c0.5,2.5,0.8,4.7,0.7,6.6c-0.1,2-0.3,3.8-0.8,5.6c-0.5,1.8-1.1,3.6-1.9,5.3
	c-0.8,1.7-1.7,3.6-2.7,5.6l-1.4,2.6c-3.7,7.4-7.9,14.9-12.4,22.5c-4.6,7.6-9.1,15.1-13.5,22.4c-3.7,5.8-7.3,11.8-11,17.8
	c-3.6,6-7.2,12.2-10.5,18.4c-3.4,6.2-6.6,12.5-9.6,18.9c-3,6.3-5.7,12.8-8,19.3c-0.8,2.1-1.4,3.7-1.6,4.9c-0.2,1.2-0.3,2.1-0.1,2.8
	c0.1,0.3,0.3,0.4,0.6,0.4c0.3-0.1,0.7-0.2,1.1-0.4c0.4-0.2,0.8-0.5,1.2-0.8c0.4-0.3,0.8-0.6,1-0.8c5.5-4.4,11.5-8.4,17.9-12
	c6.4-3.6,13.1-6.9,20.2-9.8c7-2.9,14.3-5.5,21.8-7.7c7.5-2.2,15.2-4.2,23-6l-12.1,11.4c-6.3,1.3-12.6,3.1-18.9,5.2
	c-6.3,2.2-12.3,4.6-17.9,7.2c-5.7,2.6-10.8,5.4-15.5,8.2c-4.7,2.9-8.6,5.6-11.8,8.1c-1.3,1.1-2.7,2.2-4.3,3.2
	c-1.6,1-3.1,1.9-4.6,2.6c-1.5,0.7-3,1.1-4.3,1.3c-1.4,0.2-2.5,0-3.5-0.7c-1-0.6-1.7-1.8-2.1-3.4c-0.4-1.6-0.5-3.9,0-6.8
	c1.1-5.5,2.7-11,4.8-16.5c2.1-5.5,4.3-10.7,6.8-15.8c4.2-8.7,8.8-17.2,13.8-25.5c4.9-8.3,10-16.6,15.1-24.8
	c5.2-8.5,10.3-17,15.3-25.5c5-8.5,9.7-17.3,14-26.3c1.2-2.4,2.1-5,2.9-8c0.8-3,0.8-5.8,0.2-8.6c-0.1-0.4-0.2-0.8-0.4-1.2
	c-0.2-0.4-0.5-1-0.9-1.7c-0.4-0.7-0.9-1.6-1.6-2.6c-0.7-1.1-1.6-2.4-2.8-4.1L1284.2,135.8z"/>
<path class="st1" d="M1287.1,229.1c0.7-2.1,1.7-4.4,2.8-6.8c1.1-2.4,2.3-4.8,3.6-7.2c1.3-2.4,2.7-4.7,4.1-7c1.4-2.3,2.9-4.4,4.4-6.5
	c0.4-0.3,1.1-0.6,2.1-0.9c0.9-0.3,1.9-0.6,2.9-0.7c1-0.1,2-0.1,2.8,0c0.8,0.1,1.4,0.5,1.7,1.2c-1.8,1.9-3.5,4.2-5.3,7
	c-1.8,2.7-3.4,5.4-4.9,8.1c-1.5,2.7-2.8,5.2-4,7.4c-1.1,2.2-1.9,3.9-2.3,5l0-0.1c-0.9,2.3-1.6,4.6-2.3,6.9c-0.7,2.3-0.8,3.9-0.3,4.8
	c0.4,0.2,1.2-0.3,2.4-1.6c1.2-1.3,2.6-3.2,4.3-5.5c1.7-2.4,3.5-5,5.4-8c1.9-2.9,3.8-5.9,5.7-8.9c1.9-3,3.6-5.8,5.2-8.5
	c1.6-2.7,2.9-4.9,4-6.6l2.3-3.8l9-2c-1.7,3-3.2,5.6-4.6,7.9c-1.4,2.3-2.6,4.4-3.8,6.4c-1.1,2-2.2,3.8-3.2,5.5c-1,1.7-2,3.4-2.9,5
	c-0.5,1.2-1.2,2.7-2,4.6c-0.8,1.9-1.4,3.7-2,5.4c-0.6,1.7-0.9,3-1,4c-0.1,1,0.2,1,1,0.2l-0.1,0l16.7-17.6l2.3,7.3l-1.3,1.5
	c-1.1,1.2-2.4,2.7-4,4.4c-1.6,1.7-3.2,3.5-4.9,5.2c-1.7,1.7-3.4,3.3-5.1,4.8c-1.7,1.5-3.1,2.6-4.3,3.4c-2.3,1.4-4,1.8-5.1,1.2
	c-1.1-0.6-1.8-1.6-2.2-3.2c-0.1-0.4-0.2-0.8-0.2-1.3c-0.1-0.5-0.1-1,0-1.5c-0.8,0.9-1.6,1.9-2.5,2.9c-0.9,1-1.8,2-2.8,3
	s-2.1,1.8-3.2,2.5c-1.1,0.7-2.4,1.2-3.8,1.5c-0.9,0.2-1.7,0.2-2.6,0c-0.9-0.2-1.6-0.5-2.3-1c-0.5-0.5-1-1.2-1.4-1.9
	c-0.4-0.7-0.7-1.5-0.9-2.4c-0.4-1.8-0.4-3.9,0.1-6.3C1285.4,234.5,1286.1,231.9,1287.1,229.1"/>
<path class="st1" d="M1372.5,130.3c-2,4.7-4.2,9.6-6.4,14.8c-2.2,5.2-4.4,10.5-6.7,15.9c-2.3,5.4-4.5,10.8-6.8,16.3
	c-2.3,5.5-4.5,10.8-6.7,16.1c1.3-0.9,2.9-2,4.6-3.1c1.7-1.1,3.5-1.9,5.3-2.3c2.8-0.6,4.8-0.4,6.2,0.8c1.3,1.1,2.1,2.6,2.3,4.5
	c0.2,1.9-0.1,3.9-0.9,6c-0.8,2.1-2,3.9-3.4,5.4c-1.1,1.1-2.3,2.2-3.6,3.2c-1.2,1-2.4,1.9-3.4,2.8l-3.1,2.5c-0.3,0.2-0.7,0.6-1.3,1
	c-0.6,0.5-1.2,1-1.7,1.5c-0.6,0.5-1.1,1.1-1.4,1.7c-0.4,0.6-0.5,1.2-0.4,1.6c0.6,2,1.5,3.7,2.6,5.3c1.1,1.5,2.4,3.3,4,5.2l2.1,2.8
	l-5.5,6c-1-1-2.2-2.3-3.5-3.8c-1.3-1.5-2.5-3.2-3.7-4.9c-1.2-1.7-2.3-3.4-3.2-5.1c-0.9-1.7-1.6-3.2-2.1-4.5c0-0.1,0-0.1-0.1-0.1
	c0,0-0.1,0-0.1-0.1c-1.5,3.7-2.9,7.3-4.2,10.9c-1.4,3.6-2.6,6.9-3.8,10l-10.1,2.2c3.2-8.1,6.7-16.7,10.4-25.7
	c3.7-9,7.4-18.2,11.2-27.5c3.8-9.3,7.6-18.6,11.4-27.8c3.8-9.2,7.5-18,11.2-26.4L1372.5,130.3z M1338.6,212.2
	c0.9-0.8,1.8-1.7,2.9-2.5c1.1-0.8,2.2-1.6,3.4-2.5c1.7-1.3,3.5-2.6,5.4-4.1c1.8-1.5,3.5-3.1,5.1-4.8c0.4-0.6,0.4-0.9,0.1-1.1
	c-0.3-0.1-0.8,0-1.6,0.3c-1.1,0.7-2.4,1.7-3.8,2.8c-1.4,1.1-2.8,2.3-4.1,3.6c-1.4,1.3-2.7,2.6-3.9,3.9c-1.2,1.3-2.3,2.6-3.2,3.8
	L1338.6,212.2z"/>
<path class="st1" d="M1390.6,194c-0.8,1.6-2,3.4-3.6,5.4c-1.6,2-3.4,4-5.4,6c-2,2-4,4-6.2,5.9c-2.1,1.9-4.1,3.6-5.9,5.1
	c-0.4,1.8-0.6,3.3-0.5,4.5c0.1,1.2,0.5,2.1,1.1,2.7c0.6,0.6,1.5,0.7,2.6,0.5c1.1-0.2,2.5-1,4.2-2.4l0,0.1c1.6-1,3.2-2.3,4.9-3.8
	c1.7-1.5,3.5-3.2,5.2-4.9c1.8-1.8,3.5-3.6,5.3-5.5c1.8-1.9,3.4-3.7,5-5.5l3,6.4c-2.1,2.4-4.2,4.8-6.5,7.3c-2.2,2.5-4.5,4.8-6.8,6.9
	c-2.3,2.1-4.6,4-6.9,5.5c-2.3,1.5-4.7,2.6-7,3.1c-2.2,0.5-4,0.4-5.6-0.4c-1.5-0.7-2.8-1.8-3.7-3.2c-0.9-1.4-1.6-3.1-2-5.1
	c-0.4-2-0.5-4-0.3-6.1c0.3-2.3,1-5.2,2-8.5c1-3.4,2.4-6.7,4.1-10c1.7-3.3,3.6-6.3,5.9-9.1c2.3-2.8,4.8-4.8,7.6-6
	c1.7-0.7,3.3-0.8,4.8-0.4c1.5,0.4,2.8,1.2,3.7,2.3c1,1.1,1.6,2.5,1.8,4.1C1391.8,190.7,1391.5,192.3,1390.6,194 M1379.3,193.4
	c-1.6,2.4-2.8,4.3-3.6,5.8c-0.8,1.5-1.6,3-2.2,4.5c1.1-1,2.1-2,3.2-3c1-1,2-2.1,3-3.2c1.3-1.6,2.3-3.1,3.2-4.6
	c0.9-1.5,1.3-2.8,1.1-3.8c-0.1-0.2-0.9,0.4-2.4,1.8c-0.3,0.3-0.7,0.7-1.1,1.2c-0.4,0.5-0.8,1-1.1,1.5L1379.3,193.4z"/>
</svg>
