<?xml version="1.0" encoding="UTF-8" standalone="no"?>
<svg
   xmlns:dc="http://purl.org/dc/elements/1.1/"
   xmlns:cc="http://creativecommons.org/ns#"
   xmlns:rdf="http://www.w3.org/1999/02/22-rdf-syntax-ns#"
   xmlns:svg="http://www.w3.org/2000/svg"
   xmlns="http://www.w3.org/2000/svg"
   xml:space="preserve"
   style="enable-background:new 0 0 305.584 305.584;"
   viewBox="0 0 305.584 305.584"
   y="0px"
   x="0px"
   id="Layer_1"
   version="1.1"><metadata
     id="metadata75"><rdf:RDF><cc:Work
         rdf:about=""><dc:format>image/svg+xml</dc:format><dc:type
           rdf:resource="http://purl.org/dc/dcmitype/StillImage" /><dc:title></dc:title></cc:Work></rdf:RDF></metadata><defs
     id="defs73" /><g
     transform="rotate(120.70285,148.86708,126.55682)"
     id="g38"><path
       id="path2"
       d="M 152.792,0 C 98.689,0 48.083,14.95 4.859,40.929 L 152.792,287.6 300.725,40.929 C 257.501,14.95 206.895,0 152.792,0 Z"
       style="fill:#d9a460" /><path
       id="path4"
       d="m 152.792,41.579 c -46.281,0 -89.571,12.789 -126.546,35.012 l 81.574,136.022 c -0.003,0.111 -0.017,0.22 -0.017,0.332 v 81.447 c 0,6.182 5.011,11.192 11.192,11.192 6.181,0 11.192,-5.011 11.192,-11.192 V 249.91 l 22.604,37.69 51.181,-85.342 v 34.182 c 0,6.181 5.011,11.191 11.192,11.191 6.182,0 11.192,-5.011 11.192,-11.191 v -71.507 l 10.258,-17.105 v 31.82 c 0,6.181 5.011,11.191 11.192,11.191 6.182,0 11.192,-5.011 11.192,-11.191 V 110.502 L 279.335,76.591 C 242.363,54.368 199.073,41.579 152.792,41.579 Z"
       style="fill:#f2d383" /><path
       id="path6"
       d="m 152.792,41.579 c -46.281,0 -89.571,12.789 -126.546,35.012 l 6.183,10.31 C 67.598,65.764 108.772,53.6 152.792,53.6 c 44.02,0 85.194,12.164 120.363,33.3 l 6.183,-10.31 C 242.363,54.368 199.073,41.579 152.792,41.579 Z"
       style="fill:#b3874f" /><path
       id="path8"
       d="m 188.979,160.65 c -22.995,0 -41.637,18.642 -41.637,41.638 0,19.777 13.795,36.321 32.284,40.567 l 40.732,-67.919 c -7.633,-8.75 -18.856,-14.286 -31.379,-14.286 z"
       style="fill:#e94f3d" /><path
       id="path10"
       d="m 91.704,102.164 c -15.968,0 -29.83,8.993 -36.815,22.188 l 36.631,61.079 c 0.062,10e-4 0.123,0.005 0.184,0.005 22.996,0 41.638,-18.64 41.638,-41.635 0,-22.995 -18.642,-41.637 -41.638,-41.637 z"
       style="fill:#e94f3d" /><circle
       id="circle12"
       r="41.637001"
       cy="104.166"
       cx="191.979"
       style="fill:#e94f3d" /><g
       id="g18"><path
         id="path14"
         d="M 128.552,42.768 C 100.24,45.539 73.34,53.109 48.667,64.655 c 6.041,15.541 21.135,26.562 38.811,26.562 22.996,0 41.638,-18.641 41.638,-41.635 0,-2.322 -0.199,-4.597 -0.564,-6.814 z"
         style="fill:#e94f3d" /><path
         id="path16"
         d="m 128.552,42.768 c -28.312,2.771 -55.213,10.341 -79.885,21.887 1.478,3.797 3.494,7.326 5.959,10.489 22.949,-10.624 47.906,-17.645 74.15,-20.322 0.216,-1.718 0.34,-3.464 0.34,-5.24 0,-2.322 -0.199,-4.597 -0.564,-6.814 z"
         style="fill:#c24232" /></g><g
       id="g36"><circle
         id="circle20"
         r="4"
         cy="42.049"
         cx="26.292"
         style="fill:#b3874f" /><circle
         id="circle22"
         r="4"
         cy="50.049"
         cx="58.889"
         style="fill:#b3874f" /><circle
         id="circle24"
         r="4"
         cy="22.799999"
         cx="94.114998"
         style="fill:#b3874f" /><circle
         id="circle26"
         r="4"
         cy="30.799999"
         cx="139.79201"
         style="fill:#b3874f" /><circle
         id="circle28"
         r="4"
         cy="14.8"
         cx="187.85001"
         style="fill:#b3874f" /><circle
         id="circle30"
         r="4"
         cy="38.049"
         cx="211.16499"
         style="fill:#b3874f" /><circle
         id="circle32"
         r="4"
         cy="45.578999"
         cx="283.33801"
         style="fill:#b3874f" /><circle
         id="circle34"
         r="4"
         cy="37.578999"
         cx="249.79201"
         style="fill:#b3874f" /></g></g><g
     id="g40" /><g
     id="g42" /><g
     id="g44" /><g
     id="g46" /><g
     id="g48" /><g
     id="g50" /><g
     id="g52" /><g
     id="g54" /><g
     id="g56" /><g
     id="g58" /><g
     id="g60" /><g
     id="g62" /><g
     id="g64" /><g
     id="g66" /><g
     id="g68" /></svg>