<?xml version="1.0" encoding="iso-8859-1"?>
<!-- Generator: Adobe Illustrator 19.0.0, SVG Export Plug-In . SVG Version: 6.00 Build 0)  -->
<svg version="1.1" id="Capa_1" xmlns="http://www.w3.org/2000/svg" xmlns:xlink="http://www.w3.org/1999/xlink" x="0px" y="0px"
	 viewBox="0 0 512.001 512.001" style="enable-background:new 0 0 512.001 512.001;" xml:space="preserve">
<g>
	<g fill="#21b186">
		<path d="M290.897,0C179.56,0,88.982,90.578,88.982,201.914c0,8.335,6.801,15.091,15.136,15.091c4.994,0,9.665-2.471,12.476-6.6
			c7.727-11.351,20.519-18.128,34.218-18.128c13.701,0,26.493,6.776,34.219,18.128c2.81,4.129,7.481,6.6,12.476,6.6
			c4.994,0,9.665-2.471,12.476-6.6c7.727-11.351,20.519-18.128,34.219-18.128c12.254,0,23.77,5.434,31.598,14.702v99.323h-12.68
			c-8.335,0-15.091,6.757-15.091,15.091s6.757,15.091,15.091,15.091h12.68v58.544H142.675L44.953,297.31
			c-5.893-5.893-15.449-5.893-21.342,0c-5.894,5.893-5.894,15.449,0,21.342l102.141,102.141c2.83,2.83,6.668,4.421,10.671,4.421
			h55.272l-40.425,63.597c-4.471,7.034-2.393,16.361,4.64,20.832c7.034,4.471,16.36,2.392,20.832-4.64l50.717-79.789h48.339v71.693
			c0,8.335,6.757,15.091,15.091,15.091c8.335,0,15.091-6.757,15.091-15.091v-71.693h48.339l50.717,79.789
			c2.875,4.524,7.759,6.997,12.751,6.997c2.769,0,5.571-0.762,8.081-2.357c7.034-4.471,9.112-13.799,4.64-20.832l-40.425-63.597
			h55.271c8.335,0,15.091-6.757,15.091-15.091c0-8.335-6.757-15.091-15.091-15.091H305.982v-58.544h12.691
			c8.335,0,15.091-6.757,15.091-15.091s-6.757-15.091-15.091-15.091h-12.691v-99.31c7.825-9.276,19.347-14.716,31.609-14.716
			c13.7,0,26.493,6.776,34.218,18.128c2.811,4.129,7.482,6.6,12.476,6.6c4.993,0,9.665-2.471,12.475-6.599
			c7.728-11.352,20.52-18.129,34.22-18.129c13.7,0,26.493,6.776,34.218,18.128c2.811,4.129,7.527,6.6,12.521,6.6
			c8.335,0,15.091-6.757,15.091-15.091C492.811,90.578,402.233,0,290.897,0z M430.981,162.096c-17.352,0-33.856,6.277-46.695,17.341
			c-12.837-11.062-29.343-17.341-46.694-17.341c-16.253,0-31.763,5.509-44.211,15.298c-0.812-0.135-1.639-0.222-2.489-0.222
			c-0.846,0-1.671,0.086-2.479,0.22c-12.449-9.789-27.957-15.297-44.21-15.297c-17.351,0-33.857,6.279-46.695,17.341
			c-12.837-11.062-29.344-17.341-46.695-17.341c-9.869,0-19.465,2.032-28.267,5.818c15.819-78.466,85.293-137.73,168.353-137.73
			S443.43,89.447,459.249,167.914C450.447,164.128,440.848,162.096,430.981,162.096z"/>
	</g>
</g>
<g>
</g>
<g>
</g>
<g>
</g>
<g>
</g>
<g>
</g>
<g>
</g>
<g>
</g>
<g>
</g>
<g>
</g>
<g>
</g>
<g>
</g>
<g>
</g>
<g>
</g>
<g>
</g>
<g>
</g>
</svg>
