<?xml version="1.0" encoding="iso-8859-1"?>
<!-- Generator: Adobe Illustrator 19.0.0, SVG Export Plug-In . SVG Version: 6.00 Build 0)  -->
<svg version="1.1" id="Capa_1" xmlns="http://www.w3.org/2000/svg" xmlns:xlink="http://www.w3.org/1999/xlink" x="0px" y="0px"
	 viewBox="0 0 511.999 511.999" style="enable-background:new 0 0 511.999 511.999;" xml:space="preserve">
<g fill="#21b186">
	<g>
		<path d="M428.153,0H83.846C59.923,0,40.46,19.463,40.46,43.386v425.227c0,23.923,19.463,43.386,43.386,43.386h344.307
			c23.923,0,43.386-19.463,43.386-43.386V43.386C471.539,19.463,452.076,0,428.153,0z M71.029,43.386
			c0-7.067,5.75-12.817,12.817-12.817h344.307c7.067,0,12.817,5.75,12.817,12.817v65.085H71.029V43.386z M440.971,468.613h-0.001
			c0,7.067-5.75,12.817-12.817,12.817H83.846c-7.067,0-12.817-5.75-12.817-12.817V139.039h369.943V468.613z"/>
	</g>
</g>
<g fill="#21b186">
	<g>
		<path d="M256.003,178.484c-72.647,0-131.75,59.103-131.75,131.751s59.103,131.75,131.751,131.75
			c72.647,0,131.75-59.103,131.75-131.75S328.65,178.484,256.003,178.484z M256.003,209.053c53.252,0,97.026,41.352,100.901,93.632
			c-45.779,31.991-68.389,13.923-86.707-0.723c-1.704-1.361-3.313-2.648-4.915-3.873c-1.385-1.058-2.843-2.225-4.383-3.457
			c-17-13.591-49.62-39.655-101.406-14.802C172.432,238.849,210.801,209.053,256.003,209.053z M256.003,411.416
			c-53.253,0-97.026-41.352-100.901-93.631c45.776-31.988,68.387-13.923,86.707,0.723c1.704,1.362,3.314,2.649,4.916,3.873
			c1.385,1.058,2.842,2.224,4.383,3.456c11.899,9.514,31.448,25.145,59.871,25.145c12.182,0,25.995-2.877,41.533-10.333
			C339.569,381.625,301.201,411.416,256.003,411.416z"/>
	</g>
</g>
<g fill="#21b186">
	<g>
		<path d="M404.099,54.235h-22.552c-8.441,0-15.284,6.843-15.284,15.284c0,8.441,6.843,15.284,15.284,15.284h22.552
			c8.441,0,15.284-6.843,15.284-15.284C419.383,61.078,412.54,54.235,404.099,54.235z"/>
	</g>
</g>
<g fill="#21b186">
	<g>
		<path d="M336.281,54.235h-22.552c-8.441,0-15.284,6.843-15.284,15.284c0,8.441,6.843,15.284,15.284,15.284h22.552
			c8.441,0,15.284-6.843,15.284-15.284C351.565,61.078,344.722,54.235,336.281,54.235z"/>
	</g>
</g>
<g fill="#21b186">
	<g>
		<path d="M182.419,54.235H107.9c-8.441,0-15.284,6.843-15.284,15.284c0,8.441,6.843,15.284,15.284,15.284h74.519
			c8.441,0,15.284-6.843,15.284-15.284C197.704,61.078,190.86,54.235,182.419,54.235z"/>
	</g>
</g>
<g>
</g>
<g>
</g>
<g>
</g>
<g>
</g>
<g>
</g>
<g>
</g>
<g>
</g>
<g>
</g>
<g>
</g>
<g>
</g>
<g>
</g>
<g>
</g>
<g>
</g>
<g>
</g>
<g>
</g>
</svg>
