<?xml version="1.0" encoding="iso-8859-1"?>
<!-- Generator: Adobe Illustrator 19.0.0, SVG Export Plug-In . SVG Version: 6.00 Build 0)  -->
<svg version="1.1" id="Capa_1" xmlns="http://www.w3.org/2000/svg" xmlns:xlink="http://www.w3.org/1999/xlink" x="0px" y="0px"
	 viewBox="0 0 512.001 512.001" style="enable-background:new 0 0 512.001 512.001;" xml:space="preserve">
<g fill="#21b186">
	<g>
		<path d="M303.414,349.413c-26.144-26.145-68.683-26.145-94.827,0c-26.144,26.144-26.144,68.683,0,94.827
			c13.072,13.072,30.242,19.608,47.413,19.608s34.342-6.536,47.413-19.608C329.558,418.096,329.558,375.557,303.414,349.413z
			 M281.529,422.353c-14.077,14.076-36.98,14.076-51.055,0c-14.076-14.076-14.076-36.979,0-51.055
			c7.038-7.037,16.283-10.556,25.528-10.556s18.489,3.519,25.528,10.556C295.604,385.374,295.604,408.276,281.529,422.353z"/>
	</g>
</g>
<g fill="#21b186">
	<g>
		<path d="M410.949,248.835c-85.438-85.439-224.458-85.439-309.897,0c-2.902,2.902-4.533,6.837-4.533,10.942
			c0,4.104,1.631,8.04,4.533,10.942l47.22,47.22c2.902,2.902,6.838,4.533,10.942,4.533c4.105,0,8.041-1.631,10.943-4.533
			c22.887-22.888,53.373-35.493,85.842-35.493s62.955,12.604,85.843,35.493c2.903,2.902,6.838,4.533,10.943,4.533
			c4.104,0,8.041-1.631,10.942-4.533l47.22-47.22c2.902-2.902,4.533-6.838,4.533-10.942
			C415.482,255.673,413.851,251.737,410.949,248.835z M352.239,285.659c-27.08-22.13-60.718-34.163-96.238-34.163
			c-35.521,0-69.159,12.033-96.239,34.163l-25.436-25.436c69.95-59.369,173.399-59.369,243.349,0L352.239,285.659z"/>
	</g>
</g>
<g fill="#21b186">
	<g>
		<path d="M507.468,152.315C440.299,85.146,350.993,48.154,256,48.154c-94.992,0-184.298,36.992-251.467,104.162
			c-6.044,6.044-6.044,15.842,0,21.886l47.221,47.22c6.044,6.044,15.843,6.044,21.886,0c100.555-100.554,264.169-100.554,364.723,0
			c3.021,3.023,6.982,4.533,10.942,4.533c3.96,0,7.92-1.511,10.942-4.533l47.22-47.22
			C513.512,168.157,513.512,158.359,507.468,152.315z M449.016,188.882c-109.444-98.418-276.583-98.418-386.029,0l-25.37-25.37
			c59.88-54.549,136.836-84.407,218.384-84.407s158.503,29.858,218.384,84.407L449.016,188.882z"/>
	</g>
</g>
<g>
</g>
<g>
</g>
<g>
</g>
<g>
</g>
<g>
</g>
<g>
</g>
<g>
</g>
<g>
</g>
<g>
</g>
<g>
</g>
<g>
</g>
<g>
</g>
<g>
</g>
<g>
</g>
<g>
</g>
</svg>
