<svg height="549pt" viewBox="-17 -72 549.33231 549" width="549pt" xmlns="http://www.w3.org/2000/svg">
<path fill="#21b186" d="m144.5625 337.128906c4.390625 4.390625 11.507812 4.390625 15.898438 0l124.5-124.5 166.273437 166.265625h-378.296875c-6.207031 0-11.242188 5.035157-11.242188 11.238281 0 6.210938 5.035157 11.238282 11.242188 11.238282h430.824219c6.207031 0 11.238281-5.027344 11.238281-11.238282 0-6.203124-5.03125-11.238281-11.238281-11.238281h-21.167969c-.453125-.738281-.988281-1.417969-1.597656-2.03125l-180.136719-180.132812 124.5-124.5c4.390625-4.390625 4.390625-11.507813 0-15.898438-37.132813-37.371093-87.683594-58.335937-140.378906-58.210937h-.070313c-47.921875-.105469-94.242187 17.253906-130.296875 48.832031l-6.511719-6.519531c-2.835937-2.878906-6.992187-4.019532-10.894531-2.984375-3.902343 1.035156-6.949219 4.082031-7.984375 7.984375s.101563 8.058594 2.980469 10.894531l6.320313 6.320313c-71.832032 78.339843-69.167969 199.375 6.039062 274.480468zm8.195312-24.085937c-53.828124-61.121094-58.691406-151.191407-11.765624-217.753907-11.359376 64.492188 6.539062 130.695313 48.84375 180.675782zm53.03125-53.03125c-42.34375-51.085938-56.363281-119.945313-37.363281-183.519531 63.570313-18.960938 132.414063-4.941407 183.507813 37.371093zm79.128907-239.410157h.0625c42.839843-.113281 84.226562 15.519532 116.296875 43.921876l-33.394532 33.398437c-49.371093-41.746094-114.570312-59.742187-178.363281-49.214844 28.410157-18.410156 61.546875-28.167969 95.398438-28.105469zm0 0"/>
<path fill="#21b186" d="m42.644531 81.757812c23.550781.003907 42.640625-19.089843 42.640625-42.644531 0-23.550781-19.089844-42.644531-42.640625-42.644531s-42.644531 19.09375-42.644531 42.644531c.0234375 23.539063 19.101562 42.617188 42.644531 42.644531zm0-62.8125c11.136719-.003906 20.164063 9.027344 20.164063 20.167969 0 11.136719-9.027344 20.164063-20.164063 20.164063s-20.167969-9.027344-20.167969-20.167969c.015626-11.128906 9.035157-20.148437 20.167969-20.164063zm0 0"/></svg>