<svg height="484pt" viewBox="-112 -15 484 484" width="484pt" xmlns="http://www.w3.org/2000/svg">
<path fill="#21b186" d="m9.832031 328.75c6.210938 0 11.25-5.039062 11.25-11.25v-22.5c0-6.210938-5.039062-11.25-11.25-11.25-6.210937 0-11.25 5.039062-11.25 11.25v22.5c0 6.210938 5.039063 11.25 11.25 11.25zm0 0"/>
<path fill="#21b186" d="m56.082031 328.75c6.210938 0 11.25-5.039062 11.25-11.25v-22.5c0-6.210938-5.039062-11.25-11.25-11.25-6.210937 0-11.25 5.039062-11.25 11.25v22.5c0 6.210938 5.039063 11.25 11.25 11.25zm0 0"/>
<path fill="#21b186" d="m101.082031 283.75c-6.210937 0-11.25 5.039062-11.25 11.25v22.5c0 6.210938 5.039063 11.25 11.25 11.25 6.210938 0 11.25-5.039062 11.25-11.25v-22.5c0-6.210938-5.039062-11.25-11.25-11.25zm0 0"/>
<path fill="#21b186" d="m147.332031 283.75c-6.210937 0-11.25 5.039062-11.25 11.25v22.5c0 6.210938 5.039063 11.25 11.25 11.25 6.210938 0 11.25-5.039062 11.25-11.25v-22.5c0-6.210938-5.039062-11.25-11.25-11.25zm0 0"/>
<path fill="#21b186" d="m-1.417969 380c0 6.210938 5.039063 11.25 11.25 11.25 6.210938 0 11.25-5.039062 11.25-11.25v-22.5c0-6.210938-5.039062-11.25-11.25-11.25-6.210937 0-11.25 5.039062-11.25 11.25zm0 0"/>
<path fill="#21b186" d="m44.832031 380c0 6.210938 5.039063 11.25 11.25 11.25 6.210938 0 11.25-5.039062 11.25-11.25v-22.5c0-6.210938-5.039062-11.25-11.25-11.25-6.210937 0-11.25 5.039062-11.25 11.25zm0 0"/>
<path fill="#21b186" d="m89.832031 380c0 6.210938 5.039063 11.25 11.25 11.25 6.210938 0 11.25-5.039062 11.25-11.25v-22.5c0-6.210938-5.039062-11.25-11.25-11.25-6.210937 0-11.25 5.039062-11.25 11.25zm0 0"/>
<path fill="#21b186" d="m136.082031 380c0 6.210938 5.039063 11.25 11.25 11.25 6.210938 0 11.25-5.039062 11.25-11.25v-22.5c0-6.210938-5.039062-11.25-11.25-11.25-6.210937 0-11.25 5.039062-11.25 11.25zm0 0"/>
<path fill="#21b186" d="m-1.417969 442.5c0 6.210938 5.039063 11.25 11.25 11.25 6.210938 0 11.25-5.039062 11.25-11.25v-22.5c0-6.210938-5.039062-11.25-11.25-11.25-6.210937 0-11.25 5.039062-11.25 11.25zm0 0"/>
<path fill="#21b186" d="m44.832031 442.5c0 6.210938 5.039063 11.25 11.25 11.25 6.210938 0 11.25-5.039062 11.25-11.25v-22.5c0-6.210938-5.039062-11.25-11.25-11.25-6.210937 0-11.25 5.039062-11.25 11.25zm0 0"/>
<path fill="#21b186" d="m89.832031 442.5c0 6.210938 5.039063 11.25 11.25 11.25 6.210938 0 11.25-5.039062 11.25-11.25v-22.5c0-6.210938-5.039062-11.25-11.25-11.25-6.210937 0-11.25 5.039062-11.25 11.25zm0 0"/>
<path fill="#21b186" d="m136.082031 442.5c0 6.210938 5.039063 11.25 11.25 11.25 6.210938 0 11.25-5.039062 11.25-11.25v-22.5c0-6.210938-5.039062-11.25-11.25-11.25-6.210937 0-11.25 5.039062-11.25 11.25zm0 0"/>
<path fill="#21b186" d="m242.332031 206.25c6.210938 0 11.25-5.039062 11.25-11.25v-183.75c0-6.210938-5.039062-11.25-11.25-11.25-6.210937 0-11.25 5.039062-11.25 11.25v84.171875h-101.25c-33.8125.039063-61.210937 27.4375-61.25 61.25v5.246094h-13.75c-33.8125.039062-61.210937 27.441406-61.25 61.25v25c0 6.214843 5.039063 11.25 11.25 11.25h150c6.210938 0 11.25-5.035157 11.25-11.25v-25c-.039062-33.808594-27.433593-61.210938-61.25-61.25h-13.75v-5.246094c.027344-21.394531 17.359375-38.726563 38.75-38.75h101.25v77.078125c0 6.210938 5.039063 11.25 11.25 11.25zm-226.25 30.671875v-5.671875h127.5v5.671875zm124.703125-28.171875h-121.902344c5.902344-14.679688 20.125-24.304688 35.949219-24.328125h50c15.828125.023437 30.050781 9.648437 35.953125 24.328125zm0 0"/></svg>