<svg height="530pt" viewBox="-60 -16 530 530.66669" width="530pt" xmlns="http://www.w3.org/2000/svg">
<path fill="#21b186" d="m33.667969 0c-20.011719.0234375-36.226563 16.242188-36.25 36.25v425c.023437 20.007812 16.238281 36.226562 36.25 36.25h337.5c20.007812-.023438 36.222656-16.242188 36.25-36.25v-425c-.027344-20.007812-16.242188-36.2265625-36.25-36.25zm351.25 36.25v425c-.011719 7.585938-6.164063 13.742188-13.75 13.75h-337.5c-7.589844-.007812-13.742188-6.164062-13.75-13.75v-425c.007812-7.585938 6.160156-13.742188 13.75-13.75h337.5c7.585937.007812 13.738281 6.164062 13.75 13.75zm0 0"/>
<path fill="#21b186" d="m202.417969 243.75c-40.734375 0-73.75 33.015625-73.75 73.75s33.015625 73.75 73.75 73.75c40.730469 0 73.75-33.015625 73.75-73.75-.046875-40.710938-33.039063-73.707031-73.75-73.75zm0 125c-28.308594 0-51.25-22.945312-51.25-51.25s22.941406-51.25 51.25-51.25c28.304687 0 51.25 22.945312 51.25 51.25-.035157 28.289062-22.960938 51.214844-51.25 51.25zm0 0"/>
<path fill="#21b186" d="m202.417969 187.5c-71.796875 0-130 58.203125-130 130s58.203125 130 130 130 130-58.203125 130-130c-.085938-71.761719-58.238281-129.917969-130-130zm0 237.5c-59.371094 0-107.5-48.128906-107.5-107.5s48.128906-107.5 107.5-107.5c59.367187 0 107.5 48.128906 107.5 107.5-.070313 59.339844-48.160157 107.429688-107.5 107.5zm0 0"/>
<path fill="#21b186" d="m83.667969 100h155c6.210937 0 11.25-5.039062 11.25-11.25s-5.039063-11.25-11.25-11.25h-155c-6.210938 0-11.25 5.039062-11.25 11.25s5.039062 11.25 11.25 11.25zm0 0"/>
<path fill="#21b186" d="m310.621094 58.75c-16.570313 0-30 13.433594-30 30s13.429687 30 30 30c16.566406 0 30-13.433594 30-30-.019532-16.5625-13.4375-29.980469-30-30zm0 37.5c-4.140625 0-7.5-3.359375-7.5-7.5s3.359375-7.5 7.5-7.5 7.5 3.359375 7.5 7.5c-.007813 4.140625-3.359375 7.496094-7.5 7.5zm0 0"/></svg>